SplineFontDB: 3.0
FontName: Garuda-Bold
FullName: Garuda Bold
FamilyName: Garuda
Weight: Bold
Copyright: Generated by NECTEC for Public Domain\n\nModified under GNU General Public License by TLWG
Version: 2.62: 2010-07-28
ItalicAngle: 0
UnderlinePosition: -27
UnderlineWidth: 20
Ascent: 872
Descent: 128
LayerCount: 2
Layer: 0 0 "Back"  1
Layer: 1 0 "Fore"  0
NeedsXUIDChange: 1
FSType: 0
OS2Version: 0
OS2_WeightWidthSlopeOnly: 0
OS2_UseTypoMetrics: 0
CreationTime: 1153661448
ModificationTime: 1280334289
PfmFamily: 33
TTFWeight: 700
TTFWidth: 5
LineGap: 0
VLineGap: 0
Panose: 2 11 7 4 2 2 2 2 2 4
OS2TypoAscent: 0
OS2TypoAOffset: 1
OS2TypoDescent: 0
OS2TypoDOffset: 1
OS2TypoLinegap: 0
OS2WinAscent: 1284
OS2WinAOffset: 0
OS2WinDescent: 591
OS2WinDOffset: 0
HheadAscent: 1284
HheadAOffset: 0
HheadDescent: -591
HheadDOffset: 0
OS2Vendor: 'PfEd'
Lookup: 6 0 0 "'ccmp' Thai General Composition"  {"'ccmp' Thai Below Vowel Tone Reordering"  "'ccmp' Thai General Composition"  } ['ccmp' ('DFLT' <'dflt' > 'thai' <'KUY ' 'PAL ' 'THA ' 'dflt' > ) ]
Lookup: 6 0 0 "'ccmp' Thai Conditional Descender Removal"  {"'ccmp' Thai Conditional Descender Removal"  } ['ccmp' ('DFLT' <'dflt' > 'thai' <'KUY ' 'PAL ' 'THA ' 'dflt' > ) ]
Lookup: 5 0 0 "Required Thai Descender Removal"  {"Required Thai Descender Removal"  } [' RQD' ('thai' <'PAL ' > ) ]
Lookup: 1 0 0 "Thai Descender Removal Single Substitution"  {"Thai Descender Removal Single Substitution" ("descless" ) } []
Lookup: 2 0 0 "Thai Sara Am Decomposition"  {"Thai Sara Am Decomposition"  } []
Lookup: 2 0 0 "Thai Tone Nikhahit Attachment"  {"Thai Tone Nikhahit Attachment"  } []
Lookup: 1 0 0 "Thai Sara Am Lakkhang"  {"Thai Sara Am Lakkhang"  } []
Lookup: 1 0 0 "Thai Tone Low Variant"  {"Thai Tone Low Variant" ("low" ) } []
Lookup: 1 0 0 "Thai Mark High Variant"  {"Thai Mark High Variant" ("high" ) } []
Lookup: 1 0 0 "Thai Sara U Mai Ek Reordering"  {"Thai Sara U Mai Ek Reordering"  } []

StartChar: .notdef
Encoding: 0 -1 0
Width: 766
VWidth: 2048
Flags: W
HStem: 0 95<192 575> 1242 95<192 575>
VStem: 95 97<95 1242> 575 96<95 1242>
LayerCount: 2
Fore
SplineSet
95 0 m 1
 95 1337 l 1
 671 1337 l 1
 671 0 l 1
 95 0 l 1
192 95 m 1
 575 95 l 1
 575 1242 l 1
 192 1242 l 1
 192 95 l 1
EndSplineSet
EndChar

StartChar: exclam
Encoding: 33 33 2
Width: 308
Flags: W
HStem: 2 145<112.38 209.167> 680 20G<102 220>
VStem: 94 133<19.5198 129.864> 102 118<212 700>
LayerCount: 2
Back
SplineSet
221 212 m 1
 98 212 l 5
 98 697 l 5
 221 697 l 1
 221 212 l 1
227 75 m 0
 227 41 207 2 161 2 c 0
 115 2 94 41 94 75 c 0
 94 109 115 147 161 147 c 0
 207 147 227 109 227 75 c 0
EndSplineSet
Fore
SplineSet
220 212 m 1xd0
 102 212 l 1
 102 700 l 1
 220 700 l 1
 220 212 l 1xd0
227 75 m 0xe0
 227 41 207 2 161 2 c 0
 115 2 94 41 94 75 c 0
 94 109 115 147 161 147 c 0
 207 147 227 109 227 75 c 0xe0
EndSplineSet
EndChar

StartChar: quotedbl
Encoding: 34 34 3
Width: 458
Flags: W
HStem: 455 242<98 124 334 360>
VStem: 61 101<555.342 697> 296 101<555.342 697>
LayerCount: 2
Back
SplineSet
360 455 m 1
 334 455 l 1
 296 578 l 1
 296 697 l 1
 397 697 l 1
 397 578 l 1
 360 455 l 1
124 455 m 1
 98 455 l 1
 61 578 l 1
 61 697 l 1
 162 697 l 1
 162 578 l 1
 124 455 l 1
EndSplineSet
Fore
SplineSet
360 455 m 1
 334 455 l 1
 296 578 l 1
 296 697 l 1
 397 697 l 1
 397 578 l 1
 360 455 l 1
124 455 m 1
 98 455 l 1
 61 578 l 1
 61 697 l 1
 162 697 l 1
 162 578 l 1
 124 455 l 1
EndSplineSet
EndChar

StartChar: numbersign
Encoding: 35 35 4
Width: 597
Flags: W
HStem: 0 21G<86 188.096 290 390.337> 166 99<31 120 238 325 441 540> 412 103<72 166 282 374 484 567> 680 20G<212.324 316 421.892 521>
DStem2: 86 0 184 0 0.185306 0.982681<18.1599 169.425 288.577 419.689 542.401 711.966> 290 0 386 0 0.19072 0.981645<18.3091 169.628 288.934 420.458 542.547 713.089>
LayerCount: 2
Fore
SplineSet
441 265 m 1
 540 265 l 1
 540 166 l 1
 422 166 l 1
 386 0 l 1
 290 0 l 1
 325 166 l 1
 218 166 l 1
 184 0 l 1
 86 0 l 1
 120 166 l 1
 31 166 l 1
 31 265 l 1
 139 265 l 1
 166 412 l 1
 72 412 l 1
 72 515 l 1
 182 515 l 1
 216 700 l 1
 316 700 l 1
 282 515 l 1
 388 515 l 1
 426 700 l 1
 521 700 l 1
 484 515 l 1
 567 515 l 1
 567 412 l 1
 469 412 l 1
 441 265 l 1
238 265 m 1
 343 265 l 1
 374 412 l 1
 264 412 l 1
 238 265 l 1
EndSplineSet
EndChar

StartChar: dollar
Encoding: 36 36 5
Width: 574
Flags: W
HStem: 535 101<224.016 264 359 386.153> 680 20G<264 359>
VStem: 92 110<129.617 210 421.675 514.794> 264 95<-75 2 106 264 400 532 636 700> 406 112<434 516.315> 414 114<122.977 239.666>
LayerCount: 2
Fore
SplineSet
92 457 m 0xf4
 92 567 178 636 264 636 c 1
 264 700 l 1
 359 700 l 1
 359 636 l 1
 443 625 518 560 518 474 c 0
 518 453 515 434 497 434 c 2
 426 434 l 2
 423 434 408 435 406 454 c 0xf8
 406 489 395 521 359 532 c 1
 359 377 l 1
 429 353 528 310 528 185 c 0
 528 65 433 2 359 2 c 1
 359 -75 l 1
 264 -75 l 1
 264 2 l 1
 133 2 93 123.5 93 183 c 0
 93 196 98 210 113 210 c 2
 182 210 l 2
 201 210 204 187 204 184 c 0
 204 145.5 216 120 264 106 c 1
 264 285 l 1
 230 291 166 310 123 357 c 0
 104 378 92 416 92 457 c 0xf4
265 400 m 1
 265 535 l 1
 236 530 202 509 202 461 c 0
 202 429 246 403 265 400 c 1
359 264 m 1
 359 104 l 1
 385 110 414 132 414 186 c 0xf4
 414 230 386 252 359 264 c 1
EndSplineSet
EndChar

StartChar: percent
Encoding: 37 37 6
Width: 697
Flags: W
HStem: -8 61<510.005 578.859> 0 21G<95 226.686> 308 61<509.416 578.25> 322 61<146.021 214.865> 638 61<145.422 215.295>
VStem: 41 86<402.014 619.941> 233 86<400.869 620.456> 406 86<72.2455 290.852> 598 86<72.1825 288.361>
DStem2: 95 0 215 0 0.507235 0.861808<60.8682 812.246>
LayerCount: 2
Back
SplineSet
41 510 m 4x1f80
 41 607 81 699 178 699 c 4
 276 699 317 607 317 510 c 4
 317 415 277 322 178 322 c 4
 81 322 41 417 41 510 c 4x1f80
231 507 m 4
 231 565 234 642 178 642 c 4
 123 642 126 549 126 510 c 4
 126 477 124 383 178 383 c 4
 235 383 231 469 231 507 c 4
406 182 m 4
 406 276 446 369 544 369 c 4
 642 369 684 279 684 182 c 4
 684 86 642 -8 544 -8 c 4xaf80
 446 -8 406 87 406 182 c 4
544 311 m 4
 489 311 492 219 492 182 c 4
 492 147 490 54 544 54 c 4
 599 54 598 139 598 176 c 4
 598 215 602 311 544 311 c 4
507 700 m 5
 624 700 l 5
 215 0 l 5
 95 0 l 5x4f80
 507 700 l 5
EndSplineSet
Fore
SplineSet
41 510 m 0x1f80
 41 607 83 699 180 699 c 0
 278 699 319 607 319 510 c 0
 319 415 279 322 180 322 c 0
 83 322 41 417 41 510 c 0x1f80
233 507 m 0
 233 565 232 638 180 638 c 0
 128 638 127 549 127 510 c 0
 127 477 128 383 180 383 c 0
 232 383 233 469 233 507 c 0
406 182 m 0
 406 276 446 369 544 369 c 0
 642 369 684 279 684 182 c 0
 684 86 642 -8 544 -8 c 0xaf80
 446 -8 406 87 406 182 c 0
544 308 m 0
 492 308 492 219 492 182 c 0
 492 147 492 53 544 53 c 0
 596 53 598 139 598 176 c 0
 598 215 596 308 544 308 c 0
507 700 m 1
 624 700 l 1
 215 0 l 1
 95 0 l 1x4f80
 507 700 l 1
EndSplineSet
EndChar

StartChar: ampersand
Encoding: 38 38 7
Width: 717
Flags: W
HStem: -5 100<215.605 382.325 601.496 683.596> 616 100<272.895 381.32>
VStem: 31 118<157.912 278.59> 134 118<491.888 594.161> 410 118<488.213 585.399> 573 106<319.116 374.991>
DStem2: 371 372 270 326 0.668396 -0.743805<0 188.124>
LayerCount: 2
Back
SplineSet
212 394 m 1xb6
 174 443 136 492 136 552 c 0
 136 659 228 707 328 707 c 0
 432 707 512 651 512 540 c 0
 512 460 466 412 371 372 c 1
 500 235 l 1
 544 288 563 342 573 389 c 1
 679 374 l 1
 661 299 622 228 566 155 c 1
 599 117 614 100 661 100 c 0
 668 100 684 101 684 101 c 1
 684 8 l 1
 667 3 651 0 635 0 c 0x6e
 576 0 535 18 489 81 c 1
 412 14 353 -8 271 -8 c 0
 213 -8 153 3 107 38 c 0
 60 75 31 152 31 219 c 0
 31 314 101 351 212 394 c 1xb6
331 635 m 0
 296 635 250 612 250 556 c 0
 250 500 303 466 330 429 c 1
 377 449 426 478 426 540 c 0
 426 601 380 635 331 635 c 0
162 226 m 0xb6
 162 153 217 87 291 87 c 0
 336 87 380 107 431 149 c 1
 270 326 l 1
 204 315 162 279 162 226 c 0xb6
EndSplineSet
Fore
SplineSet
200 409 m 1xec
 174 444 134 492 134 552 c 0xdc
 134 659 228 716 328 716 c 0
 432 716 528 651 528 540 c 0
 528 460 466 412 371 372 c 1
 500 235 l 1
 544 288 563 342 573 389 c 1
 679 374 l 1
 661 299 622 228 566 155 c 1
 599 117 614 95 661 95 c 0
 668 95 684 96 684 96 c 1
 684 3 l 1
 667 -2 651 -5 635 -5 c 0
 576 -5 535 18 489 81 c 1
 412 14 353 -5 271 -5 c 0
 132 -5 31 62 31 219 c 0
 31 314 89 366 200 409 c 1xec
331 616 m 0
 296 616 252 593 252 547 c 0
 252 501 299 467 318 444 c 1
 365 464 410 493 410 531 c 0
 410 582 366 616 331 616 c 0
149 226 m 0xec
 149 153 217 95 291 95 c 0
 336 95 380 107 431 149 c 1
 270 326 l 1
 204 315 149 279 149 226 c 0xec
EndSplineSet
EndChar

StartChar: quotesingle
Encoding: 39 39 8
Width: 298
Flags: W
HStem: 489 242<136 162>
VStem: 100 99<588.73 731>
LayerCount: 2
Fore
SplineSet
162 489 m 1
 136 489 l 1
 100 612 l 1
 100 731 l 1
 199 731 l 1
 199 612 l 1
 162 489 l 1
EndSplineSet
EndChar

StartChar: parenleft
Encoding: 40 40 9
Width: 378
Flags: W
VStem: 57 107<96.2531 467.633>
LayerCount: 2
Back
SplineSet
157 276 m 4
 157 124 193 -34 259 -167 c 5
 190 -167 l 1
 107 -37 57 120 57 281 c 0
 57 441 104 604 193 731 c 1
 262 731 l 5
 190 592 157 435 157 276 c 4
EndSplineSet
Fore
SplineSet
164 276 m 0
 164 124 200 -34 266 -167 c 1
 190 -167 l 1
 107 -37 57 120 57 281 c 0
 57 441 104 604 193 731 c 1
 269 731 l 1
 197 592 164 435 164 276 c 0
EndSplineSet
EndChar

StartChar: parenright
Encoding: 41 41 10
Width: 378
Flags: W
VStem: 172 107<99.8758 467.633>
LayerCount: 2
Back
SplineSet
146 -167 m 1
 78 -167 l 5
 144 -34 179 124 179 276 c 4
 179 435 147 592 75 731 c 5
 143 731 l 1
 231 604 279 441 279 281 c 0
 279 120 228 -37 146 -167 c 1
EndSplineSet
Fore
SplineSet
146 -167 m 1
 71 -167 l 1
 137 -34 172 124 172 276 c 0
 172 435 140 592 68 731 c 1
 143 731 l 1
 231 604 279 441 279 281 c 0
 279 120 228 -37 146 -167 c 1
EndSplineSet
EndChar

StartChar: asterisk
Encoding: 42 42 11
Width: 597
Flags: W
VStem: 261 76<590 752>
LayerCount: 2
Back
SplineSet
325 524 m 1xa0
 422 386 l 1
 388 359 l 1
 299 504 l 1
 210 359 l 1
 176 386 l 1
 276 524 l 1
 121 572 l 1
 135 616 l 1
 284 558 l 1xa0
 277 731 l 1
 320 731 l 1xc0
 314 558 l 1
 463 618 l 1
 477 572 l 1
 325 524 l 1xa0
EndSplineSet
Fore
SplineSet
359 512 m 1
 451 382 l 1
 382 327 l 1
 299 463 l 1
 216 327 l 1
 147 382 l 1
 241 512 l 1
 94 558 l 1
 121 644 l 1
 261 590 l 1
 255 752 l 1
 342 752 l 1
 337 590 l 1
 477 647 l 1
 504 558 l 1
 359 512 l 1
EndSplineSet
EndChar

StartChar: plus
Encoding: 43 43 12
Width: 565
Flags: W
HStem: 259 100<66 235 342 510>
VStem: 235 107<64 259 359 553>
LayerCount: 2
Back
SplineSet
330 264 m 1
 330 64 l 1
 247 64 l 5
 247 264 l 5
 66 264 l 1
 66 354 l 1
 247 354 l 5
 247 553 l 5
 330 553 l 1
 330 354 l 1
 510 354 l 1
 510 264 l 1
 330 264 l 1
EndSplineSet
Fore
SplineSet
342 259 m 1
 342 64 l 1
 235 64 l 1
 235 259 l 1
 66 259 l 1
 66 359 l 1
 235 359 l 1
 235 553 l 1
 342 553 l 1
 342 359 l 1
 510 359 l 1
 510 259 l 1
 342 259 l 1
EndSplineSet
EndChar

StartChar: comma
Encoding: 44 44 13
Width: 252
Flags: W
HStem: -161 51<52 104.152> 0 159<70.6594 131.842>
VStem: 133 73<-59.0031 0>
LayerCount: 2
Fore
SplineSet
52 -110 m 1
 83 -106 133 -93 133 -23 c 0
 133 -16 132 -9 132 0 c 1
 71 0 47 40 47 79 c 0
 47 119 73 159 120 159 c 0
 186 159 206 96 206 47 c 0
 206 -24 178 -142 52 -161 c 1
 52 -110 l 1
EndSplineSet
EndChar

StartChar: hyphen
Encoding: 45 45 14
AltUni2: 002010.ffffffff.0
Width: 455
Flags: W
HStem: 232 100<40 412>
LayerCount: 2
Back
SplineSet
40 241 m 1
 40 322 l 1
 412 322 l 1
 412 241 l 1
 40 241 l 1
EndSplineSet
Fore
SplineSet
40 232 m 1
 40 332 l 1
 412 332 l 1
 412 232 l 1
 40 232 l 1
EndSplineSet
EndChar

StartChar: period
Encoding: 46 46 15
Width: 217
Flags: W
HStem: 0 147<70.4958 165.504>
VStem: 51 134<18.2873 129.864>
LayerCount: 2
Fore
SplineSet
185 75 m 0
 185 41 164 0 118 0 c 0
 72 0 51 41 51 75 c 0
 51 109 72 147 118 147 c 0
 164 147 185 109 185 75 c 0
EndSplineSet
EndChar

StartChar: slash
Encoding: 47 47 16
Width: 597
Flags: W
HStem: 0 21G<32 172.686> 680 20G<433.2 570>
DStem2: 32 0 161 0 0.508149 0.861269<65.5512 812.754>
LayerCount: 2
Fore
SplineSet
445 700 m 1
 570 700 l 1
 161 0 l 1
 32 0 l 1
 445 700 l 1
EndSplineSet
EndChar

StartChar: zero
Encoding: 48 48 17
Width: 697
Flags: W
HStem: 0 86<292.246 445.754> 614 86<292.246 445.754>
VStem: 81 118<204.753 495.847> 539 118<204.753 495.847>
LayerCount: 2
Back
SplineSet
662 353 m 0
 662 181 613 0 369 0 c 0
 155 0 81 173 81 351 c 0
 81 512 155 700 369 700 c 0
 601 700 662 517 662 353 c 0
374 619 m 0
 242 619 205 468 205 351 c 0
 205 241 236 77 372 77 c 4
 510 77 536 233 536 349 c 0
 536 466 517 619 374 619 c 0
EndSplineSet
Fore
SplineSet
657 351 m 0
 657 173 583 0 369 0 c 0
 155 0 81 173 81 351 c 0
 81 512 155 700 369 700 c 0
 583 700 657 512 657 351 c 0
369 614 m 0
 233 614 199 467 199 351 c 0
 199 231 233 86 369 86 c 0
 505 86 539 231 539 351 c 0
 539 467 505 614 369 614 c 0
EndSplineSet
EndChar

StartChar: one
Encoding: 49 49 18
Width: 697
Flags: W
HStem: 0 21G<376 494> 680 20G<327 494>
VStem: 376 118<0 622>
LayerCount: 2
Back
SplineSet
376 622 m 1
 339 580 288 528 219 479 c 1
 162 538 l 1
 210 571 308 654 346 700 c 1
 504 700 l 5
 504 0 l 5
 376 0 l 1
 376 622 l 1
EndSplineSet
Fore
SplineSet
376 622 m 1
 339 580 288 528 219 479 c 1
 162 538 l 1
 210 571 308 654 346 700 c 1
 494 700 l 1
 494 0 l 1
 376 0 l 1
 376 622 l 1
EndSplineSet
EndChar

StartChar: two
Encoding: 50 50 19
Width: 697
Flags: W
HStem: 0 86<267 668> 628 86<292.468 477.034>
VStem: 105 118<434.426 566.884> 554 118<461.363 568.109>
LayerCount: 2
Back
SplineSet
394 714 m 0
 580 714 672 602 672 511 c 0
 672 436 612 378 575 354 c 0
 526 322 489 297 452 276 c 0
 395 244 336 205 284 144 c 0
 271 130 267 116 267 98 c 1
 668 98 l 1
 668 0 l 1
 116 0 l 1
 116 83 124 155 182 216 c 0
 250 290 323 328 409 372 c 0
 513 424 552 474 552 517 c 4
 552 580 465 625 382 625 c 0
 290 625 233 572 233 509 c 0
 233 489 239 469 251 445 c 1
 135 400 l 1
 112 434 105 466 105 499 c 0
 105 628 232 714 394 714 c 0
EndSplineSet
Fore
SplineSet
394 714 m 0
 580 714 672 602 672 511 c 0
 672 417 592 356 452 276 c 0
 395 244 336 205 284 144 c 0
 271 130 267 118 267 86 c 1
 668 86 l 1
 668 0 l 1
 116 0 l 1
 116 83 125 154 182 216 c 0
 250 290 323 328 409 372 c 0
 513 424 554 474 554 517 c 0
 554 580 465 628 382 628 c 0
 290 628 223 572 223 509 c 0
 223 489 229 465 241 441 c 1
 135 400 l 1
 112 434 105 466 105 499 c 0
 105 628 232 714 394 714 c 0
EndSplineSet
EndChar

StartChar: three
Encoding: 51 51 20
Width: 697
Flags: W
HStem: -8 86<288.174 489.635> 326 82<322 478.764> 620 86<308.427 489.94>
VStem: 101 118<137.806 212> 126 118<501 561.064> 538 118<456.009 575.533> 561 118<138.609 270.936>
LayerCount: 2
Back
SplineSet
679 195 m 0xe2
 679 51 535 -8 392 -8 c 0
 241 -8 101 51 101 212 c 1
 227 212 l 1
 227 108 310 76 389 76 c 0
 468 76 547 114 547 205 c 0xf2
 547 314 442 326 354 326 c 2
 322 326 l 1
 322 412 l 1
 343 412 361 408 377 408 c 0
 398 408 539 416 539 510 c 4
 539 551 518 618 396 618 c 0
 292 618 248 552 248 501 c 1
 126 501 l 1
 126 644 263 706 407 706 c 0
 589 706 656 596 656 515 c 0xec
 656 432 584 393 524 377 c 1
 524 368 l 1
 593 358 679 299 679 195 c 0xe2
EndSplineSet
Fore
SplineSet
679 195 m 0xe2
 679 51 535 -8 392 -8 c 0
 241 -8 101 51 101 212 c 1
 219 212 l 1
 219 108 310 78 389 78 c 0
 468 78 561 114 561 205 c 0xf2
 561 314 442 326 354 326 c 2
 322 326 l 1
 322 412 l 1
 343 412 361 408 377 408 c 0
 398 408 538 416 538 510 c 0
 538 551 518 620 396 620 c 0
 292 620 244 552 244 501 c 1
 126 501 l 1
 126 644 263 706 407 706 c 0
 589 706 656 596 656 515 c 0xec
 656 432 584 393 524 377 c 1
 524 368 l 1
 593 358 679 299 679 195 c 0xe2
EndSplineSet
EndChar

StartChar: four
Encoding: 52 52 21
Width: 697
Flags: W
HStem: 0 21G<463 581> 175 86<189 462 581 700> 680 20G<406.496 580>
VStem: 462 118<0 175 261 607>
LayerCount: 2
Back
SplineSet
587 178 m 1
 587 0 l 1
 458 0 l 1
 458 178 l 1
 69 178 l 1
 69 271 l 1
 418 700 l 1
 586 700 l 1
 586 261 l 1
 700 261 l 1
 700 178 l 1
 587 178 l 1
457 607 m 1
 189 261 l 1
 457 261 l 1
 457 607 l 1
EndSplineSet
Fore
SplineSet
581 175 m 1
 581 0 l 1
 463 0 l 1
 463 175 l 1
 69 175 l 1
 69 271 l 1
 423 700 l 1
 580 700 l 1
 580 261 l 1
 700 261 l 1
 700 175 l 1
 581 175 l 1
462 607 m 1
 189 261 l 1
 462 261 l 1
 462 607 l 1
EndSplineSet
EndChar

StartChar: five
Encoding: 53 53 22
Width: 697
Flags: W
HStem: -12 86<298.756 488.157> 404 86<318.549 484.916> 614 86<275 638>
VStem: 118 123<129.328 187> 564 118<149.031 325.432>
DStem2: 121 317 248 432 0.142145 0.989846<131.885 315.875>
LayerCount: 2
Back
SplineSet
441 499 m 0
 614 499 688 379 688 226 c 0
 688 84 604 -12 403 -12 c 0
 150 -12 130 124 118 187 c 1
 247 187 l 1
 259 106 313 77 394 77 c 0
 530 77 564 161 564 243 c 0
 564 344 487 396 403 396 c 0
 343 396 280 370 239 317 c 1
 121 317 l 1
 176 700 l 1
 638 700 l 1
 651 604 l 1
 281 604 l 1
 248 432 l 1
 289 454 329 499 441 499 c 0
EndSplineSet
Fore
SplineSet
441 490 m 0
 608 490 682 379 682 226 c 0
 682 84 598 -12 403 -12 c 0
 150 -12 130 124 118 187 c 1
 241 187 l 1
 253 106 307 74 394 74 c 0
 530 74 564 161 564 243 c 0
 564 344 487 404 403 404 c 0
 343 404 280 370 239 317 c 1
 121 317 l 1
 176 700 l 1
 638 700 l 1
 651 614 l 1
 275 614 l 1
 248 432 l 1
 289 454 329 490 441 490 c 0
EndSplineSet
EndChar

StartChar: six
Encoding: 54 54 23
Width: 697
Flags: W
HStem: -12 86<311.81 486.802> 379 86<316.388 486.148> 627 86<320.847 500.677>
VStem: 110 135<173.354 413.333> 110 118<385 494.666> 556 118<140.758 309.096>
LayerCount: 2
Back
SplineSet
413 -12 m 0
 167 -12 108 157 108 332 c 0
 108 647 292 713 415 713 c 0
 532 713 628 672 664 553 c 1
 550 553 l 1
 522 610 475 631 408 631 c 0
 340 631 239 592 239 385 c 1
 286 427 335 461 424 461 c 0
 584 461 676 367 676 227 c 0
 676 99 595 -12 413 -12 c 0
402 383 m 0
 306 383 245 319 245 230 c 0
 245 142 292 74 399 74 c 0
 507 74 556 142 556 224 c 0
 556 333 480 383 402 383 c 0
EndSplineSet
Fore
SplineSet
413 -12 m 0xec
 167 -12 110 157 110 332 c 0xf4
 110 647 287 713 410 713 c 0
 527 713 628 672 664 553 c 1
 550 553 l 1
 522 610 470 627 403 627 c 0
 335 627 228 592 228 385 c 1
 275 427 335 465 424 465 c 0
 584 465 674 367 674 227 c 0
 674 99 595 -12 413 -12 c 0xec
402 379 m 0
 306 379 245 319 245 230 c 0
 245 142 292 74 399 74 c 0
 507 74 556 142 556 224 c 0
 556 333 480 379 402 379 c 0
EndSplineSet
EndChar

StartChar: seven
Encoding: 55 55 24
Width: 697
Flags: W
HStem: 0 21G<231 376> 614 86<132 549>
VStem: 231 145<0 135.842>
LayerCount: 2
Back
SplineSet
423 253 m 0
 388 158 376 92.5 376 0 c 1
 231 0 l 1
 231 97.5 273 224 337 339 c 0
 391 435 466 530 552 615 c 1
 132 615 l 1
 132 700 l 1
 661 700 l 1
 661 607 l 1
 559 513 471 376 423 253 c 0
EndSplineSet
Fore
SplineSet
423 253 m 0
 388 158 376 92.5 376 0 c 1
 231 0 l 1
 231 97.5 273 224 337 339 c 0
 391 435 463 529 549 614 c 1
 132 614 l 1
 132 700 l 1
 661 700 l 1
 661 607 l 1
 559 513 471 376 423 253 c 0
EndSplineSet
EndChar

StartChar: eight
Encoding: 56 56 25
Width: 697
Flags: W
HStem: -6 86<300.913 477.25> 349 86<305.087 473.087> 619 86<305.543 472.457>
VStem: 110 118<144.915 289.731> 142 118<475.348 579.202> 518 118<475.348 579.202> 551 118<144.915 286.215>
LayerCount: 2
Back
SplineSet
389 705 m 0xe8
 515 705 636 665 636 544 c 0xec
 636 465 584 421 510 408 c 1
 512 385 l 1
 552 377 665 344 665 212 c 0
 665 90 580 -6 397 -6 c 0
 164 -6 110 128 110 217 c 0xf2
 110 348 244 380 277 385 c 1
 277 408 l 1
 202 417 142 463 142 543 c 0
 142 673 291 705 389 705 c 0xe8
547 207 m 0xf2
 547 265 516 348 388 348 c 4
 258 348 228 263 228 211 c 0
 228 140 288 67 394 67 c 0
 495 67 547 137 547 207 c 0xf2
518 537 m 0xec
 518 619 453 639 389 639 c 0
 333 639 260 618 260 536 c 0
 260 478 309 435 386 435 c 0
 478 435 518 476 518 537 c 0xec
EndSplineSet
Fore
SplineSet
389 705 m 0xe8
 493 705 636 664 636 543 c 0xec
 636 464 576 417 501 392 c 1
 534 382 669 348 669 217 c 0
 669 128 614 -6 389 -6 c 0
 164 -6 110 128 110 217 c 0xf2
 110 348 244 382 277 392 c 1
 202 417 142 464 142 543 c 0
 142 664 285 705 389 705 c 0xe8
551 217 m 0xf2
 551 269 519 349 389 349 c 0
 259 349 228 269 228 217 c 0
 228 146 283 80 389 80 c 0
 495 80 551 146 551 217 c 0xf2
518 527 m 0xec
 518 578 466 619 389 619 c 0
 312 619 260 578 260 527 c 0
 260 476 312 435 389 435 c 0
 466 435 518 476 518 527 c 0xec
EndSplineSet
EndChar

StartChar: nine
Encoding: 57 57 26
Width: 697
Flags: W
HStem: -8 86<283.813 452.609> 246 86<300.932 470.531> 624 86<298.418 473.744>
VStem: 113 118<396.492 559.493> 538 135<303.026 536.768> 555 118<222.051 337>
LayerCount: 2
Back
SplineSet
673 384 m 0xf8
 673 205 605 -8 371 -8 c 0
 179 -8 139 103 126 144 c 1
 233 144 l 1
 260 87 309 66 375 66 c 0
 486 66 558 185 558 337 c 1xf4
 541 315 495 248 366 248 c 0
 208 248 113 336 113 475 c 0
 113 600 193 710 370 710 c 0
 612 710 673 558 673 384 c 0xf8
540 473 m 0xf8
 540 538 510 628 388 628 c 0
 277 628 230 559 230 478 c 4
 230 377 307 328 384 328 c 0
 462 328 540 378 540 473 c 0xf8
EndSplineSet
Fore
SplineSet
673 384 m 0xf8
 673 205 605 -8 371 -8 c 0
 179 -8 139 115 126 156 c 1
 233 156 l 1
 260 99 309 78 375 78 c 0
 486 78 555 185 555 337 c 1xf4
 538 315 495 246 366 246 c 0
 208 246 113 336 113 475 c 0
 113 600 193 710 370 710 c 0
 612 710 673 558 673 384 c 0xf8
538 473 m 0xf8
 538 538 510 624 388 624 c 0
 277 624 231 559 231 478 c 0
 231 377 307 332 384 332 c 0
 462 332 538 378 538 473 c 0xf8
EndSplineSet
EndChar

StartChar: colon
Encoding: 58 58 27
Width: 294
Flags: W
HStem: 2 145<93.9268 190.714> 383 146<93.9268 190.714>
VStem: 75 133<20.71 128.697 401.626 509.883>
LayerCount: 2
Fore
SplineSet
208 455 m 0
 208 422 189 383 143 383 c 0
 97 383 75 422 75 455 c 0
 75 489 97 529 143 529 c 0
 189 529 208 489 208 455 c 0
208 75 m 0
 208 41 189 2 143 2 c 0
 97 2 75 41 75 75 c 0
 75 109 97 147 143 147 c 0
 189 147 208 109 208 75 c 0
EndSplineSet
EndChar

StartChar: semicolon
Encoding: 59 59 28
Width: 320
Flags: W
HStem: -161 51<79 131.152> 0 159<97.6594 158.842> 379 145<98.38 196.073>
VStem: 80 135<397.303 504.967> 160 73<-59.0031 0>
LayerCount: 2
Fore
SplineSet
79 -110 m 1xe8
 110 -106 160 -93 160 -23 c 0
 160 -16 159 -9 159 0 c 1
 98 0 74 40 74 79 c 0
 74 119 100 159 147 159 c 0
 213 159 233 96 233 47 c 0
 233 -24 205 -142 79 -161 c 1
 79 -110 l 1xe8
215 451 m 0xf0
 215 417 193 379 147 379 c 0
 101 379 80 417 80 451 c 0
 80 484 101 524 147 524 c 0
 193 524 215 484 215 451 c 0xf0
EndSplineSet
EndChar

StartChar: less
Encoding: 60 60 29
Width: 597
Flags: W
DStem2: 74 351 173 299 0.927049 0.37494<72.281 448.667> 173 299 74 247 0.925612 -0.378473<0 377.119>
LayerCount: 2
Fore
SplineSet
74 247 m 1
 74 351 l 1
 524 533 l 1
 524 435 l 1
 173 299 l 1
 524 161 l 1
 524 63 l 1
 74 247 l 1
EndSplineSet
EndChar

StartChar: equal
Encoding: 61 61 30
Width: 544
Flags: W
HStem: 138 92<66 497> 402 90<66 497>
LayerCount: 2
Fore
SplineSet
66 402 m 1
 66 492 l 1
 497 492 l 1
 497 402 l 1
 66 402 l 1
66 138 m 1
 66 230 l 1
 497 230 l 1
 497 138 l 1
 66 138 l 1
EndSplineSet
EndChar

StartChar: greater
Encoding: 62 62 31
Width: 597
Flags: W
DStem2: 74 533 74 435 0.927049 -0.37494<36.7441 411.276> 74 161 74 63 0.925612 0.378473<0 375.268>
LayerCount: 2
Fore
SplineSet
74 63 m 1
 74 161 l 1
 423 299 l 1
 74 435 l 1
 74 533 l 1
 524 351 l 1
 524 247 l 1
 74 63 l 1
EndSplineSet
EndChar

StartChar: question
Encoding: 63 63 32
Width: 538
Flags: W
HStem: -2 115<222.703 313.867> 369 147<147.935 235.095> 626 81<185.334 318.786>
VStem: 62 81<501.843 583.151> 211 115<9.54661 101.513> 222 81<141 240.166> 365 118<430.747 578.38>
LayerCount: 2
Back
SplineSet
271 707 m 0xf6
 344 707 481 668 481 512 c 0
 481 449 456 381 403 325 c 0
 359 279 305 244 305 173 c 0
 305 167 303 162 303 141 c 1
 222 141 l 1
 222 226 228 234 261 305 c 0
 295 379 368 418 368 511 c 4
 368 585 310 626 252 626 c 0
 182 626 143 570 143 522 c 0
 143 515 144 507 147 500 c 1
 167 511 184 516 199 516 c 0
 239 516 260 481 260 446 c 0
 260 393 213 369 178 369 c 0
 132 369 62 408 62 508 c 0
 62 632 158 707 271 707 c 0xf6
268 113 m 0
 306 113 326 84 326 56 c 0
 326 27 306 -2 268 -2 c 0
 230 -2 211 27 211 56 c 0xfa
 211 84 230 113 268 113 c 0
EndSplineSet
Fore
SplineSet
271 707 m 0xf6
 344 707 483 668 483 512 c 0
 483 449 456 381 403 325 c 0
 359 279 305 244 305 173 c 0
 305 167 303 162 303 141 c 1
 222 141 l 1
 222 226 228 234 261 305 c 0
 295 379 365 418 365 511 c 0
 365 585 310 626 252 626 c 0
 182 626 143 570 143 522 c 0
 143 515 144 507 147 500 c 1
 167 511 184 516 199 516 c 0
 239 516 260 481 260 446 c 0
 260 393 213 369 178 369 c 0
 132 369 62 408 62 508 c 0
 62 632 158 707 271 707 c 0xf6
268 113 m 0
 306 113 326 84 326 56 c 0
 326 27 306 -2 268 -2 c 0
 230 -2 211 27 211 56 c 0xfa
 211 84 230 113 268 113 c 0
EndSplineSet
EndChar

StartChar: at
Encoding: 64 64 33
Width: 784
Flags: W
HStem: -26 80<310.616 523.002> 135 64<487 592.112> 138 95<323.457 403.312> 440 96<338.549 442.307> 644 79<302.632 512.018>
VStem: 56 84<228.793 467.808> 195 104<258.243 396.638> 466 72<274.66 377.656> 644 84<275.623 504.341>
LayerCount: 2
Back
SplineSet
512 135 m 0xdf80
 480 135 451 153 451 195 c 1
 411 152 383 138 356 138 c 0xbf80
 274 138 204 215 204 310 c 0
 204 428 276 536 388 536 c 0
 429 536 461 523 501 472 c 1
 510 530 l 1
 590 530 l 1
 562 323 547 245 547 216 c 0
 547 199 552 199 563 199 c 0
 602 199 653 277 653 388 c 0
 653 556 546 644 406 644 c 0
 251 644 149 520 149 349 c 0
 149 167 265 54 422 54 c 0
 487 54 546 80 595 121 c 1
 679 121 l 1
 607 32 535 -26 414 -26 c 0
 198 -26 57 130 57 346 c 0
 57 558 205 723 408 723 c 0
 586 723 728 590 728 420 c 0
 728 340 720 282 677 222 c 0
 630 156 599 135 512 135 c 0xdf80
308 326 m 0
 308 276 334 233 380 233 c 0
 438 233 475 288 475 351 c 0
 475 403 446 440 400 440 c 0
 346 440 308 383 308 326 c 0
EndSplineSet
Fore
SplineSet
503 135 m 0xdf80
 471 135 442 153 442 195 c 1
 402 152 374 138 347 138 c 0xbf80
 265 138 195 215 195 310 c 0
 195 428 267 536 379 536 c 0
 420 536 452 523 492 472 c 1
 501 530 l 1
 581 530 l 1
 553 323 538 245 538 216 c 0
 538 199 543 199 554 199 c 0
 593 199 644 277 644 388 c 0
 644 556 546 644 406 644 c 0
 251 644 140 520 140 349 c 0
 140 167 265 54 422 54 c 0
 487 54 546 80 595 121 c 1
 679 121 l 1
 607 32 535 -26 414 -26 c 0
 198 -26 56 130 56 346 c 0
 56 558 205 723 408 723 c 0
 586 723 728 590 728 420 c 0
 728 340 720 282 677 222 c 0
 630 156 590 135 503 135 c 0xdf80
299 326 m 0
 299 276 325 233 371 233 c 0
 429 233 466 288 466 351 c 0
 466 403 437 440 391 440 c 0
 337 440 299 383 299 326 c 0
EndSplineSet
EndChar

StartChar: A
Encoding: 65 65 34
Width: 628
Flags: W
HStem: 0 21G<25 146.733 454.667 584> 150 100<210 392> 680 20G<212.486 396.514>
DStem2: 25 0 141 0 0.265797 0.964029<30.8324 186.866 290.18 644.597> 391 700 303 592 0.265797 -0.964029<80.725 434.079 537.924 693.16>
LayerCount: 2
Back
SplineSet
460 0 m 1
 418 152 l 1
 184 152 l 1
 141 0 l 1
 25 0 l 1
 230 700 l 1
 391 700 l 1
 590 0 l 1
 460 0 l 1
303 592 m 1
 210 248 l 1
 392 248 l 1
 303 592 l 1
EndSplineSet
Fore
SplineSet
460 0 m 1
 420 150 l 1
 184 150 l 1
 141 0 l 1
 25 0 l 1
 218 700 l 1
 391 700 l 1
 584 0 l 1
 460 0 l 1
303 592 m 1
 210 250 l 1
 392 250 l 1
 303 592 l 1
EndSplineSet
EndChar

StartChar: B
Encoding: 66 66 35
Width: 646
Flags: W
HStem: 0 100<201 429.219> 311 100<201 420.328> 600 100<201 425.011>
VStem: 83 118<100 311 411 600> 458 118<447.079 569.616> 472 118<139.477 271.142>
LayerCount: 2
Back
SplineSet
527 37 m 0xf4
 483 2 425 0 365 0 c 2
 83 0 l 1
 83 700 l 1
 365 700 l 2
 414 700 466 701 510 670 c 0
 558 637 582 589 582 526 c 0xf8
 582 454 535 389 457 366 c 1
 455 357 l 1
 544 337 601 265 601 179 c 0
 601 123 570 72 527 37 c 0xf4
415 595 m 0
 388 612 346 608 316 608 c 2
 202 608 l 1
 202 406 l 1
 328 406 l 2
 360 406 394 405 422 428 c 0
 446 448 458 480 458 512 c 0
 458 544 445 577 415 595 c 0
425 299 m 0
 400 316 365 316 337 316 c 2
 202 316 l 1
 202 97 l 1
 330 97 l 2
 363 97 400 97 429 117 c 0
 457 136 472 173 472 210 c 0xf4
 472 245 454 281 425 299 c 0
EndSplineSet
Fore
SplineSet
365 0 m 2xf4
 83 0 l 1
 83 700 l 1
 365 700 l 2
 525 700 576 621 576 526 c 0xf8
 576 454 535 389 457 366 c 1
 455 357 l 1
 544 337 590 265 590 179 c 0
 590 107 555 0 365 0 c 2xf4
316 600 m 2
 201 600 l 1
 201 411 l 1
 328 411 l 2
 423 411 458 451 458 511 c 0
 458 570 423 600 316 600 c 2
337 311 m 2
 201 311 l 1
 201 100 l 1
 330 100 l 2
 426 100 472 134 472 209 c 0xf4
 472 291 412 311 337 311 c 2
EndSplineSet
EndChar

StartChar: C
Encoding: 67 67 36
Width: 646
Flags: W
HStem: -5 100<268.436 404.472> 616 100<265.313 400.614>
VStem: 51 118<225.467 478.218> 478 117<174.826 227.479>
LayerCount: 2
Back
SplineSet
339 -3 m 0
 152 -3 51 161 51 357 c 0
 51 555 155 716 343 716 c 0
 495 716 573 627 595 471 c 1
 469 461 l 1
 464 538 432 615 339 615 c 0
 225 615 189 446 189 349 c 0
 189 238 232 97 346 97 c 0
 428 97 466 167 478 235 c 1
 595 227 l 1
 573 80 478 -3 339 -3 c 0
EndSplineSet
Fore
SplineSet
329 -5 m 0
 142 -5 51 161 51 357 c 0
 51 555 145 716 333 716 c 0
 485 716 573 627 595 471 c 1
 469 461 l 1
 464 538 422 616 329 616 c 0
 215 616 169 446 169 349 c 0
 169 238 222 95 336 95 c 0
 418 95 466 167 478 235 c 1
 595 227 l 1
 573 80 468 -5 329 -5 c 0
EndSplineSet
EndChar

StartChar: D
Encoding: 68 68 37
Width: 646
Flags: W
HStem: 0 100<173 361.863> 600 100<173 369.043>
VStem: 55 118<100 600> 475 118<226.181 483.571>
LayerCount: 2
Back
SplineSet
510 97 m 0
 449 22 351 0 259 0 c 2
 55 0 l 1
 55 700 l 1
 233 700 l 2
 330 700 429 692 497 621 c 0
 564 551 593 455 593 353 c 0
 593 258 567 166 510 97 c 0
415 536 m 0
 374 595 305 592 248 592 c 2
 176 592 l 1
 176 106 l 1
 247 106 l 2
 316 106 388 115 428 187 c 0
 457 239 469 299 469 357 c 0
 469 420 452 485 415 536 c 0
EndSplineSet
Fore
SplineSet
259 0 m 2
 55 0 l 1
 55 700 l 1
 233 700 l 2
 447 700 593 615 593 353 c 0
 593 105 453 0 259 0 c 2
248 600 m 2
 173 600 l 1
 173 100 l 1
 247 100 l 2
 355 100 475 136 475 358 c 0
 475 569 360 600 248 600 c 2
EndSplineSet
EndChar

StartChar: E
Encoding: 69 69 38
Width: 568
Flags: W
HStem: 0 100<198 523> 293 100<198 454> 600 100<198 523>
VStem: 80 118<100 293 393 600>
LayerCount: 2
Back
SplineSet
80 0 m 1
 80 700 l 1
 523 700 l 1
 523 599 l 1
 199 599 l 1
 199 392 l 1
 454 392 l 1
 454 294 l 1
 199 294 l 1
 199 93 l 1
 523 93 l 1
 523 0 l 1
 80 0 l 1
EndSplineSet
Fore
SplineSet
80 0 m 1
 80 700 l 1
 523 700 l 1
 523 600 l 1
 198 600 l 1
 198 393 l 1
 454 393 l 1
 454 293 l 1
 198 293 l 1
 198 100 l 1
 523 100 l 1
 523 0 l 1
 80 0 l 1
EndSplineSet
EndChar

StartChar: F
Encoding: 70 70 39
Width: 530
Flags: W
HStem: 0 21G<80 198> 293 100<198 454> 600 100<198 520>
VStem: 80 118<0 293 393 600>
LayerCount: 2
Back
SplineSet
198 595 m 1
 198 392 l 1
 454 392 l 1
 454 288 l 1
 198 288 l 1
 198 0 l 1
 78 0 l 1
 78 700 l 1
 520 700 l 1
 520 595 l 1
 198 595 l 1
EndSplineSet
Fore
SplineSet
198 600 m 1
 198 393 l 1
 454 393 l 1
 454 293 l 1
 198 293 l 1
 198 0 l 1
 80 0 l 1
 80 700 l 1
 520 700 l 1
 520 600 l 1
 198 600 l 1
EndSplineSet
EndChar

StartChar: G
Encoding: 71 71 40
Width: 646
Flags: W
HStem: -5 100<276.499 426.525> 261 100<356 481> 616 100<273.87 414.415>
VStem: 37 118<240.736 461.835> 481 118<0 55 156.062 261 495.938 550.836>
LayerCount: 2
Back
SplineSet
495 0 m 1xf4
 495 75 l 1xf4
 469 5 406 -6 334 -6 c 0
 152 -6 31 155 31 346 c 0
 31 541 135 711 349 711 c 0
 480 711 575 632 599 497 c 1
 487 480 l 1
 475 552 423 615 345 615 c 0
 213 615 155 445 155 342 c 0
 155 250 222 92 353 92 c 0
 434 92 481 149 481 261 c 1xf8
 356 261 l 1
 356 357 l 1
 595 357 l 1
 595 0 l 1
 495 0 l 1xf4
EndSplineSet
Fore
SplineSet
481 0 m 1
 481 55 l 1
 448 5 406 -5 334 -5 c 0
 152 -5 37 155 37 346 c 0
 37 541 135 716 349 716 c 0
 480 716 575 632 599 497 c 1
 487 480 l 1
 475 552 423 616 345 616 c 0
 213 616 155 445 155 342 c 0
 155 250 222 95 353 95 c 0
 434 95 481 149 481 261 c 1
 356 261 l 1
 356 361 l 1
 599 361 l 1
 599 0 l 1
 481 0 l 1
EndSplineSet
EndChar

StartChar: H
Encoding: 72 72 41
Width: 657
Flags: W
HStem: 0 21G<60 178 487 605> 305 100<178 487> 680 20G<60 178 487 605>
VStem: 60 118<0 305 405 700> 487 118<0 305 405 700>
LayerCount: 2
Back
SplineSet
480 0 m 1
 480 305 l 1
 181 305 l 5
 181 0 l 5
 60 0 l 1
 60 700 l 1
 181 700 l 5
 181 412 l 5
 480 412 l 1
 480 700 l 1
 605 700 l 1
 605 0 l 1
 480 0 l 1
EndSplineSet
Fore
SplineSet
487 0 m 1
 487 305 l 1
 178 305 l 1
 178 0 l 1
 60 0 l 1
 60 700 l 1
 178 700 l 1
 178 405 l 1
 487 405 l 1
 487 700 l 1
 605 700 l 1
 605 0 l 1
 487 0 l 1
EndSplineSet
EndChar

StartChar: I
Encoding: 73 73 42
Width: 294
Flags: W
HStem: 0 21G<84 202> 680 20G<84 202>
VStem: 84 118<0 700>
LayerCount: 2
Back
SplineSet
83 0 m 1
 83 700 l 1
 202 700 l 1
 202 0 l 1
 83 0 l 1
EndSplineSet
Fore
SplineSet
84 0 m 1
 84 700 l 1
 202 700 l 1
 202 0 l 1
 84 0 l 1
EndSplineSet
EndChar

StartChar: J
Encoding: 74 74 43
Width: 482
Flags: W
HStem: -5 100<177.466 288.655> 680 20G<327 445>
VStem: 29 118<128.567 274> 327 118<136.706 700>
LayerCount: 2
Back
SplineSet
445 210 m 2
 445 124 387 -3 237 -3 c 0
 82 -3 29 110 29 187 c 2
 29 274 l 1
 146 274 l 1
 146 190 l 2
 146 136 187 106 230 106 c 0
 287 106 326 150 326 231 c 2
 326 700 l 1
 445 700 l 1
 445 210 l 2
EndSplineSet
Fore
SplineSet
445 210 m 2
 445 124 387 -5 237 -5 c 0
 82 -5 29 110 29 187 c 2
 29 274 l 1
 147 274 l 1
 147 187 l 2
 147 133 188 95 231 95 c 0
 288 95 327 141 327 222 c 2
 327 700 l 1
 445 700 l 1
 445 210 l 2
EndSplineSet
EndChar

StartChar: K
Encoding: 75 75 44
Width: 628
Flags: W
HStem: 0 21G<80 198 449.534 593> 680 20G<80 198 421.676 561>
VStem: 80 118<0 130 317 700>
DStem2: 198 317 320 326 0.537163 0.843479<0 73.1252 213.791 449.823> 406 438 320 326 0.392652 -0.919687<69.2369 423.241>
LayerCount: 2
Back
SplineSet
458 0 m 1
 320 326 l 1
 198 130 l 1
 198 0 l 1
 83 0 l 5
 83 700 l 5
 198 700 l 1
 198 317 l 1
 434 700 l 1
 434 700 541 700 561 700 c 1
 406 438 l 1
 593 0 l 1
 458 0 l 1
EndSplineSet
Fore
SplineSet
458 0 m 1
 320 326 l 1
 198 130 l 1
 198 0 l 1
 80 0 l 1
 80 700 l 1
 198 700 l 1
 198 317 l 1
 434 700 l 1
 561 700 l 1
 406 438 l 1
 593 0 l 1
 458 0 l 1
EndSplineSet
EndChar

StartChar: L
Encoding: 76 76 45
Width: 490
Flags: W
HStem: 0 100<193 466> 680 20G<75 193>
VStem: 75 118<100 700>
LayerCount: 2
Back
SplineSet
75 0 m 1
 75 700 l 1
 196 700 l 5
 196 107 l 5
 466 107 l 1
 466 0 l 1
 75 0 l 1
EndSplineSet
Fore
SplineSet
75 0 m 1
 75 700 l 1
 193 700 l 1
 193 100 l 1
 466 100 l 1
 466 0 l 1
 75 0 l 1
EndSplineSet
EndChar

StartChar: M
Encoding: 77 77 46
Width: 862
Flags: W
HStem: 0 21G<80 198 380.533 470.567 659 777> 600 100<198 222 632 659>
VStem: 80 118<0 600> 659 118<0 600>
DStem2: 294 700 222 600 0.263662 -0.964615<77.4779 512.288> 426 205 465 0 0.268141 0.96338<0 435.772>
LayerCount: 2
Back
SplineSet
658 0 m 1
 658 603 l 1
 621 603 l 1
 454 0 l 1
 374 0 l 1
 210 603 l 1
 176 603 l 1
 176 0 l 1
 80 0 l 1
 80 700 l 1
 294 700 l 1
 426 205 l 1
 563 700 l 1
 777 700 l 1
 777 0 l 1
 658 0 l 1
EndSplineSet
Fore
SplineSet
659 0 m 1
 659 600 l 1
 632 600 l 1
 465 0 l 1
 386 0 l 1
 222 600 l 1
 198 600 l 1
 198 0 l 1
 80 0 l 1
 80 700 l 1
 294 700 l 1
 426 205 l 1
 563 700 l 1
 777 700 l 1
 777 0 l 1
 659 0 l 1
EndSplineSet
EndChar

StartChar: N
Encoding: 78 78 47
Width: 646
Flags: W
HStem: 0 21G<80 198 445.21 561> 680 20G<80 228.593 443 561>
VStem: 80 118<0 525> 443 118<233 700>
DStem2: 219 700 198 525 0.43967 -0.898159<147.945 517.927>
LayerCount: 2
Back
SplineSet
455 0 m 1
 198 525 l 1
 164 525 l 1
 164 0 l 1
 80 0 l 1
 80 700 l 1
 219 700 l 1
 445 233 l 1
 475 233 l 1
 475 700 l 1
 561 700 l 1
 561 0 l 1
 455 0 l 1
EndSplineSet
Fore
SplineSet
455 0 m 1
 198 525 l 1
 198 0 l 1
 80 0 l 1
 80 700 l 1
 219 700 l 1
 443 233 l 1
 443 700 l 1
 561 700 l 1
 561 0 l 1
 455 0 l 1
EndSplineSet
EndChar

StartChar: O
Encoding: 79 79 48
Width: 646
Flags: W
HStem: -5 100<250.597 385.403> 616 100<248.599 387.401>
VStem: 38 118<226.494 498.39> 480 118<226.494 498.39>
LayerCount: 2
Back
SplineSet
320 -3 m 0
 122 -3 32 175 32 365 c 0
 32 536 125 716 329 716 c 0
 550 716 599 526 599 359 c 0
 599 175 515 -3 320 -3 c 0
325 616 m 0
 210 616 161 470 161 357 c 0
 161 254 204 101 326 101 c 0
 438 101 480 236 480 357 c 0
 480 479 451 616 325 616 c 0
EndSplineSet
Fore
SplineSet
318 -5 m 0
 120 -5 38 175 38 365 c 0
 38 536 120 716 318 716 c 0
 516 716 598 536 598 365 c 0
 598 175 516 -5 318 -5 c 0
318 616 m 0
 203 616 156 485 156 365 c 0
 156 243 203 95 318 95 c 0
 433 95 480 243 480 365 c 0
 480 485 433 616 318 616 c 0
EndSplineSet
EndChar

StartChar: P
Encoding: 80 80 49
Width: 625
Flags: W
HStem: 0 21G<63 181> 272 100<181 397.38> 600 100<181 394.293>
VStem: 63 118<0 272 372 600> 448 118<420.26 554.219>
LayerCount: 2
Back
SplineSet
570 494 m 0
 570 384 515 293 423 280 c 0
 392 273 359 275 325 275 c 2
 182 275 l 1
 182 0 l 1
 63 0 l 1
 63 700 l 1
 320 700 l 2
 380 700 438 699 490 661 c 0
 543 621 570 563 570 494 c 0
408 580 m 0
 379 604 345 604 311 604 c 2
 182 604 l 1
 182 368 l 1
 313 368 l 2
 324 368 384 362 420 407 c 0
 440 430 448 459 448 486 c 0
 448 520 435 557 408 580 c 0
EndSplineSet
Fore
SplineSet
566 493 m 0
 566 338 498 272 325 272 c 2
 181 272 l 1
 181 0 l 1
 63 0 l 1
 63 700 l 1
 320 700 l 2
 516 700 566 593 566 493 c 0
311 600 m 2
 181 600 l 1
 181 372 l 1
 313 372 l 2
 390 372 448 412 448 486 c 0
 448 560 396 600 311 600 c 2
EndSplineSet
EndChar

StartChar: Q
Encoding: 81 81 50
Width: 646
Flags: W
HStem: -153 100<473.439 573> -5 100<250.597 383.971> 616 100<248.599 387.401>
VStem: 38 118<226.494 498.39> 480 118<226.686 498.39>
LayerCount: 2
Back
SplineSet
304 -9 m 0
 150 -9 46 161 46 353 c 0
 46 544 141 711 326 711 c 0
 543 711 604 519 604 353 c 0
 604 221 555 94 455 28 c 1
 455 -40 487 -60 526 -60 c 2
 573 -57 l 1
 573 -150 l 1
 561 -152 547 -153 536 -153 c 0
 443 -153 400 -124 386 -2 c 1
 386 -2 324 -9 304 -9 c 0
326 612 m 0
 200 612 175 480 175 353 c 0
 175 250 210 95 333 95 c 0
 461 95 477 248 477 353 c 0
 477 446 450 612 326 612 c 0
EndSplineSet
Fore
SplineSet
318 616 m 0
 203 616 156 485 156 365 c 0
 156 243 203 95 318 95 c 0
 433 95 480 243 480 365 c 0
 480 485 433 616 318 616 c 0
536 -153 m 0
 462 -153 396 -137 385 5 c 1
 364 0 342 -5 318 -5 c 0
 120 -5 38 175 38 365 c 0
 38 536 120 716 318 716 c 0
 516 716 598 536 598 365 c 0
 598 227 555 95 455 33 c 1
 455 -13 469 -53 526 -53 c 1
 573 -50 l 1
 573 -150 l 1
 561 -152 547 -153 536 -153 c 0
EndSplineSet
EndChar

StartChar: R
Encoding: 82 82 51
Width: 659
Flags: W
HStem: 0 21G<54 172 492.5 630> 291 100<172 449.454> 600 100<172 452.393>
VStem: 54 118<0 291 391 600> 476 118<52.1816 264.316> 487 118<414.812 567.249> 504 126<0 61.5627>
LayerCount: 2
Back
SplineSet
374 700 m 2xf8
 499 700 605 664 605 488 c 0xf4
 605 415 577 393 518 345 c 1
 584 299 594 245 594 195 c 2
 594 130 l 2
 594 95 598 63 630 37 c 1
 630 0 l 1
 506 0 l 1
 483 59 478 80 478 134 c 2
 478 177 l 2
 478 238 468 283 380 283 c 2
 170 283 l 1
 170 0 l 1
 54 0 l 1
 54 700 l 1
 374 700 l 2xf8
398 397 m 2
 447 397 486 406 486 498 c 0
 486 583 427 584 376 584 c 2
 170 584 l 1
 170 397 l 1
 398 397 l 2
EndSplineSet
Fore
SplineSet
374 700 m 2xf8
 499 700 605 664 605 488 c 0xf4
 605 415 577 393 518 345 c 1
 584 299 594 245 594 195 c 2
 594 130 l 2xf8
 594 95 598 63 630 37 c 1
 630 0 l 1
 504 0 l 1xf2
 481 59 476 80 476 134 c 2
 476 177 l 2
 476 238 466 291 378 291 c 2
 172 291 l 1
 172 0 l 1
 54 0 l 1
 54 700 l 1
 374 700 l 2xf8
398 391 m 2
 447 391 487 406 487 498 c 0
 487 583 427 600 376 600 c 2
 172 600 l 1
 172 391 l 1
 398 391 l 2
EndSplineSet
EndChar

StartChar: S
Encoding: 83 83 52
Width: 588
Flags: W
HStem: -5 100<205.892 355.376> 616 100<204.567 349.798>
VStem: 54 118<462.706 584.415> 406 118<138.655 252.927>
LayerCount: 2
Back
SplineSet
54 501 m 0
 54 627 136 713 279 713 c 0
 386 713 471 676 510 572 c 1
 403 535 l 1
 385 579 363 607 288 607 c 0
 236 607 185 588 185 526 c 0
 185 470 204 453 287 435 c 0
 331 425 535 392 535 219 c 0
 535 56 412 -6 274 -6 c 0
 159 -6 60 44 26 162 c 1
 26 162 139 198 147 198 c 1
 172 123 219 104 288 104 c 0
 320 104 406 122 406 189 c 0
 406 270 334 281 279 293 c 0
 158 320 54 357 54 501 c 0
EndSplineSet
Fore
SplineSet
54 502 m 0
 54 628 136 716 279 716 c 0
 386 716 471 677 510 573 c 1
 391 533 l 1
 373 577 350 616 275 616 c 0
 223 616 172 589 172 524 c 0
 172 471 193 442 276 424 c 0
 320 414 524 393 524 220 c 0
 524 57 412 -5 274 -5 c 0
 159 -5 60 45 26 163 c 1
 26 163 139 199 147 199 c 1
 172 124 219 95 288 95 c 0
 320 95 406 123 406 191 c 0
 406 271 334 294 279 306 c 0
 158 333 54 358 54 502 c 0
EndSplineSet
EndChar

StartChar: T
Encoding: 84 84 53
Width: 530
Flags: W
HStem: 0 21G<203 321> 600 100<31 203 321 490>
VStem: 203 118<0 600>
LayerCount: 2
Back
SplineSet
322 593 m 1
 322 0 l 1
 202 0 l 1
 202 593 l 1
 31 593 l 1
 31 700 l 1
 490 700 l 1
 490 593 l 1
 322 593 l 1
EndSplineSet
Fore
SplineSet
321 600 m 1
 321 0 l 1
 203 0 l 1
 203 600 l 1
 31 600 l 1
 31 700 l 1
 490 700 l 1
 490 600 l 1
 321 600 l 1
EndSplineSet
EndChar

StartChar: U
Encoding: 85 85 54
Width: 646
Flags: W
HStem: -5 100<236.532 417.725> 680 20G<69 187 468 586>
VStem: 69 118<146.258 700> 468 118<148.593 700>
LayerCount: 2
Back
SplineSet
326 -6 m 0
 159.91 -6 69 60.0596 69 232 c 2
 69 700 l 1
 204 700 l 1
 204 244 l 2
 204 126 254 98 337 98 c 0
 420 98 460 126 460 244 c 2
 460 700 l 1
 586 700 l 1
 586 232 l 2
 586 82 481.18 -6 326 -6 c 0
EndSplineSet
Fore
SplineSet
327 -5 m 0
 167 -5 69 60 69 232 c 2
 69 700 l 1
 187 700 l 1
 187 240 l 2
 187 122 244 95 327 95 c 0
 410 95 468 122 468 240 c 2
 468 700 l 1
 586 700 l 1
 586 232 l 2
 586 82 487 -5 327 -5 c 0
EndSplineSet
EndChar

StartChar: V
Encoding: 86 86 55
Width: 588
Flags: W
HStem: 0 21G<216.743 379.257> 680 20G<38 160.948 435.052 558>
DStem2: 156 700 38 700 0.254221 -0.967146<0 591.241> 298 126 374 0 0.254221 0.967146<0 591.241>
LayerCount: 2
Back
SplineSet
374 0 m 1
 222 0 l 1
 31 700 l 1
 161 700 l 1
 303 126 l 1
 445 700 l 1
 558 700 l 1
 374 0 l 1
EndSplineSet
Fore
SplineSet
374 0 m 1
 222 0 l 1
 38 700 l 1
 156 700 l 1
 298 126 l 1
 440 700 l 1
 558 700 l 1
 374 0 l 1
EndSplineSet
EndChar

StartChar: W
Encoding: 87 87 56
Width: 882
Flags: W
HStem: 0 21G<185.314 329.471 556.529 700.686> 680 20G<26 148.418 378.301 507.699 737.582 860>
DStem2: 144 700 26 700 0.228109 -0.973636<0 509.963> 266 202 325 0 0.218168 0.975911<0 329.104> 503 700 449 501 0.218168 -0.975911<182.425 511.529> 632 202 696 0 0.228109 0.973636<0 509.963>
LayerCount: 2
Back
SplineSet
691 0 m 1
 561 0 l 1
 449 501 l 1
 437 501 l 1
 316 0 l 1
 190 0 l 1
 26 700 l 1
 149 700 l 1
 253 202 l 1
 253 202 259 201 268 201 c 1
 383 700 l 1
 503 700 l 1
 619 208 l 1
 632 202 l 1
 745 700 l 1
 852 700 l 1
 691 0 l 1
EndSplineSet
Fore
SplineSet
696 0 m 1
 561 0 l 1
 449 501 l 1
 437 501 l 1
 325 0 l 1
 190 0 l 1
 26 700 l 1
 144 700 l 1
 254 202 l 1
 266 202 l 1
 383 700 l 1
 503 700 l 1
 620 202 l 1
 632 202 l 1
 742 700 l 1
 860 700 l 1
 696 0 l 1
EndSplineSet
EndChar

StartChar: X
Encoding: 88 88 57
Width: 628
Flags: W
HStem: 0 21G<46 181.129 429.355 579> 680 20G<66 215.711 423.91 559>
DStem2: 46 0 170 0 0.485749 0.874098<60.2329 344.043 559.558 800.825> 205 700 66 700 0.471242 -0.882004<0 239.353 447.204 728.145>
LayerCount: 2
Back
SplineSet
66 700 m 5
 205 700 l 5
 579 0 l 5
 440 0 l 5
 66 700 l 5
559 700 m 5
 170 0 l 5
 46 0 l 5
 435 700 l 5
 559 700 l 5
440 0 m 1xc4
 308 268 l 1
 170 0 l 1
 41 0 l 1xe4
 245 363 l 1
 66 700 l 1
 205 700 l 1
 319 471 l 1
 435 700 l 1
 559 700 l 1xd8
 388 372 l 1
 579 0 l 1
 440 0 l 1xc4
EndSplineSet
Fore
SplineSet
66 700 m 1
 205 700 l 1
 318 489 l 1
 435 700 l 1
 559 700 l 1
 379 375 l 1
 579 0 l 1
 440 0 l 1
 308 248 l 1
 170 0 l 1
 46 0 l 1
 247 361 l 1
 66 700 l 1
EndSplineSet
EndChar

StartChar: Y
Encoding: 89 89 58
Width: 588
Flags: W
HStem: 0 21G<236 354> 680 20G<35 185.149 427.638 556>
VStem: 236 118<0 282>
DStem2: 176 700 35 700 0.444558 -0.89575<0 309.949> 305 418 354 282 0.43511 0.900377<0 311.341>
LayerCount: 2
Back
SplineSet
354 282 m 1
 354 0 l 1
 235 0 l 1
 235 297 l 1
 35 700 l 1
 176 700 l 1
 305 418 l 1
 437 700 l 1
 556 700 l 1
 354 282 l 1
EndSplineSet
Fore
SplineSet
354 282 m 1
 354 0 l 1
 236 0 l 1
 236 295 l 1
 35 700 l 1
 176 700 l 1
 305 418 l 1
 437 700 l 1
 556 700 l 1
 354 282 l 1
EndSplineSet
EndChar

StartChar: Z
Encoding: 90 90 59
Width: 646
Flags: W
HStem: 0 100<220 593> 600 100<110 446>
DStem2: 86 100 220 100 0.586437 0.809995<78.5825 616.115>
LayerCount: 2
Back
SplineSet
86 0 m 1
 86 100 l 1
 446 600 l 1
 110 600 l 1
 110 700 l 1
 582 700 l 1
 582 600 l 1
 222 102 l 1
 593 102 l 1
 593 0 l 1
 86 0 l 1
EndSplineSet
Fore
SplineSet
86 0 m 1
 86 100 l 1
 446 600 l 1
 110 600 l 1
 110 700 l 1
 582 700 l 1
 582 600 l 1
 220 100 l 1
 593 100 l 1
 593 0 l 1
 86 0 l 1
EndSplineSet
EndChar

StartChar: bracketleft
Encoding: 91 91 60
Width: 387
Flags: W
HStem: -190 86<205 289> 614 86<205 289>
VStem: 98 191<-190 -104 614 700> 98 107<-104 614>
LayerCount: 2
Back
SplineSet
98 -190 m 5xe0
 98 700 l 5
 274 700 l 5
 274 639 l 5xe0
 176 639 l 5
 176 -130 l 5xd0
 274 -130 l 5
 274 -190 l 5
 98 -190 l 5xe0
EndSplineSet
Fore
SplineSet
98 -190 m 1xe0
 98 700 l 1
 289 700 l 1
 289 614 l 1xe0
 205 614 l 1
 205 -104 l 1xd0
 289 -104 l 1
 289 -190 l 1
 98 -190 l 1xe0
EndSplineSet
EndChar

StartChar: backslash
Encoding: 92 92 61
Width: 415
Flags: W
HStem: 0 21G<242.057 360> 680 20G<40 157.943>
VStem: 40 320
DStem2: 152 700 40 700 0.284834 -0.958577<0 698.348>
LayerCount: 2
Back
SplineSet
248 0 m 1
 40 700 l 1
 139 700 l 1
 360 0 l 1
 248 0 l 1
EndSplineSet
Fore
SplineSet
248 0 m 1
 40 700 l 1
 152 700 l 1
 360 0 l 1
 248 0 l 1
EndSplineSet
EndChar

StartChar: bracketright
Encoding: 93 93 62
Width: 387
Flags: W
HStem: -201 86<98 182> 614 86<98 182>
VStem: 98 191<-201 -115 614 700> 182 107<-115 614>
LayerCount: 2
Back
SplineSet
98 -201 m 1xe0
 98 -133 l 1xe0
 196 -133 l 1
 196 633 l 1xd0
 98 633 l 1
 98 700 l 1
 274 700 l 5
 274 -201 l 5
 98 -201 l 1xe0
EndSplineSet
Fore
SplineSet
98 -201 m 1xe0
 98 -115 l 1xe0
 182 -115 l 1
 182 614 l 1xd0
 98 614 l 1
 98 700 l 1
 289 700 l 1
 289 -201 l 1
 98 -201 l 1xe0
EndSplineSet
EndChar

StartChar: asciicircum
Encoding: 94 94 63
Width: 588
Flags: W
HStem: 696 20G<219.086 366.053>
DStem2: 77 285 184 285 0.326734 0.945116<34.9605 360.725> 359 716 293 592 0.332591 -0.943071<94.9898 421.43>
LayerCount: 2
Back
SplineSet
422 285 m 1
 293 642 l 1
 166 285 l 1
 95 285 l 1
 244 704 l 1
 340 704 l 1
 492 285 l 1
 422 285 l 1
EndSplineSet
Fore
SplineSet
293 592 m 1
 184 285 l 1
 77 285 l 1
 226 716 l 1
 359 716 l 1
 511 285 l 1
 404 285 l 1
 293 592 l 1
EndSplineSet
EndChar

StartChar: underscore
Encoding: 95 95 64
Width: 556
VWidth: 2048
Flags: W
HStem: -199 64<-15 569>
LayerCount: 2
Fore
SplineSet
-15 -199 m 1
 -15 -135 l 1
 569 -135 l 1
 569 -199 l 1
 -15 -199 l 1
EndSplineSet
EndChar

StartChar: grave
Encoding: 96 96 65
Width: 372
Flags: W
HStem: 592 206
VStem: 64 246
LayerCount: 2
Back
SplineSet
274 619 m 1
 87 691 l 1
 104 768 l 1
 287 671 l 1
 274 619 l 1
EndSplineSet
Fore
SplineSet
288 592 m 1
 64 679 l 1
 90 798 l 1
 310 681 l 1
 288 592 l 1
EndSplineSet
EndChar

StartChar: a
Encoding: 97 97 66
Width: 536
Flags: W
HStem: -5 86<175.509 312.39 477.408 523> 238 86<221.144 357> 440 86<194.473 331.547>
VStem: 48 107<101.615 191.678> 66 98<368 408.955> 357 107<128.352 238 321.166 414.559>
LayerCount: 2
Back
SplineSet
48 130 m 0xba
 48 315 280 311 357 319 c 1
 357 340 l 2
 357 371 357 395 339 420 c 0
 322 445 291 452 267 452 c 0
 221 452 175 434 164 380 c 1
 66 380 l 1
 81 487 172 526 282 526 c 0
 359 526 392 510 428 478 c 0
 461 449 464 412 464 369 c 2
 464 124 l 2
 464 63 520 61 523 61 c 1
 523 0 l 1
 505 0 l 2x76
 478 0 428 3 411 26 c 0
 389 54 385 69 385 69 c 1
 350 1 286 -5 227 -5 c 2
 187 -5 l 2
 104 -5 48 40 48 130 c 0xba
357 250 m 1
 274 241 164 236 164 147 c 0
 164 92 192 69 244 69 c 0xba
 281 69 316 92 336 126 c 0
 357 164 357 182 357 225 c 2
 357 250 l 1
EndSplineSet
Fore
SplineSet
48 130 m 0xf4
 48 315 280 311 357 324 c 1
 357 345 l 2
 357 408 330 440 267 440 c 0
 221 440 175 422 164 368 c 1
 66 368 l 1xec
 81 487 172 526 282 526 c 0
 423 526 464 463 464 369 c 2
 464 144 l 2
 464 83 520 81 523 81 c 1
 523 -5 l 1
 505 -5 l 2
 424 -5 405 23 385 69 c 1
 350 1 286 -5 227 -5 c 2
 187 -5 l 2
 104 -5 48 40 48 130 c 0xf4
357 238 m 1
 274 229 155 224 155 147 c 0xf4
 155 104 192 81 244 81 c 0
 304 81 357 120 357 213 c 2
 357 238 l 1
EndSplineSet
EndChar

StartChar: b
Encoding: 98 98 67
Width: 541
Flags: W
HStem: -5 86<204.066 329.299> 440 86<209.947 331.119> 680 20G<63 170>
VStem: 63 107<0 39 118.051 395.463 466 700> 399 107<164.418 356.914>
LayerCount: 2
Back
SplineSet
310 -3 m 0xf4
 245 -3 182 6 162 49 c 1
 162 0 l 1
 63 0 l 1xec
 63 700 l 1
 170 700 l 1
 170 468 l 1
 176 466 l 1
 198 515 252 525 303 525 c 0
 452 525 512 392 512 256 c 0
 512 113 443 -3 310 -3 c 0xf4
271 435 m 0
 190 435 172 359 172 290 c 2
 172 212 l 2
 172 125 197.56 66 268 66 c 0
 360 66 399 187 399 256 c 0
 399 325 362 435 271 435 c 0
EndSplineSet
Fore
SplineSet
310 -5 m 0
 245 -5 190 6 170 39 c 1
 170 0 l 1
 63 0 l 1
 63 700 l 1
 170 700 l 1
 170 468 l 1
 170 466 l 1
 192 515 252 526 303 526 c 0
 452 526 506 392 506 256 c 0
 506 113 443 -5 310 -5 c 0
271 440 m 0
 190 440 170 363 170 294 c 2
 170 216 l 2
 170 129 197.56 81 268 81 c 0
 360 81 399 191 399 260 c 0
 399 329 362 440 271 440 c 0
EndSplineSet
EndChar

StartChar: c
Encoding: 99 99 68
Width: 530
Flags: W
HStem: -5 86<216.611 336.081> 440 86<213.568 344.313>
VStem: 46 107<155.904 369.299> 383 104<129.285 178 349 399.664>
LayerCount: 2
Back
SplineSet
279 -4 m 0
 136.5 -4 46 102 46 254 c 0
 46 413 143 526 287 526 c 0
 408 526 468 453 484 349 c 1
 382 349 l 1
 376 396 349 437 291 437 c 0
 199 437 173 350 173 269 c 0
 173 191 192 86 287 86 c 0
 343 86 374 131 383 180 c 1
 487 178 l 1
 469 68 408 -4 279 -4 c 0
EndSplineSet
Fore
SplineSet
269 -5 m 0
 127 -5 46 102 46 254 c 0
 46 413 133 526 277 526 c 0
 398 526 468 453 484 349 c 1
 382 349 l 1
 376 396 339 440 281 440 c 0
 189 440 153 350 153 269 c 0
 153 191 182 81 277 81 c 0
 333 81 374 131 383 180 c 1
 487 178 l 1
 469 68 398 -5 269 -5 c 0
EndSplineSet
EndChar

StartChar: d
Encoding: 100 100 69
Width: 530
Flags: W
HStem: -5 86<219.89 330.386> 440 86<221.561 330.893> 680 20G<377 484>
VStem: 48 107<163.319 360.45> 377 107<0 46 134.291 382.266 461 700>
LayerCount: 2
Back
SplineSet
383 0 m 1
 383 48 l 1
 374 46 l 1
 353 -1 323 -6 230 -6 c 0
 114 -6 48 115 48 251 c 0
 48 383 109 525 233 525 c 0
 306 525 336 516 377 461 c 1
 377 704 l 1
 484 704 l 1
 484 0 l 1
 383 0 l 1
284 72 m 0
 367 72 377 184 377 213 c 2
 377 284 l 2
 377 290 368 422 291 422 c 0
 198 422 162 320 162 247 c 0
 162 178 202 72 284 72 c 0
EndSplineSet
Fore
SplineSet
377 0 m 1
 377 46 l 1
 348 0 309 -5 230 -5 c 0
 114 -5 48 115 48 251 c 0
 48 383 109 526 233 526 c 0
 306 526 336 516 377 461 c 1
 377 700 l 1
 484 700 l 1
 484 0 l 1
 377 0 l 1
277 81 m 0
 360 81 377 192 377 221 c 2
 377 301 l 2
 377 307 361 440 284 440 c 0
 191 440 155 332 155 259 c 0
 155 190 195 81 277 81 c 0
EndSplineSet
EndChar

StartChar: e
Encoding: 101 101 70
Width: 530
Flags: W
HStem: -5 86<209.707 342.315> 249 86<166 371> 440 86<200.762 338.015>
VStem: 374 103<112.281 157>
LayerCount: 2
Back
SplineSet
159 259 m 1
 161 214 l 2
 164 139 204 84 279 84 c 0
 325 84 363 106 374 159 c 1
 477 159 l 1
 461 113 425 -3 271 -3 c 4
 132 -3 43 114 43 268 c 0
 43 421 113 526 256 526 c 0
 362 526 423 489 449 434 c 0
 478 368 478 324 478 259 c 1
 159 259 l 1
276 440 m 0
 222 440 173 426 166 337 c 1
 376 337 l 1
 371 418 333 440 276 440 c 0
EndSplineSet
Fore
SplineSet
159 249 m 1
 161 212 l 2
 165 137 204 81 279 81 c 0
 325 81 363 104 374 157 c 1
 477 157 l 1
 461 111 425 -5 271 -5 c 0
 132 -5 43 114 43 268 c 0
 43 421 113 526 256 526 c 0
 476 526 478 369 478 249 c 1
 159 249 l 1
276 440 m 0
 222 440 173 424 166 335 c 1
 371 335 l 1
 366 416 328 440 276 440 c 0
EndSplineSet
EndChar

StartChar: f
Encoding: 102 102 71
Width: 294
Flags: W
HStem: 0 21G<86 193> 435 86<28 86 193 282> 628 86<208.166 294>
VStem: 86 107<0 435 521 614.564>
LayerCount: 2
Back
SplineSet
255 628 m 0
 197 628 193 586 193 529 c 2
 193 498 l 1
 282 498 l 1
 282 415 l 1
 193 415 l 1
 193 0 l 1
 86 0 l 1
 86 415 l 1
 28 415 l 1
 28 498 l 1
 86 498 l 1
 86 513 86 543 86 543 c 2
 86 586 88 625 106 651 c 4
 132 695 182 714 231 714 c 0
 242 714 294 710 294 710 c 1
 294 627 l 1
 294 627 265 628 255 628 c 0
EndSplineSet
Fore
SplineSet
255 628 m 0
 197 628 193 586 193 552 c 2
 193 521 l 1
 282 521 l 1
 282 435 l 1
 193 435 l 1
 193 0 l 1
 86 0 l 1
 86 435 l 1
 28 435 l 1
 28 521 l 1
 86 521 l 1
 86 566 l 2
 86 660 129 714 231 714 c 0
 242 714 294 710 294 710 c 1
 294 627 l 1
 294 627 265 628 255 628 c 0
EndSplineSet
EndChar

StartChar: g
Encoding: 103 103 72
Width: 525
Flags: W
HStem: -231 86<168.78 319.627> -5 86<184.826 314.383> 440 86<184.696 305.379>
VStem: 20 107<-102.589 -50 148.744 371.737> 362 107<-94.4903 49 135.625 370.351 460 521>
LayerCount: 2
Back
SplineSet
376 460 m 1xf4
 376 524 l 1
 469 524 l 1
 469 103 l 2
 469 -76 449 -231 246 -231 c 0
 142 -231 37 -177 34 -55 c 1
 132 -55 l 1xec
 134 -122 188 -150 256 -150 c 0
 331 -150 376 -96 376 -31 c 2
 376 49 l 1
 339 19 296 -2 234 -2 c 0
 91 -2 20 118 20 248 c 0
 20 398 102 523 232 523 c 0
 285 523 335 507 376 460 c 1xf4
246 431 m 0
 156 431 116 339 116 252 c 0xf4
 116 151 169 81 251 81 c 0
 341 81 374 165 374 250 c 0
 374 348 325 431 246 431 c 0
EndSplineSet
Fore
SplineSet
362 460 m 1
 362 521 l 1
 469 521 l 1
 469 103 l 2
 469 -76 449 -231 242 -231 c 0
 138 -231 28 -172 25 -50 c 1
 132 -50 l 1
 134 -117 182 -145 250 -145 c 0
 325 -145 362 -96 362 -31 c 2
 362 49 l 1
 325 19 296 -5 234 -5 c 0
 91 -5 20 118 20 248 c 0
 20 398 102 526 232 526 c 0
 285 526 321 507 362 460 c 1
246 440 m 0
 156 440 127 343 127 256 c 0
 127 155 169 81 251 81 c 0
 341 81 362 169 362 254 c 0
 362 352 325 440 246 440 c 0
EndSplineSet
EndChar

StartChar: h
Encoding: 104 104 73
Width: 530
Flags: W
HStem: 0 21G<64 171 365 472> 440 86<243.714 351.755> 680 20G<64 171>
VStem: 64 107<0 369.212 442 700> 365 107<0 427.989>
LayerCount: 2
Back
SplineSet
365 0 m 1
 365 313 l 2
 365 381.01 361 418 308 418 c 0
 261 418 204 383 189 347 c 0
 173 314 172 275 172 243 c 2
 172 0 l 1
 64 0 l 1
 64 700 l 1
 172 700 l 1
 172 442 l 1
 175 438 l 1
 201 505 293 525 346 525 c 4
 439 525 472 450 472 361 c 2
 472 0 l 1
 365 0 l 1
EndSplineSet
Fore
SplineSet
365 0 m 1
 365 335 l 2
 365 403 361 440 308 440 c 0
 228 440 171 384 171 265 c 2
 171 0 l 1
 64 0 l 1
 64 700 l 1
 171 700 l 1
 171 442 l 1
 174 438 l 1
 200 505 293 526 346 526 c 0
 439 526 472 450 472 361 c 2
 472 0 l 1
 365 0 l 1
EndSplineSet
EndChar

StartChar: i
Encoding: 105 105 74
Width: 254
Flags: W
HStem: 0 21G<72 179> 501 20G<72 179> 595 105<72 179>
VStem: 72 107<0 521 595 700>
LayerCount: 2
Fore
SplineSet
72 595 m 1
 72 700 l 1
 179 700 l 1
 179 595 l 1
 72 595 l 1
72 0 m 1
 72 521 l 1
 179 521 l 1
 179 0 l 1
 72 0 l 1
EndSplineSet
EndChar

StartChar: j
Encoding: 106 106 75
Width: 254
Flags: W
HStem: -207 86<-23 54.1435> 501 20G<72 179> 595 105<72 179>
VStem: 72 107<-103.799 521 595 700>
LayerCount: 2
Back
SplineSet
72 594 m 1
 72 700 l 1
 179 700 l 1
 179 594 l 1
 72 594 l 1
-6 -207 m 0
 -12 -207 -23 -205 -23 -205 c 1
 -23 -118 l 1
 -23 -118 -5 -120 4 -120 c 0
 78 -120 72 -56 72 8 c 2
 72 525 l 1
 179 525 l 1
 179 8 l 2
 179 -165 156 -207 -6 -207 c 0
EndSplineSet
Fore
SplineSet
72 595 m 1
 72 700 l 1
 179 700 l 1
 179 595 l 1
 72 595 l 1
-6 -207 m 0
 -12 -207 -23 -205 -23 -205 c 1
 -23 -119 l 1
 -23 -119 -5 -121 4 -121 c 0
 52 -121 72 -100 72 8 c 2
 72 521 l 1
 179 521 l 1
 179 8 l 2
 179 -165 156 -207 -6 -207 c 0
EndSplineSet
EndChar

StartChar: k
Encoding: 107 107 76
Width: 548
Flags: W
HStem: 0 21G<74 181 388.274 517> 501 20G<371.891 503> 680 20G<74 181>
VStem: 74 107<0 121 264 700>
DStem2: 181 264 284 259 0.627279 0.778795<0 60.7157 186.138 329.997> 366 354 284 259 0.392351 -0.919816<55.2097 337.778>
LayerCount: 2
Fore
SplineSet
397 0 m 1
 284 259 l 1
 181 121 l 1
 181 0 l 1
 74 0 l 1
 74 700 l 1
 181 700 l 1
 181 264 l 1
 388 521 l 1
 503 521 l 1
 366 354 l 1
 517 0 l 1
 397 0 l 1
EndSplineSet
EndChar

StartChar: l
Encoding: 108 108 77
Width: 254
Flags: W
HStem: 0 21G<72 179> 680 20G<72 179>
VStem: 72 107<0 700>
LayerCount: 2
Fore
SplineSet
72 0 m 1
 72 700 l 1
 179 700 l 1
 179 0 l 1
 72 0 l 1
EndSplineSet
EndChar

StartChar: m
Encoding: 109 109 78
Width: 804
Flags: W
HStem: 0 21G<66 173 348 455 630 737> 440 86<220.776 328.245 501.461 611.237>
VStem: 66 107<0 378.004 446 521> 348 107<0 386.37> 630 107<0 419.723>
CounterMasks: 1 38
LayerCount: 2
Back
SplineSet
630 0 m 1
 630 354 l 2
 630 410 605 435 549 435 c 0
 504 435 455 374 455 304 c 2
 455 0 l 1
 348 0 l 1
 348 304 l 2
 348 388 341 437 273 437 c 0
 227 437 195 385 182 349 c 0
 173 319 173 282 173 250 c 2
 173 0 l 1
 66 0 l 1
 66 521 l 1
 167 521 l 1
 167 457 l 1
 169 449 l 1
 207 518 254 526 313 526 c 0
 360 526 411 475 422 435 c 1
 466 518 525 526 577 526 c 0
 706 526 737 444 737 372 c 2
 737 0 l 1
 630 0 l 1
EndSplineSet
Fore
SplineSet
630 0 m 1
 630 359 l 2
 630 415 605 440 549 440 c 0
 504 440 455 379 455 309 c 2
 455 0 l 1
 348 0 l 1
 348 309 l 2
 348 393 341 440 273 440 c 0
 212 440 173 370 173 255 c 2
 173 0 l 1
 66 0 l 1
 66 521 l 1
 167 521 l 1
 167 446 l 1
 205 518 254 526 313 526 c 0
 360 526 411 475 422 435 c 1
 466 518 525 526 577 526 c 0
 706 526 737 444 737 372 c 2
 737 0 l 1
 630 0 l 1
EndSplineSet
EndChar

StartChar: n
Encoding: 110 110 79
Width: 530
Flags: W
HStem: 0 21G<67 174 356 463> 440 86<229.06 333.455>
VStem: 67 107<0 380.43 443 521> 356 107<0 415.508>
LayerCount: 2
Back
SplineSet
356 0 m 1
 356 298 l 2
 356 374 348 430 282 430 c 0
 234 430 174 385 174 267 c 2
 174 0 l 1
 67 0 l 1
 67 521 l 1
 172 521 l 1
 172 443 l 1
 212 504 252 526 301 526 c 0
 420 526 463 485 463 339 c 2
 463 0 l 1
 356 0 l 1
EndSplineSet
Fore
SplineSet
356 0 m 1
 356 308 l 2
 356 384 348 440 282 440 c 0
 234 440 174 395 174 277 c 2
 174 0 l 1
 67 0 l 1
 67 521 l 1
 172 521 l 1
 172 443 l 1
 212 504 252 526 301 526 c 0
 420 526 463 485 463 339 c 2
 463 0 l 1
 356 0 l 1
EndSplineSet
EndChar

StartChar: o
Encoding: 111 111 80
Width: 536
Flags: W
HStem: -5 86<206.471 330.722> 440 86<210.243 331.462>
VStem: 40 107<155.651 364.908> 389 107<154.431 370.77>
LayerCount: 2
Back
SplineSet
264 -3 m 0
 123 -3 40 110 40 261 c 0
 40 412 123 526 264 526 c 0
 406 526 495 409 495 256 c 0
 495 109 399 -3 264 -3 c 0
264 443 m 0
 172 443 158 347 158 277 c 0
 158 207 176 75 268 75 c 0
 360 75 377 184 377 254 c 0
 377 324 356 443 264 443 c 0
EndSplineSet
Fore
SplineSet
268 -5 m 0
 127 -5 40 110 40 261 c 0
 40 412 127 526 268 526 c 0
 409 526 496 412 496 261 c 0
 496 110 409 -5 268 -5 c 0
268 440 m 0
 179 440 147 333 147 261 c 0
 147 192 175 81 268 81 c 0
 360 81 389 186 389 261 c 0
 389 321 370 440 268 440 c 0
EndSplineSet
EndChar

StartChar: p
Encoding: 112 112 81
Width: 536
Flags: W
HStem: -5 86<208.551 319.418> 440 86<217.451 324.507>
VStem: 54 107<-179 38 132.625 388.512 448 521> 388 107<167.448 358.409>
LayerCount: 2
Back
SplineSet
297 -5 m 0xd8
 268 -5 198 -12 175 40 c 1
 161 38 l 1
 161 -179 l 1
 54 -179 l 1xe8
 54 521 l 1
 152 521 l 1
 152 438 l 1
 187 508 250 526 313 526 c 0
 442 526 495 382 495 258 c 0
 495 124 426 -5 297 -5 c 0xd8
264 432 m 0
 212 432 161 387 161 291 c 2
 161 219 l 2
 161 125 208 75 261 75 c 0
 346 75 380 193 380 256 c 0
 380 322 346 432 264 432 c 0
EndSplineSet
Fore
SplineSet
268 -5 m 0
 234 -5 188 -1 161 38 c 1
 161 -179 l 1
 54 -179 l 1
 54 521 l 1
 161 521 l 1
 161 448 l 1
 196 508 250 526 313 526 c 0
 442 526 495 382 495 258 c 0
 495 143 451 -5 268 -5 c 0
268 440 m 0
 216 440 161 395 161 299 c 2
 161 225 l 2
 161 131 212 81 265 81 c 0
 350 81 388 200 388 263 c 0
 388 329 350 440 268 440 c 0
EndSplineSet
EndChar

StartChar: q
Encoding: 113 113 82
Width: 530
Flags: W
HStem: -5 86<193.859 317.951> 440 86<208.568 329.33>
VStem: 34 107<142.103 360.274> 374 107<-179 46 143.934 391.836 464 521>
LayerCount: 2
Back
SplineSet
481 521 m 1
 481 -179 l 1
 374 -179 l 1
 374 46 l 1
 336 -8 288 -5 242 -5 c 0
 109 -5 34 120 34 259 c 0
 34 399 103 523 239 523 c 0
 302 523 353 515 382 454 c 1
 382 521 l 1
 481 521 l 1
377 307 m 2
 377 362 347 435 276 435 c 0
 182 435 149 331 149 259 c 0
 149 159 173 80 264 80 c 0
 335 80 377 163 377 224 c 2
 377 307 l 2
EndSplineSet
Fore
SplineSet
481 521 m 1
 481 -179 l 1
 374 -179 l 1
 374 46 l 1
 340 -3 298 -5 256 -5 c 0
 79 -5 34 155 34 259 c 0
 34 399 103 526 239 526 c 0
 302 526 345 515 374 464 c 1
 374 521 l 1
 481 521 l 1
374 312 m 2
 374 367 343 440 272 440 c 0
 178 440 141 334 141 262 c 0
 141 162 169 81 260 81 c 0
 331 81 374 164 374 225 c 2
 374 312 l 2
EndSplineSet
EndChar

StartChar: r
Encoding: 114 114 83
Width: 346
Flags: W
HStem: 0 21G<49 156> 426 100<213.854 319>
VStem: 49 107<0 367.102 455 521>
LayerCount: 2
Back
SplineSet
155 455 m 1
 185 498 230 526 264 526 c 2
 319 526 l 1
 319 419 l 1
 291 419 258 416 231 407 c 0
 179 383 155 339 155 254 c 2
 155 0 l 1
 49 0 l 1
 49 521 l 1
 155 521 l 1
 155 455 l 1
EndSplineSet
Fore
SplineSet
156 455 m 1
 186 498 230 526 264 526 c 2
 319 526 l 1
 319 426 l 1
 291 426 257 426 231 414 c 0
 179 390 156 346 156 261 c 2
 156 0 l 1
 49 0 l 1
 49 521 l 1
 156 521 l 1
 156 455 l 1
EndSplineSet
EndChar

StartChar: s
Encoding: 115 115 84
Width: 482
Flags: W
HStem: -5 86<171.419 331.97> 440 86<169.039 302.177>
VStem: 32 107<112.543 185> 46 107<351.542 421.421> 327 107<349 413.99> 349 107<97.7864 185.176>
DStem2: 209 334 162 252 0.942305 -0.334755<-65.5842 185.891>
LayerCount: 2
Back
SplineSet
456 159 m 0xd4
 456 113 424.5 -6 265 -6 c 0
 129 -6 35 20 32 184 c 1
 127 184 l 1
 135 94 193 80 268 80 c 0
 309 80 356 94 356 147 c 0xe4
 356 170 348.753 188.176 314 199 c 0
 253 217.999 197.987 238.983 139 265 c 0
 97.5432 283.285 46 300 46 379 c 0
 46 484 136 526 238 526 c 0
 374 526 429 468 434 349 c 1
 336 349 l 1xd8
 334 414 307 435 230 435 c 0
 182 435 152 411 152 385 c 0
 152 298 456 333 456 159 c 0xd4
EndSplineSet
Fore
SplineSet
162 252 m 0xe4
 100 277 46 312 46 379 c 0
 46 484 136 526 238 526 c 0
 374 526 429 468 434 349 c 1
 327 349 l 1
 325 414 298 440 230 440 c 0
 182 440 153 411 153 385 c 0xd8
 153 361 176 346 209 334 c 0
 243 322 286 312 328 297 c 0
 395 273 456 238 456 160 c 0
 456 114 425 -5 265 -5 c 0
 129 -5 35 21 32 185 c 1
 139 185 l 1
 139 95 193 81 268 81 c 0
 309 81 349 95 349 148 c 0
 349 174 326 191 292 206 c 0
 255 222 207 234 162 252 c 0xe4
EndSplineSet
EndChar

StartChar: t
Encoding: 116 116 85
Width: 372
Flags: W
HStem: -5 86<228.917 324.838> 435 86<23 105 212 322> 680 20G<105 212>
VStem: 105 107<97.2339 435 521 700>
LayerCount: 2
Back
SplineSet
326 1 m 1
 300 -1 281 -6 254 -6 c 0
 118 -6 105 54 105 158 c 2
 105 435 l 1
 23 435 l 1
 23 521 l 1
 109 521 l 1
 109 700 l 1
 212 700 l 1
 212 523 l 1
 322 523 l 1
 322 435 l 1
 212 435 l 1
 212 189 l 2
 212 127 213 80 286 80 c 0
 298 80 302 81 326 83 c 1
 326 1 l 1
EndSplineSet
Fore
SplineSet
326 2 m 1
 300 0 281 -5 254 -5 c 0
 118 -5 105 55 105 159 c 2
 105 435 l 1
 23 435 l 1
 23 521 l 1
 105 521 l 1
 105 700 l 1
 212 700 l 1
 212 521 l 1
 322 521 l 1
 322 435 l 1
 212 435 l 1
 212 190 l 2
 212 128 213 81 286 81 c 0
 298 81 302 82 326 84 c 1
 326 2 l 1
EndSplineSet
EndChar

StartChar: u
Encoding: 117 117 86
Width: 530
Flags: W
HStem: -5 86<197.441 299.991> 501 20G<72 179 351 458>
VStem: 72 107<99.9119 521> 351 107<0 69 134.861 521>
LayerCount: 2
Back
SplineSet
362 0 m 5x68
 362 69 l 5x68
 340 69 l 1
 299 6 259 -6 199 -6 c 0
 75 -6 72 98 72 190 c 2
 72 521 l 1
 179 521 l 1
 179 190 l 2
 179 135 189 94 253 94 c 0
 317 94 351 164 351 204 c 2
 351 521 l 1
 458 521 l 1x70
 458 0 l 1
 362 0 l 5x68
EndSplineSet
Fore
SplineSet
351 0 m 1
 351 69 l 1
 310 6 270 -5 210 -5 c 0
 75 -5 72 98 72 190 c 2
 72 521 l 1
 179 521 l 1
 179 190 l 2
 179 135 189 81 240 81 c 0
 317 81 351 164 351 204 c 2
 351 521 l 1
 458 521 l 1
 458 0 l 1
 351 0 l 1
EndSplineSet
EndChar

StartChar: v
Encoding: 118 118 87
Width: 469
Flags: W
HStem: 0 21G<178.973 302.065> 501 20G<28 148.983 337.587 454>
DStem2: 143 521 28 521 0.288528 -0.957471<0 366.368> 248 170 296 0 0.290211 0.956963<0 363.464>
LayerCount: 2
Fore
SplineSet
296 0 m 1
 185 0 l 1
 28 521 l 1
 143 521 l 1
 248 170 l 1
 343 521 l 1
 454 521 l 1
 296 0 l 1
EndSplineSet
EndChar

StartChar: w
Encoding: 119 119 88
Width: 726
Flags: W
HStem: 0 21G<161.587 280.652 453.348 564.374> 501 20G<26 145.68 308.406 427.874 596.209 699>
DStem2: 141 521 26 521 0.261236 -0.965275<0 368.478> 231 164 276 0 0.226571 0.973995<0 234.446> 423 521 371 374 0.226571 -0.973995<131.396 367.428> 515 162 559 0 0.259508 0.965741<0 369.019>
LayerCount: 2
Fore
SplineSet
559 0 m 1
 458 0 l 1
 371 374 l 1
 363 374 l 1
 276 0 l 1
 167 0 l 1
 26 521 l 1
 141 521 l 1
 225 162 l 1
 231 164 l 1
 313 521 l 1
 423 521 l 1
 510 164 l 1
 515 162 l 1
 601 521 l 1
 699 521 l 1
 559 0 l 1
EndSplineSet
EndChar

StartChar: x
Encoding: 120 120 89
Width: 530
Flags: W
HStem: 0 21G<49 173.412 341.941 477> 501 20G<65 200.064 336.511 461>
DStem2: 49 0 162 0 0.497752 0.86732<56.2459 251.972 438.091 600.701> 189 521 65 521 0.483788 -0.875185<0 161.137 341.055 535.313>
LayerCount: 2
Back
SplineSet
353 0 m 1
 65 521 l 1
 189 521 l 1
 477 0 l 1
 353 0 l 1
162 0 m 1
 49 0 l 1
 348 521 l 1
 461 521 l 1
 162 0 l 1
353 0 m 1
 259 184 l 1
 162 0 l 1
 49 0 l 1
 204 270 l 1
 64 521 l 1
 189 521 l 1
 267 360 l 1
 346 521 l 1
 454 521 l 1
 320 281 l 1
 477 0 l 1
 353 0 l 1
EndSplineSet
Fore
SplineSet
162 0 m 1
 49 0 l 1
 204 270 l 1
 65 521 l 1
 189 521 l 1
 267 380 l 1
 348 521 l 1
 461 521 l 1
 322 280 l 1
 477 0 l 1
 353 0 l 1
 259 170 l 1
 162 0 l 1
EndSplineSet
EndChar

StartChar: y
Encoding: 121 121 90
Width: 470
Flags: W
HStem: 501 20G<38 159.338 347.969 449>
DStem2: 153 521 38 521 0.30266 -0.953098<0 340.931> 256 196 279 -52 0.28443 0.958697<0 339.451>
LayerCount: 2
Back
SplineSet
279 -52 m 2
 254 -135 201 -185 109 -192 c 1
 43 -196 l 1
 44 -94 l 1
 57 -95 68 -96 79 -96 c 0
 140 -96 179 -75 199 14 c 1
 38 521 l 1
 153 521 l 1
 253 150 l 1
 354 521 l 1
 449 521 l 1
 279 -52 l 2
EndSplineSet
Fore
SplineSet
279 -52 m 2
 254 -135 201 -186 109 -192 c 2
 43 -196 l 1
 44 -94 l 1
 57 -95 68 -96 79 -96 c 0
 140 -96 179 -75 199 14 c 1
 38 521 l 1
 153 521 l 1
 256 196 l 1
 354 521 l 1
 449 521 l 1
 279 -52 l 2
EndSplineSet
EndChar

StartChar: z
Encoding: 122 122 91
Width: 412
Flags: W
HStem: 0 86<130 379> 435 86<41 261>
DStem2: 23 78 130 86 0.5547 0.83205<66.0093 429.061>
LayerCount: 2
Back
SplineSet
23 0 m 1
 23 103 l 1
 261 436 l 1
 41 436 l 1
 41 521 l 1
 368 521 l 1
 368 443 l 1
 129 87 l 1
 379 87 l 1
 379 0 l 1
 23 0 l 1
EndSplineSet
Fore
SplineSet
23 0 m 1
 23 78 l 1
 261 435 l 1
 41 435 l 1
 41 521 l 1
 368 521 l 1
 368 443 l 1
 130 86 l 1
 379 86 l 1
 379 0 l 1
 23 0 l 1
EndSplineSet
EndChar

StartChar: braceleft
Encoding: 123 123 92
Width: 402
Flags: W
HStem: -182 86<264.874 335> 222 86<67 126.485> 616 86<264.874 335>
VStem: 147 107<-84.7316 201.492 326.458 604.532>
LayerCount: 2
Back
SplineSet
241 -182 m 2
 213 -182 147 -146 147 -67 c 2
 147 161 l 2
 147 224 100 238 67 239 c 1
 67 291 l 1
 100 293 147 305 147 359 c 2
 147 587 l 2
 147 665 213 702 241 702 c 2
 305 702 l 5
 305 645 l 5
 288 645 l 6
 225 645 224 601 224 573 c 6
 224 362 l 6
 224 302 176 277 130 273 c 1
 130 254 l 1
 176 251 224 236 224 159 c 6
 224 -54 l 6
 224 -81 225 -126 288 -126 c 6
 305 -126 l 5
 305 -182 l 5
 241 -182 l 2
EndSplineSet
Fore
SplineSet
241 -182 m 2
 213 -182 147 -146 147 -67 c 2
 147 144 l 2
 147 207 100 222 67 222 c 1
 67 308 l 1
 100 308 147 322 147 376 c 2
 147 587 l 2
 147 665 213 702 241 702 c 2
 335 702 l 1
 335 616 l 1
 318 616 l 2
 255 616 254 572 254 544 c 2
 254 379 l 2
 254 319 206 277 160 273 c 1
 160 254 l 1
 206 251 254 219 254 142 c 2
 254 -24 l 2
 254 -51 255 -96 318 -96 c 2
 335 -96 l 1
 335 -182 l 1
 241 -182 l 2
EndSplineSet
EndChar

StartChar: bar
Encoding: 124 124 93
Width: 294
Flags: W
HStem: 694 20G<104 190>
VStem: 104 86<-196 714>
LayerCount: 2
Back
SplineSet
107 0 m 1
 107 700 l 1
 187 700 l 1
 187 0 l 1
 107 0 l 1
EndSplineSet
Fore
SplineSet
104 -196 m 1
 104 714 l 1
 190 714 l 1
 190 -196 l 1
 104 -196 l 1
EndSplineSet
EndChar

StartChar: braceright
Encoding: 125 125 94
Width: 402
Flags: W
HStem: -185 86<67 136.55> 219 86<275.823 335> 613 86<67 136.55>
VStem: 148 107<-88.5151 197.583 324.738 601.532>
LayerCount: 2
Back
SplineSet
225 158 m 2
 225 -71 l 2
 225 -149 159 -185 132 -185 c 2
 67 -185 l 1
 67 -129 l 1
 86 -129 l 2
 147 -129 149 -83 149 -57 c 2
 149 156 l 2
 149 233 192 247 239 250 c 1
 239 271 l 1
 192 276 149 299 149 359 c 2
 149 570 l 2
 149 596 147 642 86 642 c 2
 67 642 l 1
 67 699 l 1
 132 699 l 2
 159 699 225 662 225 584 c 2
 225 356 l 2
 225 302 273 290 305 288 c 1
 305 236 l 1
 273 235 225 221 225 158 c 2
EndSplineSet
Fore
SplineSet
255 141 m 2
 255 -71 l 2
 255 -149 189 -185 162 -185 c 2
 67 -185 l 1
 67 -99 l 1
 86 -99 l 2
 147 -99 148 -53 148 -27 c 2
 148 156 l 2
 148 233 195 247 242 250 c 1
 242 271 l 1
 195 276 148 299 148 359 c 2
 148 541 l 2
 148 567 147 613 86 613 c 2
 67 613 l 1
 67 699 l 1
 162 699 l 2
 189 699 255 662 255 584 c 2
 255 373 l 2
 255 319 303 305 335 305 c 1
 335 219 l 1
 303 219 255 204 255 141 c 2
EndSplineSet
EndChar

StartChar: asciitilde
Encoding: 126 126 95
Width: 588
Flags: W
HStem: 220 86<361.707 444.438> 339 86<143.468 231.985>
VStem: 28 107<253 334.206> 455 107<313.189 391>
LayerCount: 2
Back
SplineSet
541 391 m 1
 536 313 517 220 423 220 c 0
 336 220 240 330 173 330 c 0
 138 330 135 294 135 253 c 1
 46 253 l 1
 55 392 113 425 158 425 c 0
 254 425 360 305 418 305 c 0
 449 305 453 342 455 391 c 1
 541 391 l 1
EndSplineSet
Fore
SplineSet
562 391 m 1
 557 313 537 220 433 220 c 0
 336 220 240 339 173 339 c 0
 138 339 135 294 135 253 c 1
 28 253 l 1
 37 392 95 425 149 425 c 0
 254 425 360 306 418 306 c 0
 449 306 453 342 455 391 c 1
 562 391 l 1
EndSplineSet
EndChar

StartChar: uni0E10.descless
Encoding: 128 63232 96
Width: 613
Flags: MW
HStem: -5 78<314.348 398.981> 163 68<150.225 189.723> 306 68<150.66 219.761> 441 50<195 217.168> 494 78<366.626 561.082> 526 78<207.334 406.784>
VStem: 77 70<234.945 301.687> 190 118<77.4541 163> 405 118<79.665 347.205>
LayerCount: 2
Back
SplineSet
484 572 m 0xfb
 543 572 555 598 555 598 c 1
 590 532 l 1
 587 530 558 497 489 497 c 0xfb
 403 497 362 534 287 534 c 0
 214 534 201 502 195 495 c 1
 199 495 270 495 363 466 c 0
 458 435 503 402 524 353 c 0
 534 332 536 317 536 302 c 0
 536 292 535 283 535 273 c 2
 526 133 l 2
 519 17 428 -3 360 -3 c 0
 286.5 -3 217.059 19.4059 208 110 c 2
 202 170 l 1
 195 169 187 168 180 168 c 0
 128 168 77 203 77 266 c 0
 77 325 118 373 185 373 c 0
 285 373 306 303 310 247 c 2
 317 115 l 2
 319 89 325 72 363 72 c 0
 397 72 411 78 412 104 c 2
 422 268 l 2
 423 274 423 280 423 286 c 0
 423 309 417 329 399 351 c 0
 371 382 300 409 218 423 c 0
 132 438 67 445 66 445 c 1
 66 476 110 604 278 604 c 0xf7
 368 604 422 572 484 572 c 0xfb
181 305 m 0
 157 305 145 287 145 269 c 0
 145 251 157 233 181 233 c 0
 206 233 218 251 218 269 c 0
 218 287 206 305 181 305 c 0
EndSplineSet
Fore
SplineSet
452 425 m 0xf780
 488 400 523 351 523 302 c 2
 523 139 l 2
 523 15 458 -5 357 -5 c 0
 223 -5 190 67 190 141 c 2
 190 163 l 1
 102 163 77 226 77 267 c 0
 77 331 127 374 190 374 c 0
 262 374 308 321 308 267 c 2
 308 144 l 2
 308 91 308 73 363 73 c 0
 395 73 405 89 405 126 c 2
 405 286 l 2
 405 309 399 329 381 351 c 0
 353 382 300 405 218 419 c 0
 132 434 67 441 66 441 c 1
 66 472 110 604 278 604 c 0xf780
 368 604 422 572 484 572 c 0
 543 572 555 598 555 598 c 1
 590 532 l 1
 587 530 558 494 489 494 c 0xfb80
 403 494 362 526 287 526 c 0
 214 526 201 498 195 491 c 1
 197 491 211 491 235 489 c 0
 335 479 416 449 452 425 c 0xf780
224 268 m 0
 224 288 210 306 185 306 c 0
 160 306 147 287 147 268 c 0
 147 250 159 231 185 231 c 0
 211 231 224 250 224 268 c 0
EndSplineSet
EndChar

StartChar: ellipsis
Encoding: 133 8230 101
Width: 637
VWidth: 2048
Flags: W
HStem: 0 133<62.0396 167.925 273.226 380.877 484.633 588>
VStem: 49 135<16.1858 119.96> 261 133<12.3098 119.96> 472 133<17.161 119.96>
LayerCount: 2
Fore
SplineSet
184 66 m 0
 184 33 161 0 116 0 c 0
 72 0 49 21 49 66 c 0
 49 110 72 133 116 133 c 0
 161 133 184 110 184 66 c 0
326 133 m 0
 371 133 394 110 394 66 c 0
 394 21 371 0 326 0 c 0
 282 0 261 21 261 66 c 0
 261 110 282 133 326 133 c 0
605 66 m 0
 605 24 572 0 538 0 c 0
 494 0 472 21 472 66 c 0
 472 110 494 133 538 133 c 0
 582 133 605 110 605 66 c 0
EndSplineSet
EndChar

StartChar: uni0E49.low_left
Encoding: 135 63238 103
Width: 0
Flags: W
HStem: 791 59<-552.257 -522> 946 58<-553.72 -473.164>
VStem: -624 63<857.743 938.001> -465 74<857.75 937.654>
LayerCount: 2
Back
SplineSet
-510 716 m 0
 -510 716 l 0
 -490 742 -486 766 -486 766 c 1
 -512 766 -550 782 -566 814 c 0
 -589 868 -559 944 -486 947 c 0
 -428 949 -385 917 -377 868 c 0
 -369 809 -400 753 -418 740 c 1
 -388 745 -360 753 -328 768 c 0
 -291 786 -273 802 -250 823 c 0
 -202 868 -175 923 -175 923 c 1
 -175 785 l 1
 -175 785 -230 728 -322 699 c 0
 -403 673 -509 667 -559 673 c 1
 -559 673 -530 690 -510 716 c 0
-478 815 m 0
 -425 815 -428 898 -481 898 c 0
 -535 898 -532 815 -478 815 c 0
EndSplineSet
Fore
Refer: 108 63243 N 1 0 0 1 -166 0 2
EndChar

StartChar: uni0E4A.low_left
Encoding: 136 63239 104
Width: 0
Flags: W
HStem: 677 40<-573.215 -506.033> 797 41<-571.753 -505.733> 901 74<-560.831 -466.586 -421.13 -349.319>
VStem: -501 45<720.513 793.063> -336 81<774.281 887.958> -175 93<864.584 923.462>
LayerCount: 2
Back
SplineSet
-535 834 m 0xe0
 -535 834 l 0
 -543 819 -540 802 -540 799 c 1
 -538 799 -507 814 -475 799 c 0
 -435 779 -434 714 -463 688 c 0
 -504 650 -570 676 -592 722 c 0
 -621 785 -601 906 -527 921 c 0
 -469 932 -437 887 -435 887 c 0xe0
 -434 887 -400 923 -357 923 c 0
 -317 923 -277 895 -273 837 c 0
 -267 789 -290 750 -290 750 c 1
 -285 751 -253 769 -230 809 c 0
 -208 849 -204 898 -204 917 c 1
 -124 875 l 1
 -124 875 -146 769 -236 719 c 0
 -294 685 -380 674 -405 674 c 0
 -400 674 -354 704 -343 768 c 0
 -336 812 -343 858 -382 858 c 0xd0
 -405 858 -438 832 -438 832 c 2
 -440 832 -468 860 -501 860 c 0
 -521 860 -529 848 -535 834 c 0xe0
-515 705 m 0
 -471 705 -471 773 -515 773 c 0
 -559 773 -559 705 -515 705 c 0
EndSplineSet
Fore
Refer: 109 63244 N 1 0 0 1 -166 0 2
EndChar

StartChar: uni0E4B.low_left
Encoding: 137 63240 105
Width: 0
Flags: W
HStem: 808 98<-613 -474 -356 -216>
VStem: -474 118<682 808 906 1033>
LayerCount: 2
Back
SplineSet
-468 981 m 1
 -356 981 l 1
 -356 871 l 1
 -236 871 l 1
 -236 788 l 1
 -356 788 l 1
 -356 679 l 1
 -468 679 l 1
 -468 788 l 1
 -586 788 l 1
 -586 871 l 1
 -468 871 l 1
 -468 981 l 1
EndSplineSet
Fore
Refer: 110 63245 S 1 0 0 1 -270 0 2
EndChar

StartChar: uni0E4C.low_left
Encoding: 138 63241 106
Width: 0
Flags: W
HStem: 668 48<-394.648 -313.186> 814 47<-361.834 -314.375>
VStem: -472 70<723.675 806.065> -305 50<723.574 806.675> -210 95<986.561 1056>
LayerCount: 2
Back
SplineSet
-342 874 m 0
 -342 874 l 0
 -395 869 -400 843 -402 843 c 0
 -399 843 -303 843 -305 746 c 0
 -305 667 -423 642 -472 700 c 0
 -517 753 -503 846 -445 887 c 0
 -386 927 -336 914 -288 949 c 0
 -264 967 -264 1013 -264 1018 c 1
 -179 1018 l 1
 -179 1013 -187 953 -212 926 c 0
 -238 898 -268 880 -342 874 c 0
-392 713 m 0
 -334 713 -334 800 -392 800 c 0
 -451 800 -451 713 -392 713 c 0
EndSplineSet
Fore
Refer: 111 63246 N 1 0 0 1 -166 0 2
EndChar

StartChar: uni0E48.low
Encoding: 139 63242 107
Width: 0
Flags: W
VStem: -202 118<684 938>
AnchorPoint: "AboveBase" -87 613 mark 0
LayerCount: 2
Fore
SplineSet
-202 684 m 1
 -202 938 l 1
 -84 938 l 1
 -84 684 l 1
 -202 684 l 1
EndSplineSet
EndChar

StartChar: uni0E49.low
Encoding: 140 63243 108
Width: 0
Flags: W
HStem: 791 59<-386.257 -356> 946 58<-387.72 -307.164>
VStem: -458 63<857.743 938.001> -299 74<857.75 937.654>
AnchorPoint: "AboveBase" -87 613 mark 0
LayerCount: 2
Fore
SplineSet
11 814 m 1
 -29 772 -147 678 -384 678 c 0
 -406 678 -425 679 -440 681 c 1
 -440 681 -406 699 -382 731 c 0
 -359 762 -356 791 -356 791 c 1
 -395 791 -458 822 -458 895 c 0
 -458 949 -420 1004 -348 1004 c 0
 -279 1004 -225 963 -225 885 c 0
 -225 827 -256 774 -273 760 c 1
 -74 788 7 972 11 976 c 1
 11 814 l 1
-299 898 m 0
 -299 926 -319 946 -347 946 c 0
 -375 946 -395 926 -395 898 c 0
 -395 870 -375 850 -347 850 c 0
 -319 850 -299 870 -299 898 c 0
EndSplineSet
EndChar

StartChar: uni0E4A.low
Encoding: 141 63244 109
Width: 0
Flags: W
HStem: 677 40<-407.215 -340.033> 797 41<-405.753 -339.733> 901 74<-394.831 -300.586 -255.13 -183.319>
VStem: -335 45<720.513 793.063> -170 81<774.281 887.958> -9 93<864.584 923.462>
AnchorPoint: "AboveBase" -87 613 mark 0
LayerCount: 2
Fore
SplineSet
-356 901 m 0
 -397 901 -407 859 -407 845 c 0
 -407 837 -405 832 -405 829 c 1
 -404 829 -388 838 -366 838 c 0
 -324 838 -290 806 -290 758 c 0
 -290 708 -329 677 -374 677 c 0
 -416 677 -483 707 -483 814 c 0
 -483 888 -449 975 -364 975 c 0
 -310 975 -285 938 -282 933 c 1
 -277.5 937 -237 975 -189 975 c 0
 -129 975 -89 923 -89 858 c 0
 -89 809 -112 771 -112 771 c 1
 -106 774 -69 794 -41 842 c 0
 -15 889 -9 946 -9 966 c 1
 84 920 l 1
 84 920 58 794 -48 734 c 0
 -116.902 694.518 -210 682 -245 682 c 1
 -228 691 -170 740 -170 827 c 0
 -170 866 -184 898 -221 898 c 0
 -245 898 -280 871.5 -285 868 c 1
 -290 871.5 -319 901 -356 901 c 0
-374 717 m 0
 -348 717 -335 737 -335 757 c 0
 -335 777 -348 797 -374 797 c 0
 -400 797 -413 777 -413 757 c 0
 -413 737 -400 717 -374 717 c 0
EndSplineSet
EndChar

StartChar: uni0E4B.low
Encoding: 142 63245 110
Width: 0
Flags: W
HStem: 808 98<-343 -204 -86 54>
VStem: -204 118<682 808 906 1033>
AnchorPoint: "AboveBase" 17 613 mark 0
LayerCount: 2
Fore
SplineSet
-204 1033 m 1
 -86 1033 l 1
 -86 906 l 1
 54 906 l 1
 54 808 l 1
 -86 808 l 1
 -86 682 l 1
 -204 682 l 1
 -204 808 l 1
 -343 808 l 1
 -343 906 l 1
 -204 906 l 1
 -204 1033 l 1
EndSplineSet
EndChar

StartChar: uni0E4C.low
Encoding: 143 63246 111
Width: 0
Flags: W
HStem: 668 48<-228.648 -147.186> 814 47<-195.834 -148.375>
VStem: -306 70<723.675 806.065> -139 50<723.574 806.675> -44 95<986.561 1056>
AnchorPoint: "AboveBase" -87 613 mark 0
LayerCount: 2
Fore
SplineSet
-193 668 m 0
 -261 668 -306 723 -306 790 c 0
 -306 836 -285 882 -245 910 c 0
 -157 970 -44 930 -44 1056 c 1
 51 1056 l 1
 51 1052 44 986 15 953 c 0
 -14 921 -51 901 -130 895 c 0
 -190 891 -195 861 -196 861 c 1
 -192 861 -89 861 -89 759 c 0
 -89 700 -141 668 -193 668 c 0
-187 716 m 0
 -155 716 -139 740 -139 765 c 0
 -139 790 -155 814 -187 814 c 0
 -220 814 -236 790 -236 765 c 0
 -236 740 -220 716 -187 716 c 0
EndSplineSet
EndChar

StartChar: uni0E0D.descless
Encoding: 144 63247 112
Width: 882
Flags: MW
HStem: -5 68<202.991 263.022> 0 78<407 446 564 676.746> 142 68<227.045 263.201> 524 78<235.677 405.714> 575 20G<679 797>
VStem: 109 118<210 353.37> 267 70<65.7776 138.814> 446 118<78 483.031> 679 118<82.2486 595>
LayerCount: 2
Fore
SplineSet
639 78 m 2x7780
 671 78 679 98 679 112 c 2
 679 595 l 1
 797 595 l 1
 797 130 l 2
 797 58 756 0 699 0 c 2
 407 0 l 1
 407 78 l 1
 446 78 l 1x6f80
 446 402 l 2
 446 478 414 524 327 524 c 0
 252 524 209 486 209 486 c 1
 261 458 293 425 313 405 c 1
 293 395 227 364 227 279 c 2
 227 210 l 1
 246 210 337 204 337 105 c 0
 337 28 270 -5 227 -5 c 0xb780
 154 -5 109 43 109 127 c 2
 109 279 l 2
 109 371 169 392 183 400 c 1
 141 444 54 483 49 484 c 1
 69 512 162 602 330 602 c 0
 506 602 564 508 564 414 c 2
 564 78 l 1
 639 78 l 2x7780
232 142 m 0
 210 142 199 122 199 102 c 0
 199 82 210 63 232 63 c 0xa780
 256 63 267 83 267 102 c 0
 267 122 256 142 232 142 c 0
EndSplineSet
EndChar

StartChar: quoteleft
Encoding: 145 8216 113
Width: 295
Flags: W
HStem: 450 145<125.192 193.183> 684 39<157 196>
VStem: 58 66<593 634.444>
LayerCount: 2
Fore
SplineSet
134 450 m 0
 104 450 58 467 58 545 c 0
 58 614 99 708 196 723 c 1
 196 684 l 1
 162 677 124 630 124 593 c 1
 130 595 137 595 143 595 c 0
 177 595 213 571 213 524 c 0
 213 465 164 450 134 450 c 0
EndSplineSet
EndChar

StartChar: quoteright
Encoding: 146 8217 114
Width: 280
Flags: W
HStem: 460 40<84 124> 588 145<88.5 157.673>
VStem: 158 68<554.529 590>
LayerCount: 2
Fore
SplineSet
147 733 m 0
 178 733 226 719 226 644 c 0
 226 576 188 481 84 460 c 1
 84 500 l 1
 118 507 158 553 158 590 c 1
 151 588 145 588 139 588 c 0
 105 588 69 610 69 659 c 0
 69 702 95 733 147 733 c 0
EndSplineSet
EndChar

StartChar: quotedblleft
Encoding: 147 8220 115
Width: 487
Flags: W
HStem: 448 147<139 194.136 354 408.137> 687 53<156.576 208 370.242 422>
LayerCount: 2
Fore
SplineSet
139 595 m 1
 180 595 216 565 216 521 c 0
 216 486 190 448 139 448 c 0
 79 448 60 497 60 543 c 0
 60 587 83 734 208 740 c 1
 208 687 l 1
 198 687 159 685 147 655 c 0
 139 634 137 620 137 610 c 0
 137 601 139 596 139 595 c 1
354 595 m 1
 395 595 429 566 429 520 c 0
 429 485 405 448 354 448 c 0
 292 448 274 498 274 544 c 0
 274 586 296 734 422 740 c 1
 422 687 l 1
 412 687 374 685 362 655 c 0
 354 636 352 622 352 612 c 0
 352 602 354 597 354 595 c 1
EndSplineSet
EndChar

StartChar: quotedblright
Encoding: 148 8221 116
Width: 493
Flags: W
HStem: 449 54<80 134.127 294 346.491> 595 147<95.167 149 308.339 363>
VStem: 80 148<610.351 718.495>
LayerCount: 2
Fore
SplineSet
287 669 m 0
 287 704 312 742 363 742 c 0
 424 742 443 692 443 646 c 0
 443 609 422 456 294 449 c 1
 294 503 l 1
 305 503 343 504 356 535 c 0
 363 554 365 568 365 578 c 0
 365 588 363 593 363 595 c 1
 322 595 287 625 287 669 c 0
74 672 m 0
 74 706 99 742 149 742 c 0
 209 742 228 694 228 649 c 0
 228 637 227 626 225 616 c 0
 210 520 167 454 80 449 c 1
 80 503 l 1
 90 503 129 504 141 535 c 0
 149 554 151 568 151 578 c 0
 151 588 149 593 149 595 c 1
 105 595 74 626 74 672 c 0
EndSplineSet
EndChar

StartChar: bullet
Encoding: 149 8226 117
Width: 531
Flags: W
HStem: 100 337<196.057 366.596>
VStem: 113 337<181.336 355.401>
LayerCount: 2
Fore
SplineSet
281 437 m 0
 394 437 450 353 450 268 c 0
 450 184 394 100 281 100 c 0
 169 100 113 184 113 268 c 0
 113 353 169 437 281 437 c 0
EndSplineSet
EndChar

StartChar: endash
Encoding: 150 8211 118
Width: 665
Flags: W
HStem: 245 100<48 609>
LayerCount: 2
Back
SplineSet
609 248 m 1
 48 248 l 1
 48 345 l 1
 609 345 l 1
 609 248 l 1
EndSplineSet
Fore
SplineSet
609 245 m 1
 48 245 l 1
 48 345 l 1
 609 345 l 1
 609 245 l 1
EndSplineSet
EndChar

StartChar: emdash
Encoding: 151 8212 119
Width: 1056
Flags: W
HStem: 245 100<49 1007>
LayerCount: 2
Back
SplineSet
1007 248 m 5
 49 248 l 5
 49 345 l 1
 1007 345 l 1
 1007 248 l 5
EndSplineSet
Fore
SplineSet
1007 245 m 1
 49 245 l 1
 49 345 l 1
 1007 345 l 1
 1007 245 l 1
EndSplineSet
EndChar

StartChar: uni0E31.left
Encoding: 152 63248 120
Width: 0
Flags: W
HStem: 682 77<-428.25 -286.762> 873 57<-555.16 -476.532>
VStem: -622 61<788.005 866.205> -469 65<787.265 865.302>
LayerCount: 2
Back
SplineSet
9 788 m 1
 9 788 l 0
 8 788 -51 725 -169 699 c 0
 -274 674 -388 687 -434 704 c 0
 -544 748 -535 872 -471 910 c 0
 -408 950 -314 918 -302 845 c 0
 -293 789 -326 757 -326 757 c 1
 -322 757 -245 753 -169 783 c 0
 -37 834 9 914 9 914 c 1
 9 788 l 1
-363 828 m 0
 -365 889 -457 886 -455 825 c 0
 -454 765 -362 766 -363 828 c 0
EndSplineSet
Fore
Refer: 177 3633 N 1 0 0 1 -166 0 2
EndChar

StartChar: uni0E47.left
Encoding: 154 63250 122
Width: 0
Flags: W
HStem: 674 63<-371.466 -316.455> 759 94<-525.816 -456.146> 808 60<-371.712 -316.696> 926 80<-507.091 -304.857> 942 70<-571.292 -367.77>
VStem: -690 92<793.621 913.876> -314 52<738.228 806.438> -290 99<1021.79 1093>
LayerCount: 2
Back
SplineSet
-201 1061 m 1
 -201 1061 l 1
 -201 1061 -195 932 -297 917 c 0
 -376 904 -422 929 -497 926 c 0
 -543 923 -564 881 -564 840 c 0
 -564 802 -533 789 -533 789 c 1
 -533 792 -530 837 -494 846 c 0
 -455 857 -411 805 -411 805 c 1
 -411 805 -399 861 -337 861 c 0
 -290 861 -259 819 -265 760 c 0
 -268 717 -299 691 -337 690 c 0
 -406 687 -434 766 -471 765 c 0
 -517 763 -503 690 -503 688 c 1
 -561 690 -613 716 -632 769 c 0
 -661 849 -638 953 -553 981 c 0
 -484 1002 -388 972 -322 990 c 0
 -288 998 -293 1033 -290 1061 c 1
 -201 1061 l 1
-336 806 m 0
 -369 806 -374 746 -336 746 c 0
 -299 746 -303 806 -336 806 c 0
EndSplineSet
Fore
Refer: 197 3655 N 1 0 0 1 -166 0 2
EndChar

StartChar: uni0E01
Encoding: 161 3585 129
Width: 674
Flags: W
HStem: 0 21G<116 234 474 592> 524 78<246.056 428.624>
VStem: 116 118<0 348.25> 474 118<0 480.922>
LayerCount: 2
Back
SplineSet
190 397 m 1
 149 441 64 476 57 478 c 1
 75 506 176 598 336 598 c 0
 518 598 592 506 592 411 c 2
 592 0 l 1
 474 0 l 1
 474 409 l 2
 474 486 426 524 339 524 c 0
 259 524 217 483 217 483 c 1
 220 481 239 471 271 448 c 0
 298 426 321 402 321 402 c 1
 318 402 288 389 260 356 c 4
 236 326 234 291 234 276 c 2
 234 0 l 1
 116 0 l 1
 116 276 l 2
 116 287 120 330 139 357 c 4
 162 386 190 397 190 397 c 1
EndSplineSet
Fore
SplineSet
190 397 m 1
 149 441 64 476 57 478 c 1
 75 506 176 602 336 602 c 0
 518 602 592 506 592 411 c 2
 592 0 l 1
 474 0 l 1
 474 409 l 2
 474 486 426 524 339 524 c 0
 259 524 217 483 217 483 c 1
 269 455 301 422 321 402 c 1
 301 392 234 361 234 276 c 2
 234 0 l 1
 116 0 l 1
 116 276 l 2
 116 364 176 389 190 397 c 1
EndSplineSet
EndChar

StartChar: uni0E02
Encoding: 162 3586 130
Width: 659
Flags: W
HStem: 0 78<120 190 308 453.721> 335 68<106.234 169.024> 524 78<200.421 264.862> 575 20G<462 580>
VStem: 29 73<406.66 476.97> 173 70<405.234 478.621> 190 118<78 285.731> 292 95<365.557 497.472> 462 118<86.9062 595>
LayerCount: 2
Back
SplineSet
410 78 m 2xf5
 441 78 462 94 462 135 c 2
 462 595 l 1
 580 595 l 1
 580 133 l 2
 580 73 553 0 449 0 c 2
 120 0 l 1
 120 78 l 1
 190 78 l 1
 190 224 l 2xf5
 190 305 292 343 292 434 c 0
 292 463 277 531 213 531 c 0
 206 531 200 530 196 530 c 1
 225 516 243 478 243 444 c 0
 243 396 210 342 141 342 c 0
 78 342 29 384 29 453 c 0
 29 511 65 598 207 598 c 4
 345 598 387 507 387 447 c 0xfb
 387 347 308 301 308 230 c 2
 308 78 l 1
 410 78 l 2xf5
105 451 m 0
 105 431 117 412 142 412 c 0
 165 412 176 431 176 451 c 0xf9
 176 470 165 490 141 490 c 0
 117 490 105 470 105 451 c 0
EndSplineSet
Fore
SplineSet
410 78 m 2xea80
 441 78 462 94 462 135 c 2
 462 595 l 1
 580 595 l 1
 580 133 l 2
 580 73 553 0 449 0 c 2
 120 0 l 1
 120 78 l 1
 190 78 l 1
 190 224 l 2xda80
 190 305 292 343 292 434 c 0
 292 463 277 524 213 524 c 0
 206 524 200 523 196 523 c 1
 225 509 243 471 243 437 c 0
 243 389 210 335 141 335 c 0
 78 335 29 377 29 446 c 0
 29 504 65 602 207 602 c 0
 345 602 387 507 387 447 c 0xed80
 387 347 308 301 308 230 c 2
 308 78 l 1
 410 78 l 2xea80
102 442 m 0
 102 422 114 403 139 403 c 0
 162 403 173 422 173 442 c 0xcc80
 173 461 162 481 138 481 c 0
 114 481 102 461 102 442 c 0
EndSplineSet
EndChar

StartChar: uni0E03
Encoding: 163 3587 131
Width: 669
Flags: W
HStem: 0 78<132 204 322 458.473> 275 68<80.1186 137.05> 421 68<98.397 137.832> 464 85<205.856 234.726> 524 78<103.186 188.344 258.382 337> 575 20G<463 581>
VStem: 6 70<345.651 418.063> 141 70<345.169 418.24> 204 118<78 293.274> 309 98<397.484 520.452> 463 118<85.1958 595>
LayerCount: 2
Back
SplineSet
409 78 m 2xcba0
 443.5 78 463 92 463 119 c 2
 463 595 l 1
 581 595 l 1
 581 120 l 2
 581 29 516 7.34351e-06 432 0 c 2
 132 0 l 1
 132 78 l 1
 204 78 l 1
 204 221 l 2xcba0
 204 298 309 373 309 448 c 0
 309 478 292 500 279 500 c 0xcb60
 253 500 222 458 221 458 c 1xd360
 219.5 461.5 185 520 137 520 c 0
 103 520 98 485 98 481 c 1
 98 481 103 483 113 483 c 0
 163 483 200 441 200 388 c 0
 200 334 163 289 107 289 c 0
 48 289 7 335 7 412 c 0
 7 485 45 596 136 596 c 0xe760
 186 596 224 543 225 543 c 1xd360
 230 541 264 596 307 596 c 0
 367 596 407 519 407 459 c 0xcb60
 407 336 322 315 322 215 c 2
 322 78 l 1
 409 78 l 2xcba0
141 389 m 0
 141 411 129 429 107 429 c 0xe320
 86 429 76 411 76 392 c 0
 76 372 87 352 109 351 c 0
 129 351 139 369 141 389 c 0
EndSplineSet
Fore
SplineSet
409 78 m 2xcaa0
 443.5 78 463 92 463 119 c 2
 463 595 l 1
 581 595 l 1
 581 120 l 2
 581 29 516 7.34351e-06 432 0 c 2
 132 0 l 1
 132 78 l 1
 204 78 l 1
 204 227 l 2xc6a0
 204 304 309 388 309 463 c 0
 309 493 292 524 279 524 c 0xca60
 253 524 222 464 221 464 c 1xd260
 219.5 467.5 185 524 137 524 c 0
 103 524 98 491 98 487 c 1
 98 487 103 489 113 489 c 0
 168 489 211 447 211 380 c 0
 211 320 168 275 107 275 c 0
 48 275 6 321 6 404 c 0
 6 491 45 602 136 602 c 0xeb60
 186 602 224 549 225 549 c 1xd360
 230 547 264 602 307 602 c 0
 367 602 407 525 407 465 c 0xcb60
 407 342 322 321 322 221 c 2
 322 78 l 1
 409 78 l 2xcaa0
141 381 m 0xe320
 141 403 129 421 107 421 c 0
 86 421 76 403 76 384 c 0
 76 364 87 344 109 343 c 0
 129 343 139 361 141 381 c 0xe320
EndSplineSet
EndChar

StartChar: uni0E04
Encoding: 164 3588 132
Width: 702
Flags: W
HStem: 0 21G<147 267 502 620> 205 68<317.375 385.103> 348 68<318.019 385.596> 524 78<253.62 448.92>
VStem: 65 118<241.994 453.468> 147 120<0 132.257> 389 70<276.473 344.763> 502 118<0 474.594>
LayerCount: 2
Back
SplineSet
70 358 m 0xfb
 70 550 226 598 355 598 c 0
 524 598 620 514 620 380 c 2
 620 0 l 1
 502 0 l 1
 502 374 l 2
 502 444 488 510 349 510 c 0
 200 510 178 425 178 368 c 0xfb
 178 293 210 173 213 169 c 1
 213 173 224 302 248 348 c 0
 268 386 293 412 354 414 c 0
 420 414 457 361 457 307 c 0
 457 245 414 207 356 207 c 0
 323 207 300 221 300 221 c 1
 300 221 267 96 267 0 c 1
 147 0 l 1
 147 21 l 2xf7
 147 143 70 229 70 358 c 0xfb
354 348 m 0
 328 348 316 329 316 310 c 0
 316 292 328 273 354 273 c 0
 378 273 391 292 391 310 c 0
 391 329 378 348 354 348 c 0
EndSplineSet
Fore
SplineSet
65 358 m 0xfb
 65 550 224 602 353 602 c 0
 522 602 620 518 620 384 c 2
 620 0 l 1
 502 0 l 1
 502 378 l 2
 502 448 490 524 351 524 c 0
 202 524 183 425 183 368 c 0xfb
 183 293 210 173 213 169 c 1
 213 173 224 302 248 348 c 0
 268 386 293 414 354 416 c 0
 420 416 459 361 459 307 c 0
 459 245 414 205 356 205 c 0
 323 205 300 221 300 221 c 1
 300 221 267 96 267 0 c 1
 147 0 l 1
 147 21 l 2xf7
 147 143 65 229 65 358 c 0xfb
352 348 m 0
 326 348 314 329 314 310 c 0
 314 292 326 273 352 273 c 0
 376 273 389 292 389 310 c 0
 389 329 376 348 352 348 c 0
EndSplineSet
EndChar

StartChar: uni0E05
Encoding: 165 3589 133
Width: 698
Flags: W
HStem: 0 21G<136 256 494 612> 182 68<309.581 376.234> 325 68<309.737 375.733> 502 100<207.668 243 437 475.463>
VStem: 55 118<244.006 461.545> 136 118<0 140.671> 380 70<253.117 320.816> 494 118<0 485.276>
LayerCount: 2
Back
SplineSet
136 25 m 2xf7
 136 161 60 223 60 358 c 0
 60 539 200 598 245 598 c 1
 339 541 l 1
 437 598 l 1
 488 598 612 561 612 406 c 2
 612 0 l 1
 494 0 l 1
 494 401 l 2
 494 474 468 499 430 499 c 1
 339 452 l 1
 243 498 l 1
 213 498 168 449 168 361 c 0xfb
 168 286 199 173 202 169 c 1
 202 173 216 284 235 320 c 0
 253 355 278 392 347 392 c 0
 385 392 447 371 447 288 c 0
 447 205 377 184 342 184 c 0
 313 184 290 195 290 195 c 1
 284 172 277 153 273 127 c 0
 265 78 258 48 254 0 c 1
 136 0 l 1
 136 25 l 2xf7
346 325 m 0
 322 325 309 306 309 288 c 0
 309 269 322 250 346 250 c 0
 370 250 383 269 383 288 c 0
 383 306 370 325 346 325 c 0
EndSplineSet
Fore
SplineSet
136 25 m 2xf7
 136 161 55 225 55 360 c 0
 55 541 200 602 245 602 c 1
 339 545 l 1
 437 602 l 1
 488 602 612 565 612 410 c 2
 612 0 l 1
 494 0 l 1
 494 405 l 2
 494 478 468 503 430 503 c 1
 339 456 l 1
 243 502 l 1
 213 502 173 451 173 363 c 0xfb
 173 288 199 173 202 169 c 1
 202 173 216 284 235 320 c 0
 253 355 278 393 347 393 c 0
 385 393 450 371 450 288 c 0
 450 205 377 182 342 182 c 0
 313 182 290 195 290 195 c 1
 284 172 277 153 273 127 c 0
 265 78 258 48 254 0 c 1
 136 0 l 1
 136 25 l 2xf7
343 325 m 0
 319 325 306 306 306 288 c 0
 306 269 319 250 343 250 c 0
 367 250 380 269 380 288 c 0
 380 306 367 325 343 325 c 0
EndSplineSet
EndChar

StartChar: uni0E06
Encoding: 166 3590 134
Width: 767
Flags: W
HStem: -5 135<534.318 606> -5 78<228.376 274.771> 203 78<233.483 276> 274 68<90.1153 146.885> 421 68<109.37 146.666> 524 78<113.758 198.341 268.378 348.5> 575 20G<561 679>
VStem: 16 70<345.022 418.964> 138 82<80.9852 194.541> 150 70<344.275 418.694> 276 118<75.358 155 281 418.558> 313 104<403.834 523.878> 561 118<130.002 595>
LayerCount: 2
Back
SplineSet
17 411 m 0xf358
 17 504 66 596 147 596 c 0xf358
 197 596 235 543 236 543 c 1xe958
 241 541 273 596 317 596 c 0
 380 596 417 512 417 470 c 0xe558
 417 436 394 394 394 348 c 2
 394 258 l 1
 397 256 428 244 466 213 c 0
 503 182 512 172 544 143 c 0
 561 127 563 127 563 139 c 2
 563 595 l 1
 679 595 l 1
 679 89 l 2
 679 16 623 -3 589 -3 c 0
 541 -3 513 34 468 83 c 0
 417 138 397 150 394 155 c 1
 394 98 l 2
 394 11 325 -5 271 -5 c 0
 206 -5 138 40 138 133 c 0
 138 250 233 281 276 281 c 1
 276 351 l 2xe5a8
 276 392 313 414 313 461 c 0
 313 482 303 500 290 500 c 0xe518
 264 500 231 458 230 458 c 1xe918
 226 464 196 520 148 520 c 0
 117 520 109 491 109 481 c 1
 109 481 114 483 123 483 c 0
 163 483 211 450 211 387 c 0
 211 333 173 289 117 289 c 0
 77 289 17 313 17 411 c 0xf358
220 130 m 0xe1a8
 220 105 229 76 268 76 c 0
 275 76 276 81 276 98 c 2
 276 198 l 1
 275 198 270 200 262 200 c 0
 228 200 220 154 220 130 c 0xe1a8
150 388 m 0xf148
 150 409 139 428 118 428 c 0
 97 428 86 409 86 390 c 0
 86 370 97 350 118 349 c 0
 139 349 150 368 150 388 c 0xf148
EndSplineSet
Fore
SplineSet
16 404 m 0x1d58
 16 510 66 602 147 602 c 0
 193 602 228 558 236 549 c 1
 244 557 281 602 317 602 c 0
 380 602 417 518 417 476 c 0x1d58
 417 442 394 394 394 348 c 2
 394 258 l 1
 397 256 428 244 466 213 c 0
 530 159 553 130 559 130 c 0
 561 130 561 133 561 139 c 2
 561 595 l 1
 679 595 l 1
 679 89 l 2
 679 16 623 -5 589 -5 c 0x8b28
 541 -5 513 34 468 83 c 0
 417 138 397 150 394 155 c 1
 394 98 l 2
 394 11 325 -5 271 -5 c 0
 206 -5 138 40 138 133 c 0
 138 250 233 281 276 281 c 1
 276 351 l 2x69a8
 276 392 313 429 313 476 c 0
 313 497 303 524 290 524 c 0
 264 524 235 470 230 464 c 1
 226 470 196 524 148 524 c 0
 117 524 109 497 109 487 c 1
 109 487 114 489 123 489 c 0
 168 489 220 456 220 380 c 0
 220 318 178 274 117 274 c 0
 77 274 16 298 16 404 c 0x1d58
220 130 m 0xa9a8
 220 105 229 73 268 73 c 0x49a8
 275 73 276 78 276 95 c 2
 276 201 l 1
 275 201 270 203 262 203 c 0
 228 203 220 154 220 130 c 0xa9a8
150 381 m 0x1948
 150 402 139 421 118 421 c 0
 97 421 86 402 86 383 c 0
 86 363 97 343 118 342 c 0
 139 342 150 361 150 381 c 0x1948
EndSplineSet
EndChar

StartChar: uni0E07
Encoding: 167 3591 135
Width: 510
Flags: MW
HStem: -5 78<222.194 293.454> 388 68<250.772 299.996> 534 68<250.374 319.565>
VStem: 176 70<460.038 529.854> 300 118<77.3402 389>
LayerCount: 2
Back
SplineSet
176 487 m 0xf8
 176 564 237 598 287 598 c 0
 406 598 418 504 418 460 c 2xf4
 418 152 l 2
 418 28 330 -3 263 -3 c 0
 212 -3 155 16 127 74 c 0
 104 123 103 167 75 212 c 0
 55 242 40 236 18 242 c 1
 18 345 l 1
 19 345 27 346 39 346 c 0
 63 346 104 341 132 307 c 0
 188 237 184 86 256 86 c 0
 295 86 300 113 300 146 c 2
 300 379 l 1
 300 379 296 378 289 378 c 0
 224 378 176 422 176 487 c 0xf8
325 488 m 0
 325 511 309 527 286 527 c 0
 263 527 246 511 246 488 c 0
 246 465 263 449 286 449 c 0
 309 449 325 465 325 488 c 0
EndSplineSet
Fore
SplineSet
176 494 m 0
 176 571 237 602 287 602 c 0
 406 602 418 511 418 467 c 2
 418 150 l 2
 418 26 330 -5 263 -5 c 0
 212 -5 155 14 127 72 c 0
 104 121 103 165 75 210 c 0
 55 240 40 234 18 240 c 1
 18 343 l 1
 19 343 27 344 39 344 c 0
 63 344 104 339 132 305 c 0
 188 235 195 73 256 73 c 0
 295 73 300 100 300 133 c 2
 300 389 l 1
 300 389 296 388 289 388 c 0
 224 388 176 429 176 494 c 0
325 495 m 0
 325 518 309 534 286 534 c 0
 263 534 246 518 246 495 c 0
 246 472 263 456 286 456 c 0
 309 456 325 472 325 495 c 0
EndSplineSet
EndChar

StartChar: uni0E08
Encoding: 168 3592 136
Width: 606
Flags: MW
HStem: -5 78<320.716 398.981> 192 68<150.225 189.723> 335 68<150.66 219.761> 524 78<161.796 357.086>
VStem: 77 70<263.945 330.687> 190 118<82.1801 192> 405 118<76.7125 477.076>
LayerCount: 2
Back
SplineSet
15 486 m 1
 22 518 96 598 267 598 c 0
 424 598 523 531 523 404 c 2
 523 170 l 2
 523 46 458 -3 357 -3 c 0
 274 -3 221 38 210 94 c 0
 202 130 201 166 201 185 c 2
 201 198 l 1
 199 198 195 197 190 197 c 0
 102 197 80 257 80 298 c 0
 80 362 127 404 190 404 c 0
 227 404 263 388 282 357 c 0
 311 311 302 228 308 175 c 0
 313 122 308 86 363 86 c 0
 395 86 405 102 405 139 c 2
 405 379 l 2
 405 476 356 510 261 510 c 0
 164 510 114 458 83 434 c 1
 15 486 l 1
221 299 m 0
 221 319 207 337 182 337 c 0
 157 337 144 318 144 299 c 0
 144 281 156 262 182 262 c 0
 208 262 221 281 221 299 c 0
EndSplineSet
Fore
SplineSet
15 490 m 1
 22 522 96 602 267 602 c 0
 424 602 523 535 523 408 c 2
 523 168 l 2
 523 44 458 -5 357 -5 c 0
 223 -5 190 96 190 170 c 2
 190 192 l 1
 102 192 77 255 77 296 c 0
 77 360 127 403 190 403 c 0
 262 403 308 350 308 296 c 2
 308 173 l 2
 308 120 308 73 363 73 c 0
 395 73 405 89 405 126 c 2
 405 393 l 2
 405 490 356 524 261 524 c 0
 164 524 114 472 83 448 c 1
 15 490 l 1
224 297 m 0
 224 317 210 335 185 335 c 0
 160 335 147 316 147 297 c 0
 147 279 159 260 185 260 c 0
 211 260 224 279 224 297 c 0
EndSplineSet
EndChar

StartChar: uni0E09
Encoding: 169 3593 137
Width: 711
Flags: MW
HStem: -5 116<214 312.562> -5 78<563.157 610.696> 177 68<127.562 158> 217 78<563 601.832> 317 68<126.716 184.533> 524 78<174.84 393.928>
VStem: 54 70<247.786 315.54> 158 118<111.002 177> 445 118<74.78 160 291.308 478.294> 618 75<76.5982 200.291>
AnchorPoint: "AboveBase" 560 613 basechar 0
LayerCount: 2
Back
SplineSet
693 145 m 0x9f60
 693 81 668 -3 569 -3 c 0x5f60
 530 -3 445 16 445 94 c 2
 445 162 l 1
 443 159 414 129 372 61 c 0
 340 12 310 -3 258 -3 c 0
 170 -3 159 50 159 74 c 2
 159 179 l 1xaf60
 96 179 58 225 58 281 c 0
 58 334 92 386 166 386 c 0
 233 386 276 336 276 276 c 2xaee0
 276 124 l 2
 276 116 276 113 285 113 c 0
 303 113 322 149 362 198 c 0
 409 258 440 271 445 274 c 1
 445 389 l 2
 445 483 375 506 290 506 c 0
 136 506 106 431 104 426 c 1
 25 475 l 1
 25 488 94 604 295 604 c 0
 453 604 563 542 563 417 c 2
 563 297 l 1
 628 288 693 261 693 145 c 0x9f60
563 219 m 1
 563 114 l 2
 563 90 566 86 584 86 c 0
 615 86 618 129 618 149 c 0
 618 202 579 219 563 219 c 1
185 289 m 0x2ee0
 185 313 167 319 154 319 c 0
 133 319 122 301 122 283 c 0
 122 265 133 247 155 247 c 0
 172 247 185 269 185 289 c 0x2ee0
EndSplineSet
Fore
SplineSet
693 143 m 0x9fc0
 693 79 668 -5 569 -5 c 0x5fc0
 530 -5 445 14 445 92 c 2
 445 160 l 1
 443 157 414 127 372 59 c 0
 340 10 310 -5 258 -5 c 0
 170 -5 158 48 158 72 c 2
 158 177 l 1xafc0
 95 177 54 223 54 279 c 0
 54 332 91 385 165 385 c 0
 232 385 276 334 276 274 c 2
 276 122 l 2
 276 114 276 111 285 111 c 0
 303 111 322 147 362 196 c 0
 409 256 440 269 445 272 c 1
 445 407 l 2
 445 501 375 524 290 524 c 0
 136 524 106 439 104 434 c 1
 25 473 l 1
 25 486 94 602 295 602 c 0
 453 602 563 540 563 415 c 2
 563 295 l 1
 628 286 693 259 693 143 c 0x9fc0
563 217 m 1
 563 101 l 2
 563 77 566 73 584 73 c 0
 615 73 618 117 618 142 c 0
 618 200 579 217 563 217 c 1
188 281 m 0
 188 299 178 317 156 317 c 0
 134 317 124 299 124 281 c 0
 124 263 135 245 157 245 c 0x2fc0
 179 245 188 263 188 281 c 0
EndSplineSet
EndChar

StartChar: uni0E0A
Encoding: 170 3594 138
Width: 656
Flags: W
HStem: 0 78<104 175 293 438.91> 341 68<91.0427 154.625> 524 78<183.561 252.389>
VStem: 17 70<412.003 483.811> 159 70<412.012 484.065> 175 118<78 286.673> 448 118<85.3369 394.55>
LayerCount: 2
Back
SplineSet
190 598 m 0xfa
 328 598 363 510 366 487 c 1
 373 491 535 577 582 670 c 1
 609 561 l 1
 609 552 513 479 458 468 c 1
 463 466 503 451 529 418 c 0
 561 380 566 346 566 300 c 2
 566 133 l 2
 566 76 540 0 434 0 c 2
 104 0 l 1
 104 78 l 1
 175 78 l 1
 175 225 l 2xf6
 175 303 276 346 276 436 c 0
 276 470 261 527 194 527 c 2
 181 527 l 1
 189 523 225 510 225 450 c 0
 225 396 188 345 122 345 c 0
 67 345 20 387 20 457 c 0
 20 508 51 598 190 598 c 0xfa
395 78 m 2
 423 78 448 89 448 135 c 2
 448 325 l 2
 448 351 445 372 428 391 c 0
 402 422 395 422 371 423 c 1
 369 425 l 1
 358 336 293 300 293 233 c 2
 293 78 l 1
 395 78 l 2
87 451 m 0
 87 431 99 412 124 412 c 0
 147 412 159 432 159 451 c 0xfa
 159 470 147 490 123 490 c 0
 100 490 87 470 87 451 c 0
EndSplineSet
Fore
SplineSet
190 602 m 0xfa
 328 602 363 510 366 487 c 1
 373 491 535 577 582 670 c 1
 609 561 l 1
 609 552 513 479 458 468 c 1
 521 443 566 396 566 300 c 2
 566 133 l 2
 566 76 540 0 434 0 c 2
 104 0 l 1
 104 78 l 1
 175 78 l 1
 175 225 l 2xf6
 175 303 276 346 276 436 c 0
 276 470 261 524 194 524 c 2
 181 524 l 1
 189 520 229 507 229 447 c 0
 229 393 188 341 122 341 c 0
 67 341 17 384 17 454 c 0
 17 505 51 602 190 602 c 0xfa
395 78 m 2
 423 78 448 89 448 135 c 2
 448 325 l 2
 448 384 418 421 371 423 c 1
 369 425 l 1
 358 336 293 300 293 233 c 2
 293 78 l 1
 395 78 l 2
87 448 m 0
 87 428 99 409 124 409 c 0
 147 409 159 429 159 448 c 0xfa
 159 467 147 487 123 487 c 0
 100 487 87 467 87 448 c 0
EndSplineSet
EndChar

StartChar: uni0E0B
Encoding: 171 3595 139
Width: 694
Flags: W
HStem: 0 78<147 219 337 481.91> 295 64<95.3538 154.801> 432 57<115.37 155.271> 524 78<118.812 205.646 273.276 350.5>
VStem: 21 71<361.796 428.495> 158 58<361.501 429.666> 219 118<78 340.488> 491 118<86.1964 391.189>
LayerCount: 2
Back
SplineSet
21 419 m 0xe7c0
 21 521 79 599 153 599 c 0xe7c0
 203 599 241 546 242 546 c 1xd3c0
 247 544 279 599 322 599 c 0
 379 599 402 535 408 484 c 1
 557 559 604 634 627 668 c 1
 651 558 l 1
 651 556 625 526 573 495 c 0
 544 477 506 466 501 464 c 1
 506 464 546 449 572 417 c 0
 604 379 609 345 609 297 c 2
 609 133 l 2
 609 78 583 0 477 0 c 2
 147 0 l 1
 147 78 l 1
 219 78 l 1
 219 276 l 2
 219 364 316 388 316 464 c 0
 316 480 309 503 295 503 c 0xcbc0
 268 503 238 461 236 461 c 1xd3c0
 232 469 202.5 522 154 522 c 0
 121 522 115 496 115 484 c 1
 115 484 120 486 129 486 c 0
 167 486 216 456 216 391 c 0
 216 336 180 292 125 292 c 0
 84 292 21 318 21 419 c 0xe7c0
439 78 m 2
 487 78 491 110 491 135 c 2
 491 323 l 2
 491 348 487 372 472 388 c 0
 447 417 430 423 401 423 c 1
 401 428 l 1
 376 369 337 350 337 291 c 2
 337 78 l 1
 439 78 l 2
158 392 m 0
 158 412 147 429 124 429 c 0
 103 429 92 411 92 394 c 0
 92 375 102.98 356 124 356 c 0
 146 356 158 371.9 158 392 c 0
EndSplineSet
Fore
SplineSet
21 422 m 0
 21 524 79 602 153 602 c 0
 201 602 235 556 242 549 c 1
 247 555 285 602 322 602 c 0
 379 602 402 535 408 484 c 1
 557 559 604 634 627 668 c 1
 651 558 l 1
 651 549 556 475 501 464 c 1
 564 439 609 393 609 297 c 2
 609 133 l 2
 609 78 583 0 477 0 c 2
 147 0 l 1
 147 78 l 1
 219 78 l 1
 219 276 l 2
 219 364 316 388 316 464 c 0
 316 480 309 524 295 524 c 0
 268 524 240 472 236 464 c 1
 232 472 202 524 154 524 c 0
 121 524 115 499 115 487 c 1
 115 487 120 489 129 489 c 0
 167 489 216 459 216 394 c 0
 216 339 180 295 125 295 c 0
 84 295 21 321 21 422 c 0
439 78 m 2
 487 78 491 110 491 135 c 2
 491 323 l 2
 491 395 447 423 401 423 c 1
 401 428 l 1
 376 369 337 350 337 291 c 2
 337 78 l 1
 439 78 l 2
158 395 m 0
 158 415 147 432 124 432 c 0
 103 432 92 414 92 397 c 0
 92 378 103 359 124 359 c 0
 146 359 158 375 158 395 c 0
EndSplineSet
EndChar

StartChar: uni0E0C
Encoding: 172 3596 140
Width: 882
Flags: MW
HStem: -5 68<196.856 257.571 435.065 494.137> 142 68<224.976 257.679> 524 78<233.151 408.17> 575 20G<676 794>
VStem: 106 118<210 351.062> 261 70<65.7776 138.957> 357 70<68.2146 161.046> 443 118<244 489.531> 502 70<68.2647 162.551> 676 118<157 595>
LayerCount: 2
Back
SplineSet
237 57 m 0x7720
 261 57 272 77 272 96 c 0
 272 116 261 136 237 136 c 0
 215 136 203 116 203 96 c 0
 203 77 215 57 237 57 c 0x7720
357 116 m 0
 357 227 443 236 443 236 c 1
 443 409 l 2
 443 486 411 518 322 518 c 0
 248 518 207 483 207 483 c 1
 210 481 229 471 261 448 c 0
 289 426 312 402 312 402 c 1
 309 402 279 389 250 356 c 0
 227 326 224 291 224 276 c 2
 224 202 l 1
 244 202 331 199 331 99 c 0
 331 22 269 -2 224 -2 c 0x7ba0
 152 -2 106 46 106 130 c 2x7720
 106 276 l 2
 106 287 109 330 129 357 c 0
 152 386 179 397 179 397 c 1
 137 442 53 477 46 478 c 1
 70 512 159 599 328 599 c 0
 503 599 561 505 561 411 c 2
 561 244 l 1
 578 244 650 216 676 159 c 1
 676 595 l 1
 794 595 l 1
 794 72 l 2
 794 8 744 -3 720 -3 c 0
 658 -3 672 52 619 126 c 0
 593 166 564 173 561 175 c 1x7ba0
 563 173 572 149 572 116 c 0
 572 67 550 -5 464 -5 c 0xb360
 409 -5 357 43 357 116 c 0
464 69 m 0xb360
 490 69 502 94 502 119 c 0
 502 143 490 166 466 166 c 0
 441 166 427 140 427 115 c 0
 427 91 439 69 464 69 c 0xb360
EndSplineSet
Fore
SplineSet
226 63 m 0xce40
 250 63 261 83 261 102 c 0
 261 122 250 142 226 142 c 0
 204 142 192 122 192 102 c 0
 192 83 204 63 226 63 c 0xce40
357 116 m 0
 357 227 443 236 443 236 c 1
 443 412 l 2
 443 489 411 524 322 524 c 0
 248 524 207 486 207 486 c 1
 259 458 292 425 312 405 c 1
 292 395 224 364 224 279 c 2
 224 210 l 1
 244 210 331 205 331 105 c 0
 331 28 269 -5 224 -5 c 0
 152 -5 106 43 106 127 c 2
 106 279 l 2
 106 371 165 392 179 400 c 1
 137 445 53 480 46 481 c 1
 70 515 159 602 328 602 c 0xef40
 503 602 561 508 561 414 c 2
 561 244 l 1
 578 244 650 214 676 157 c 1
 676 595 l 1
 794 595 l 1
 794 70 l 2
 794 6 744 -5 720 -5 c 0
 658 -5 672 52 619 126 c 0
 591 165 564 173 561 175 c 1xdf40
 563 173 572 149 572 116 c 0xdec0
 572 67 550 -5 464 -5 c 0
 409 -5 357 43 357 116 c 0
464 63 m 0
 490 63 502 91 502 116 c 0xcec0
 502 140 490 166 466 166 c 0
 441 166 427 141 427 116 c 0
 427 92 439 63 464 63 c 0
EndSplineSet
EndChar

StartChar: uni0E0D
Encoding: 173 3597 141
Width: 882
Flags: MW
HStem: -288 62<519.165 629.22> -124 57<437.037 502.451> -5 68<202.991 263.022> 0 78<407 446 564 676.746> 142 68<227.045 263.201> 524 78<235.677 405.714> 575 20G<679 797>
VStem: 109 118<210 353.37> 267 70<65.7776 138.814> 372 62<-191.31 -127.261> 446 118<78 483.031> 505 53<-191.572 -126.751> 679 118<82.2486 595> 682 107<-171.721 -73>
LayerCount: 2
Back
SplineSet
639 78 m 2xdee0
 671 78 679 98 679 112 c 2
 679 595 l 1
 797 595 l 1
 797 130 l 2
 797 58 756 0 699 0 c 2
 407 0 l 1
 407 78 l 1
 446 78 l 1xdee8
 446 399 l 2
 446 475 414 518 327 518 c 0
 252 518 209 483 209 483 c 1
 212 481 230 471 263 448 c 0
 290 426 313 402 313 402 c 1
 310 402 281 389 252 356 c 0
 229 326 227 291 227 276 c 2
 227 202 l 1
 246.14 202 332 198 332 99 c 0
 332 22 270 -2 227 -2 c 0xeee8
 154 -2 109 46 109 130 c 2xedc0
 109 276 l 2
 109 287 112 330 132 357 c 0
 155 386 183 397 183 397 c 1
 141 441 54 480 49 481 c 1
 69 509 162 599 330 599 c 0
 506 599 564 505 564 411 c 2
 564 78 l 1
 639 78 l 2xdee0
243 136 m 0
 221 136 210 116 210 96 c 0
 210 76 221 57 243 57 c 0xedc0
 267 57 278 77 278 96 c 0
 278 116 267 136 243 136 c 0
558 -157 m 0xccd4
 558 -209 525 -224 518 -224 c 1
 519 -224 530 -226 548 -226 c 0
 580 -226 636.034 -222.024 670 -161 c 0
 686.779 -130.855 684 -99.5449 684 -74 c 1
 789 -72 l 1
 789 -72 792 -156 740 -215 c 0
 713 -246 663 -288 548 -288 c 0
 442 -288 372 -238 372 -163 c 0
 372 -125 391 -67 471 -67 c 0
 527 -67 558 -111 558 -157 c 0xccd4
434 -159 m 0
 434 -178 446 -195 469 -195 c 0
 492 -195 505 -176 505 -158 c 0
 505 -141 494 -124 471 -124 c 0
 446 -124 434 -141 434 -159 c 0
EndSplineSet
Fore
SplineSet
639 78 m 2xdde8
 671 78 679 98 679 112 c 2
 679 595 l 1
 797 595 l 1
 797 130 l 2
 797 58 756 0 699 0 c 2
 407 0 l 1
 407 78 l 1
 446 78 l 1xdbe8
 446 402 l 2
 446 478 414 524 327 524 c 0
 252 524 209 486 209 486 c 1
 261 458 293 425 313 405 c 1
 293 395 227 364 227 279 c 2
 227 210 l 1
 246 210 337 204 337 105 c 0
 337 28 270 -5 227 -5 c 0xede8
 154 -5 109 43 109 127 c 2
 109 279 l 2
 109 371 169 392 183 400 c 1
 141 444 54 483 49 484 c 1
 69 512 162 602 330 602 c 0
 506 602 564 508 564 414 c 2
 564 78 l 1
 639 78 l 2xdde8
232 142 m 0
 210 142 199 122 199 102 c 0
 199 82 210 63 232 63 c 0xe9c0
 256 63 267 83 267 102 c 0
 267 122 256 142 232 142 c 0
789 -73 m 1xc9d4
 789 -163 744 -288 548 -288 c 0
 442 -288 372 -238 372 -163 c 0
 372 -125 391 -67 471 -67 c 0
 527 -67 558 -111 558 -157 c 0
 558 -209 525 -224 518 -224 c 1
 519 -224 530 -226 548 -226 c 0
 666 -226 682 -141 682 -73 c 1
 789 -73 l 1xc9d4
434 -159 m 0
 434 -178 446 -195 469 -195 c 0
 492 -195 505 -176 505 -158 c 0
 505 -141 494 -124 471 -124 c 0
 446 -124 434 -141 434 -159 c 0
EndSplineSet
Substitution2: "Thai Descender Removal Single Substitution" uni0E0D.descless
EndChar

StartChar: uni0E0E
Encoding: 174 3598 142
Width: 680
Flags: MW
HStem: -306 68<132.219 218.045> -147 68<141.474 240.866> -5 68<113.39 171.505> 137 68<114.596 135> 524 78<266.328 439.597>
VStem: 41 70<65.4146 134.498> 56 70<-230.749 -161.77> 135 118<205 350.37> 475 118<-165.637 489.236>
AnchorPoint: "BelowBase" 593 -309 basechar 0
LayerCount: 2
Back
SplineSet
356 -35 m 1xfac0
 351 -97 337 -124 337 -124 c 1
 380 -148 422 -190 422 -190 c 1
 464 -167 474 -136 475 -133 c 1
 475 409 l 2
 475 487 444 520 356 520 c 0
 276 520 235 483 235 483 c 1
 238 481 258 471 288 448 c 0
 316 426 339 402 339 402 c 1
 336 402 307 389 277 356 c 0
 254 326 253 291 253 276 c 2xfb40
 253 112 l 2xf8c0
 253 48 219 -3 149 -3 c 0
 87 -3 43 37 43 95 c 0
 43 154 78 198 135 198 c 1
 135 276 l 2xfd40
 135 370 210 397 210 397 c 1
 162 445 82 477 75 478 c 1
 95 506 187 601 356 601 c 0
 536 601 593 506 593 411 c 2
 593 -133 l 1
 562 -235 422 -316 422 -316 c 1
 378 -261 318 -210 314 -210 c 1
 314 -220 276 -313 174 -313 c 0
 94 -313 52 -251 52 -194 c 0
 52 -154 78 -77 181 -77 c 0
 223 -77 259 -90 259 -90 c 1
 270 -35 l 1
 356 -35 l 1xfac0
192 -147 m 0
 146 -147 131 -183 131 -199 c 0
 131 -221 149 -238 176 -238 c 0
 232 -238 242 -162 241 -159 c 1
 239 -157 217 -147 192 -147 c 0
143 135 m 0
 121 135 110 116 110 97 c 0
 110 79 121 61 143 61 c 0
 164 61 174 80 174 98 c 0xfcc0
 174 116 164 135 143 135 c 0
EndSplineSet
Fore
SplineSet
356 -35 m 1xfb80
 351 -97 337 -124 337 -124 c 1
 380 -148 422 -190 422 -190 c 1
 464 -167 474 -136 475 -133 c 1
 475 409 l 2
 475 487 444 524 356 524 c 0
 276 524 235 483 235 483 c 1
 287 455 319 422 339 402 c 1
 319 392 253 361 253 276 c 2
 253 110 l 2
 253 46 219 -5 149 -5 c 0
 87 -5 41 39 41 97 c 0xfd80
 41 156 78 205 135 205 c 1
 135 276 l 2
 135 368 196 389 210 397 c 1
 162 445 82 477 75 478 c 1
 95 506 187 602 356 602 c 0
 536 602 593 506 593 411 c 2
 593 -133 l 1
 562 -235 422 -316 422 -316 c 1
 378 -261 318 -210 314 -210 c 1
 314 -220 276 -306 174 -306 c 0
 94 -306 56 -251 56 -194 c 0
 56 -154 78 -79 181 -79 c 0
 223 -79 259 -90 259 -90 c 1
 270 -35 l 1
 356 -35 l 1xfb80
192 -147 m 0
 146 -147 126 -183 126 -199 c 0xfb80
 126 -221 149 -238 176 -238 c 0
 232 -238 242 -162 241 -159 c 1
 239 -157 217 -147 192 -147 c 0
144 137 m 0
 122 137 111 118 111 99 c 0xfd80
 111 81 122 63 144 63 c 0
 165 63 175 82 175 100 c 0
 175 118 165 137 144 137 c 0
EndSplineSet
EndChar

StartChar: uni0E0F
Encoding: 175 3599 143
Width: 689
Flags: W
HStem: -301 68<104.386 159.158> -142 68<107.423 166.762> -5 68<122.267 181.452> 137 68<122.596 143> 524 78<271.886 447.573>
VStem: 31 70<-232.237 -146.714> 49 70<66.2086 134.164> 143 118<205 350.37> 181 82<-85.4741 -35 65.0312 136.376> 483 118<-168.073 489.828>
AnchorPoint: "BelowBase" 602 -309 basechar 0
LayerCount: 2
Back
SplineSet
218 397 m 1xfb40
 172 443 90 476 83 478 c 1
 103 506 204 599 363 599 c 0
 544 599 601 507 601 412 c 2
 601 -133 l 1
 574 -245 457 -311 452 -311 c 1
 368 -193 l 1
 297 -307 l 1
 231 -219 l 1
 231 -222 207 -305 133 -305 c 0
 75 -305 33 -252 33 -187 c 0
 33 -147 51 -74 125 -74 c 0
 155 -74 180 -86 181 -86 c 1
 181 -35 l 1
 262 -35 l 1
 262 -36 263 -46 263 -59 c 0xfcc0
 263 -66 258 -124 258 -124 c 1
 291 -175 l 1
 363 -66 l 1
 449 -178 l 1
 461 -173 479 -152 483 -133 c 1
 483 409 l 2
 483 491 450 521 360 521 c 0
 283 521 242 483 242 483 c 1
 245 481 265 471 296 448 c 0
 323 426 346 402 346 402 c 1
 343 402 314 389 285 356 c 0
 262 326 261 291 261 276 c 2
 261 112 l 2
 261 48 225 -3 156 -3 c 0
 93 -3 52 37 52 97 c 0
 52 199 143 198 143 198 c 1
 143 276 l 2
 143 370 218 397 218 397 c 1xfb40
129 -233 m 0
 162 -233 167 -195 167 -162 c 1
 165 -159 154 -142 137 -142 c 0
 124 -142 98 -153 98 -189 c 0
 98 -211 109 -233 129 -233 c 0
152 132 m 0
 130 132 118 114 118 95 c 0xfa40
 118 76 130 58 152 58 c 0
 174 58 184 76 184 95 c 0
 184 114 174 132 152 132 c 0
EndSplineSet
Fore
SplineSet
218 397 m 1xfb40
 172 443 90 476 83 478 c 1
 103 506 204 602 363 602 c 0
 544 602 601 507 601 412 c 2
 601 -133 l 1
 574 -245 457 -311 452 -311 c 1
 368 -193 l 1
 297 -307 l 1
 231 -219 l 1
 231 -222 207 -301 133 -301 c 0
 75 -301 31 -252 31 -187 c 0
 31 -147 51 -74 125 -74 c 0
 155 -74 180 -86 181 -86 c 1
 181 -35 l 1
 262 -35 l 1
 262 -36 263 -46 263 -59 c 0xfcc0
 263 -66 258 -124 258 -124 c 1
 291 -175 l 1
 363 -66 l 1
 449 -178 l 1
 461 -173 479 -152 483 -133 c 1
 483 409 l 2
 483 491 450 524 360 524 c 0
 283 524 242 483 242 483 c 1
 294 455 326 422 346 402 c 1
 326 392 261 361 261 276 c 2
 261 110 l 2
 261 46 225 -5 156 -5 c 0
 93 -5 49 42 49 102 c 0
 49 161 86 205 143 205 c 1
 143 276 l 2
 143 368 204 389 218 397 c 1xfb40
129 -233 m 0
 162 -233 167 -195 167 -162 c 1
 165 -159 154 -142 137 -142 c 0
 124 -142 101 -153 101 -189 c 0
 101 -211 109 -233 129 -233 c 0
153 137 m 0
 131 137 119 119 119 100 c 0xfa40
 119 81 131 63 153 63 c 0
 175 63 185 81 185 100 c 0
 185 119 175 137 153 137 c 0
EndSplineSet
EndChar

StartChar: uni0E10
Encoding: 176 3600 144
Width: 613
Flags: MW
HStem: -343 68<67.3067 125.858 345.169 433.865> -236 57<410.234 438> -188 68<67.5598 131.631> -111 57<410.792 473.568> -5 78<314.348 398.981> 163 68<150.225 189.723> 306 68<150.66 219.761> 441 50<195 217.168> 494 78<366.626 561.082> 526 78<207.334 406.784>
VStem: 1 62<-272.421 -189.835> 77 70<234.945 301.687> 179 79<-140.09 -60> 190 118<77.4541 163> 348 60<-175.633 -113.568> 405 118<79.665 347.205> 477 64<-177.038 -113.066>
LayerCount: 2
Back
SplineSet
484 572 m 4x0fdf
 543 572 555 598 555 598 c 5
 590 532 l 5
 587 530 558 497 489 497 c 4x0fdf
 403 497 362 534 287 534 c 4
 214 534 201 502 195 495 c 5
 199 495 270 495 363 466 c 4
 458 435 503 402 524 353 c 4
 534 332 536 317 536 302 c 4
 536 292 535 283 535 273 c 2
 526 133 l 2
 519 17 428 -3 360 -3 c 0
 286.5 -3 217.059 19.4062 208 110 c 2
 202 170 l 1
 195 169 187 168 180 168 c 0
 128 168 77 203 77 266 c 0
 77 325 118 373 185 373 c 0
 285 373 306 303 310 247 c 2
 317 115 l 2
 319 89 325 72 363 72 c 0
 397 72 411 78 412 104 c 2
 422 268 l 2
 423 274 423 280 423 286 c 4
 423 309 417 329 399 351 c 4
 371 382 300 409 218 423 c 4
 132 438 67 445 66 445 c 5
 66 476 110 604 278 604 c 4x0fbf
 368 604 422 572 484 572 c 4x0fdf
181 305 m 0
 157 305 145 287 145 269 c 0
 145 251 157 233 181 233 c 0
 206 233 218 251 218 269 c 0
 218 287 206 305 181 305 c 0
438 -236 m 1x6f9e80
 418 -236 348 -220 348 -147 c 0
 348 -98 381 -54 439 -54 c 0
 528 -54 541 -115 541 -176 c 2
 541 -213 l 2
 541 -227 537 -276 514 -302 c 0
 487 -332 452 -343 412 -343 c 0
 330 -343 293 -284 293 -284 c 1
 238 -343 l 1x6f9e80
 192 -271 l 1
 192 -271 158 -349 97 -349 c 0
 37 -349 1 -291 1 -235 c 0
 1 -197 20 -120 97 -120 c 0x9f9e80
 136 -120 164 -141 164 -141 c 1
 164 -139 172 -127 175 -104 c 0
 178 -77 179 -61 179 -60 c 1
 258 -60 l 1
 258 -61 256 -98 247 -133 c 0
 239 -172 227 -192 227 -193 c 1
 255 -238 l 1
 297 -196 l 1
 297 -196 341 -270 397 -270 c 0
 438 -270 438 -236 438 -236 c 1x6f9e80
94 -185 m 0x9f9e
 73 -185 63 -212 63 -232 c 0
 63 -256 75 -277 94 -277 c 0
 129 -277 138 -219 138 -213 c 1
 138 -213 115 -185 94 -185 c 0x9f9e
443 -110 m 0
 420 -110 408 -127 408 -144 c 0
 408 -161 420 -178 443 -178 c 0
 466 -178 477 -161 477 -144 c 0x2f9e80
 477 -127 466 -110 443 -110 c 0
EndSplineSet
Fore
SplineSet
452 425 m 0x9f75
 488 400 523 351 523 302 c 2
 523 139 l 2
 523 15 458 -5 357 -5 c 0
 223 -5 190 67 190 141 c 2
 190 163 l 1
 102 163 77 226 77 267 c 0
 77 331 127 374 190 374 c 0
 262 374 308 321 308 267 c 2
 308 144 l 2
 308 91 308 73 363 73 c 0
 395 73 405 89 405 126 c 2
 405 286 l 2
 405 309 399 329 381 351 c 0
 353 382 300 405 218 419 c 0
 132 434 67 441 66 441 c 1
 66 472 110 604 278 604 c 0x9f75
 368 604 422 572 484 572 c 0
 543 572 555 598 555 598 c 1
 590 532 l 1
 587 530 558 494 489 494 c 0x9fb5
 403 494 362 526 287 526 c 0
 214 526 201 498 195 491 c 1
 197 491 211 491 235 489 c 0
 335 479 416 449 452 425 c 0x9f75
224 268 m 0
 224 288 210 306 185 306 c 0
 160 306 147 287 147 268 c 0
 147 250 159 231 185 231 c 0
 211 231 224 250 224 268 c 0
438 -236 m 1xdf3a80
 418 -236 348 -220 348 -147 c 0
 348 -98 381 -54 439 -54 c 0
 528 -54 541 -115 541 -176 c 2
 541 -213 l 2
 541 -227 537 -276 514 -302 c 0
 487 -332 452 -343 412 -343 c 0
 330 -343 293 -284 293 -284 c 1
 238 -343 l 1
 192 -271 l 1
 192 -271 158 -343 97 -343 c 0
 37 -343 1 -289 1 -233 c 0
 1 -195 20 -120 97 -120 c 0xbf3a80
 136 -120 164 -141 164 -141 c 1
 164 -139 172 -127 175 -104 c 0
 178 -77 179 -61 179 -60 c 1
 258 -60 l 1
 258 -61 256 -98 247 -133 c 0
 239 -172 227 -192 227 -193 c 1
 255 -238 l 1
 297 -196 l 1
 297 -196 341 -275 397 -275 c 0
 438 -275 438 -236 438 -236 c 1xdf3a80
94 -188 m 0
 73 -188 63 -213 63 -233 c 0
 63 -257 75 -275 94 -275 c 0
 129 -275 138 -222 138 -216 c 1
 138 -216 115 -188 94 -188 c 0
443 -111 m 0
 420 -111 408 -128 408 -145 c 0
 408 -162 420 -179 443 -179 c 0xdf3280
 466 -179 477 -162 477 -145 c 0
 477 -128 466 -111 443 -111 c 0
EndSplineSet
Substitution2: "Thai Descender Removal Single Substitution" uni0E10.descless
EndChar

StartChar: uni0E11
Encoding: 177 3601 145
Width: 832
Flags: W
HStem: 0 21G<269 391 628 746> 257 68<98.209 156.505> 401 68<112.203 156.35> 502 100<562.47 665.879> 526 76<121.443 190.781 263.746 339.328>
VStem: 23 72<328.399 448.058> 159 70<326.95 399.11> 269 118<0 100.794 287 419.625> 312 100<419.695 525.514> 628 118<0 497.995>
LayerCount: 2
Back
SplineSet
625 598 m 0xf3a0
 707 598 746 529 746 468 c 2
 746 0 l 1
 628 0 l 1
 628 416 l 2
 628 450 620 467 594 467 c 0
 550 467 497 347 449 231 c 0
 411 136 391 6 391 0 c 1
 269 0 l 1
 269 317 l 2xf3a0
 269 399 312 427 312 474 c 0
 312 495 298 500 288 500 c 0xeb60
 262 500 227 451 225 451 c 1
 221 465 186 513 152 513 c 0
 124 513 112 488 112 461 c 1
 112 461 119 463 131 463 c 0
 182 463 217 424 217 370 c 0
 217 334 199 270 127 270 c 0
 87 270 23 291 23 405 c 0
 23 515 82 596 150 596 c 0xe760
 202 596 230 540 231 540 c 1
 237 538 265 596 316 596 c 0
 369 596 412 544 412 489 c 0xeb60
 412 442 387 411 387 372 c 2
 387 287 l 1
 387 294 423 399 464 469 c 0
 513 551 565 598 625 598 c 0xf3a0
159 368 m 0
 159 388 149 406 127 406 c 0
 106 406 95 387 95 368 c 0
 95 350 106 330 127 330 c 0
 147 330 159 346 159 368 c 0
EndSplineSet
Fore
SplineSet
625 602 m 0xf740
 707 602 746 533 746 472 c 2
 746 0 l 1
 628 0 l 1
 628 451 l 2
 628 485 620 502 594 502 c 0
 550 502 497 357 449 241 c 0
 411 146 391 6 391 0 c 1
 269 0 l 1
 269 323 l 2xf740
 269 405 312 443 312 490 c 0
 312 511 298 526 288 526 c 0
 262 526 227 457 225 457 c 1
 221 471 186 524 152 524 c 0
 124 524 112 494 112 467 c 1
 112 467 119 469 131 469 c 0
 187 469 229 430 229 365 c 0
 229 321 204 257 127 257 c 0
 87 257 23 278 23 400 c 0
 23 521 82 602 150 602 c 0
 196 602 225 556 231 546 c 1
 238 555 272 602 316 602 c 0
 369 602 412 550 412 495 c 0xeec0
 412 448 387 417 387 378 c 2
 387 287 l 1
 387 294 423 399 464 469 c 0
 513 551 565 602 625 602 c 0xf740
159 363 m 0
 159 383 149 401 127 401 c 0
 106 401 95 382 95 363 c 0
 95 345 106 325 127 325 c 0
 147 325 159 341 159 363 c 0
EndSplineSet
EndChar

StartChar: uni0E12
Encoding: 178 3602 146
Width: 924
Flags: W
HStem: -5 72<492.294 561.554> 177 78<614 655.854> 342 68<291.362 351.046> 502 100<215.027 244.275 428 469.817> 575 20G<715 833>
VStem: 56 118<245.105 455.596> 218 70<268.043 339.291> 354 70<266.343 340.264> 418 70<71.8237 156.701> 490 118<255 480.366> 566 70<71.0184 157.214> 715 118<195 595> 727 106<9.44557 79.5384>
LayerCount: 2
Back
SplineSet
608 254 m 1xfe80
 627 254 684 241 715 195 c 1
 715 595 l 1
 833 595 l 1xfea0
 833 91 l 2
 833 38 829 0 778 0 c 2
 727 0 l 1
 727 2 717 71 684 123 c 0
 650 175 615 176 614 176 c 1
 616 170 636 143 636 104 c 0
 636 66 614 -6 529 -6 c 0
 465 -6 418 35 418 116 c 0xff50
 418 211 489 230 490 230 c 1
 490 389 l 2
 490 417 490 446 477 472 c 0
 461 500 442 504 428 504 c 1
 336 455 l 1
 251 504 l 1
 232 502 171 473 171 355 c 0
 171 311 180 266 193 231 c 0
 224 155 227 112 227 112 c 1
 279 215 l 1
 279 215 224 225 224 307 c 0
 224 374 274 408 321 408 c 0
 375 408 417 371 417 311 c 0
 417 284 408 253 392 224 c 2
 392 224 277 7 277 0 c 1
 133 0 l 1
 133 121 59 256 59 366 c 0
 59 506 151 591 230 598 c 1
 334 547 l 1
 425 598 l 1
 472 598 608 559 608 405 c 2
 608 254 l 1xfe80
354 303 m 0
 354 328 342 342 322 342 c 0
 299 342 288 323 288 304 c 0
 288 285 300 265 325 265 c 0
 343 265 354 279 354 303 c 0
527 162 m 0
 513 162 492 149 492 107 c 0
 492 82 505 66 529 66 c 0
 549 66 563 82 563 107 c 0xff40
 563 138 549 162 527 162 c 0
EndSplineSet
Fore
SplineSet
608 255 m 1xf740
 627 255 684 241 715 195 c 1
 715 595 l 1
 833 595 l 1xef50
 833 91 l 2
 833 38 829 0 778 0 c 2
 727 0 l 1
 727 2 717 71 684 123 c 0
 650 175 615 177 614 177 c 1
 616 171 636 144 636 105 c 0
 636 67 614 -5 529 -5 c 0
 465 -5 418 36 418 117 c 0xeea8
 418 212 489 231 490 231 c 1
 490 389 l 2
 490 456 476 502 428 502 c 1
 336 453 l 1
 251 502 l 1
 232 500 174 473 174 355 c 0
 174 260 210 210 227 112 c 1
 279 215 l 1
 279 215 218 225 218 307 c 0
 218 374 274 410 321 410 c 0
 375 410 424 371 424 311 c 0
 424 284 408 253 392 224 c 2
 392 224 277 7 277 0 c 1
 133 0 l 1
 133 121 56 256 56 366 c 0
 56 506 151 595 230 602 c 1
 334 551 l 1
 425 602 l 1
 472 602 608 559 608 405 c 2
 608 255 l 1xf740
354 303 m 0
 354 328 342 342 322 342 c 0
 299 342 288 323 288 304 c 0
 288 285 300 265 325 265 c 0
 343 265 354 279 354 303 c 0
527 163 m 0
 513 163 488 150 488 108 c 0
 488 83 505 67 529 67 c 0
 549 67 566 83 566 108 c 0xe6a0
 566 139 549 163 527 163 c 0
EndSplineSet
EndChar

StartChar: uni0E13
Encoding: 179 3603 147
Width: 958
Flags: MW
HStem: -5 78<756.219 857.865> -5 68<194.254 254.807> 142 68<224 254.114> 233 78<794 843.294> 524 78<236.38 402.037> 575 20G<676 794>
VStem: 106 118<210 354.768> 259 70<66.1956 139.156> 443 118<172 484.192> 676 118<76.6921 175 311 595> 868 75<80.9539 208.234>
AnchorPoint: "AboveBase" 791 613 basechar 0
LayerCount: 2
Back
SplineSet
561 172 m 1x7de0
 593 234 668 280 676 287 c 1
 676 595 l 1
 794 595 l 1
 794 311 l 1
 849 311 943 271 943 148 c 0
 943 85 914 -6 797 -6 c 0xbde0
 716 -6 679 40 679 106 c 2
 679 175 l 1
 624 148 580 20 569 0 c 1
 443 0 l 1
 443 403 l 2
 443 480 411 520 322 520 c 0
 248 520 205 483 205 483 c 1
 208 481 227 471 259 448 c 0
 287 426 313 397 313 397 c 1
 278 397 224 371 224 276 c 2
 224 202 l 1
 237 202 329 199 329 99 c 0
 329 23 267 -2 224 -2 c 0x7de0
 150 -2 106 46 106 130 c 2x7be0
 106 276 l 2
 106 287 109 330 129 357 c 0
 152 386 179 397 179 397 c 1
 137 442 53 477 46 478 c 1
 66 506 152 598 317 598 c 0
 498 598 561 507 561 411 c 2
 561 172 l 1x7de0
824 71 m 0
 859 71 868 111 868 140 c 0
 868 194 837 230 794 230 c 1
 794 109 l 2
 794 83 808 71 824 71 c 0
235 139 m 0
 213 139 202 119 202 99 c 0
 202 79 213 60 235 60 c 0x7be0
 258 60 270 80 270 100 c 0
 270 119 258 139 235 139 c 0
EndSplineSet
Fore
SplineSet
561 172 m 1x7be0
 593 234 668 280 676 287 c 1
 676 595 l 1
 794 595 l 1
 794 311 l 1
 849 311 943 271 943 148 c 0
 943 85 914 -5 797 -5 c 0xb7e0
 716 -5 676 40 676 106 c 2
 676 175 l 1
 621 148 580 20 569 0 c 1
 443 0 l 1
 443 403 l 2
 443 480 411 524 322 524 c 0
 248 524 205 483 205 483 c 1
 257 455 293 417 313 397 c 1
 268 390 224 366 224 281 c 2
 224 210 l 1
 237 210 329 202 329 102 c 0
 329 26 267 -5 224 -5 c 0
 150 -5 106 43 106 127 c 2
 106 276 l 2
 106 368 165 389 179 397 c 1
 137 442 53 477 46 478 c 1
 66 506 152 602 317 602 c 0
 498 602 561 507 561 411 c 2
 561 172 l 1x7be0
824 73 m 0
 859 73 868 113 868 142 c 0
 868 196 837 233 794 233 c 1
 794 111 l 2
 794 85 808 73 824 73 c 0
224 142 m 0
 202 142 191 122 191 102 c 0
 191 82 202 63 224 63 c 0x73e0
 247 63 259 83 259 103 c 0
 259 122 247 142 224 142 c 0
EndSplineSet
EndChar

StartChar: uni0E14
Encoding: 180 3604 148
Width: 702
Flags: W
HStem: 0 21G<134 283.274 499 617> 362 68<299.257 370.932> 524 78<246.086 440.913>
VStem: 60 118<259.036 456.926> 225 70<286.411 357.229> 375 70<287.539 357.283> 499 118<0 467.99>
LayerCount: 2
Back
SplineSet
63 357 m 0
 63 516 172 605 343 605 c 0
 515 605 617 521 617 389 c 2
 617 0 l 1
 499 0 l 1
 499 383 l 2
 499 464 457 512 345 512 c 0
 224 512 175 455 175 358 c 0
 175 308 190 290 207 228 c 0
 222 173 228 123 228 121 c 1
 230 123 293 216 299 225 c 1
 297 225 227 250 227 324 c 0
 227 400 287 430 334 430 c 0
 379 430 445 407 445 320 c 0
 445 240 407 203 345 113 c 0
 294 40 270 2 270 0 c 1
 144 0 l 1
 124 205 63 250 63 357 c 0
294 322 m 0
 294 302 307 282 333 282 c 0
 360 282 374 303 374 323 c 0
 374 343 361 362 334 362 c 0
 308 362 294 342 294 322 c 0
EndSplineSet
Fore
SplineSet
60 357 m 0
 60 516 172 602 343 602 c 0
 515 602 617 521 617 389 c 2
 617 0 l 1
 499 0 l 1
 499 389 l 2
 499 470 457 524 345 524 c 0
 224 524 178 461 178 364 c 0
 178 305 228 189 228 121 c 1
 228 121 293 216 299 225 c 1
 297 225 225 250 225 324 c 0
 225 400 287 430 334 430 c 0
 379 430 445 407 445 320 c 0
 445 240 405 204 345 113 c 2
 270 0 l 1
 144 0 l 1
 124 205 60 250 60 357 c 0
295 322 m 0
 295 302 308 282 334 282 c 0
 361 282 375 303 375 323 c 0
 375 343 362 362 335 362 c 0
 309 362 295 342 295 322 c 0
EndSplineSet
EndChar

StartChar: uni0E15
Encoding: 181 3605 149
Width: 717
Flags: W
HStem: 0 21G<152 311 517 635> 364 68<304.878 373.533> 502 100<455 494.584>
VStem: 63 118<248.375 449.986> 229 70<286.018 359.685> 379 70<285.262 359.391> 517 118<0 479.5>
DStem2: 279 164 302 0 0.436509 0.8997<-70.2915 57.4466>
LayerCount: 2
Back
SplineSet
152 0 m 1
 152 153 67 235 67 352 c 0
 67 533 207 599 254 599 c 1
 354 553 l 1
 455 599 l 1
 527 599 635 535 635 420 c 2
 635 0 l 1
 517 0 l 1
 517 408 l 2
 517 498 460 506 454 506 c 1
 356 457 l 1
 259 506 l 1
 226 500 177 449 177 351 c 0
 177 310 187 273 205 230 c 0
 238 155 251 98 251 98 c 1
 262 124 264 138 279 164 c 0
 297 195 307 219 307 219 c 1
 307 219 231 242 231 324 c 0
 231 380 276 427 340 427 c 0
 409 427 446 380 446 317 c 0
 446 251 411 222 356 113 c 0
 333 69 320 48 302 0 c 1
 152 0 l 1
299 322 m 0
 299 289 325 281 339 281 c 0
 359 281 379 294 379 322 c 0
 379 345 363 364 339 364 c 0
 319 364 299 349 299 322 c 0
EndSplineSet
Fore
SplineSet
152 0 m 1
 152 153 63 235 63 352 c 0
 63 533 207 602 254 602 c 1
 354 556 l 1
 455 602 l 1
 527 602 635 535 635 420 c 2
 635 0 l 1
 517 0 l 1
 517 408 l 2
 517 498 460 502 454 502 c 1
 356 453 l 1
 259 502 l 1
 226 496 181 449 181 351 c 0
 181 259 251 145 251 98 c 1
 262 124 264 138 279 164 c 0
 297 195 307 219 307 219 c 1
 307 219 229 242 229 324 c 0
 229 380 276 432 340 432 c 0
 409 432 449 380 449 317 c 0
 449 251 411 222 356 113 c 0
 333 69 320 48 302 0 c 1
 152 0 l 1
299 322 m 0
 299 289 325 281 339 281 c 0
 359 281 379 294 379 322 c 0
 379 345 363 364 339 364 c 0
 319 364 299 349 299 322 c 0
EndSplineSet
EndChar

StartChar: uni0E16
Encoding: 182 3606 150
Width: 663
Flags: MW
HStem: -5 68<197.432 266.079> 141 68<225.162 266.563> 524 78<244.277 419.563>
VStem: 107 118<209 348.062> 270 70<66.748 137.596> 465 118<0 480.922>
LayerCount: 2
Back
SplineSet
181 397 m 1xf6
 133 447 48 478 48 478 c 1
 67 506 159 601 326 601 c 0
 509 601 583 506 583 411 c 2
 583 0 l 1
 465 0 l 1
 465 409 l 2
 465 486 418 520 330 520 c 0
 270 520 222 494 207 478 c 1
 258 461 308 404 312 402 c 1
 301 402 225 360 225 276 c 2
 225 210 l 1xf6
 281 210 340 186 340 99 c 0
 340 27 284 -3 231 -3 c 0
 167 -3 107 29 107 139 c 2xee
 107 276 l 2
 107 287 110 330 130 357 c 0
 153 386 181 397 181 397 c 1xf6
237 141 m 0
 211 141 199 122 199 102 c 0xee
 199 82 211 63 237 63 c 0
 263 63 276 82 276 102 c 0
 276 122 263 141 237 141 c 0
EndSplineSet
Fore
SplineSet
181 397 m 1
 133 447 48 478 48 478 c 1
 67 506 159 602 326 602 c 0
 509 602 583 506 583 411 c 2
 583 0 l 1
 465 0 l 1
 465 409 l 2
 465 486 418 524 330 524 c 0
 270 524 222 494 207 478 c 1
 259 450 292 422 312 402 c 1
 292 392 225 361 225 276 c 2
 225 209 l 1
 281 209 340 185 340 98 c 0
 340 26 284 -5 231 -5 c 0
 167 -5 107 27 107 137 c 2
 107 276 l 2
 107 368 167 389 181 397 c 1
231 141 m 0
 205 141 193 122 193 102 c 0
 193 82 205 63 231 63 c 0
 257 63 270 82 270 102 c 0
 270 122 257 141 231 141 c 0
EndSplineSet
EndChar

StartChar: uni0E17
Encoding: 183 3607 151
Width: 721
Flags: MW
HStem: 0 21G<159 277 517 635> 388 68<110.989 158.741> 524 78<435.621 506.164> 534 68<107.917 178.075>
VStem: 35 70<460.624 529.807> 159 118<0 146.604 335 388> 517 118<0 517.947>
LayerCount: 2
Back
SplineSet
277 460 m 2xdb
 277 331 l 1
 282 359 288 417 342 500 c 0
 393 578 435 598 494 598 c 0
 607 598 635 520 635 455 c 2
 635 0 l 1
 517 0 l 1
 517 423 l 2
 517 458 512 503 478 503 c 0
 414 503 365 379 331 267 c 0
 285 113 277 18 277 0 c 1
 159 0 l 1
 159 379 l 1xed
 149 379 l 2
 89 379 35 418 35 487 c 0
 35 561 91 598 146 598 c 0
 265 598 277 504.999 277 460 c 2xdb
185 489 m 0xdb
 185 509 173 529 147 529 c 0
 119 529 107 511 107 492 c 0
 107 472 121 451 147 451 c 0
 172 451 185 469 185 489 c 0xdb
EndSplineSet
Fore
SplineSet
277 464 m 2xde
 277 335 l 1
 282 363 288 421 342 504 c 0
 393 582 435 602 494 602 c 0
 607 602 635 524 635 459 c 2
 635 0 l 1
 517 0 l 1
 517 444 l 2
 517 479 512 524 478 524 c 0xee
 414 524 365 387 331 275 c 0
 285 121 277 18 277 0 c 1
 159 0 l 1
 159 388 l 1
 149 388 l 2
 89 388 35 422 35 491 c 0
 35 565 91 602 146 602 c 0
 265 602 277 509 277 464 c 2xde
183 494 m 0
 183 514 171 534 145 534 c 0xde
 117 534 105 516 105 497 c 0
 105 477 119 456 145 456 c 0
 170 456 183 474 183 494 c 0
EndSplineSet
EndChar

StartChar: uni0E18
Encoding: 184 3608 152
Width: 646
Flags: W
HStem: 0 78<120 192 310 429.088> 484 78<387.479 544.265> 524 78<220.949 384.627>
VStem: 192 118<78 381> 438 118<88.6672 337.625>
LayerCount: 2
Back
SplineSet
598 523 m 1xb8
 589 512 558 480 499 480 c 0xd8
 414 480 370 520 294 520 c 0
 216 520 204 477 204 477 c 1
 207 477 300 461 357 445 c 0
 524 397 556 352 556 290 c 2
 556 130 l 2
 556 51 527 0 457 0 c 2
 78 0 l 1
 78 78 l 1
 192 78 l 1
 192 399 l 1
 132 406 77 426 74 426 c 1
 74 441 107 598 281 598 c 0xb8
 355 598 406 561 470 561 c 0xd8
 539 561 558 595 563 598 c 1
 598 523 l 1xb8
374 78 m 2
 417 78 438 91 438 143 c 2
 438 289 l 2
 438 324 429 345 310 377 c 1
 310 78 l 1
 374 78 l 2
EndSplineSet
Fore
SplineSet
598 527 m 1xb8
 589 516 558 484 499 484 c 0xd8
 414 484 370 524 294 524 c 0
 216 524 204 481 204 481 c 1
 207 481 300 465 357 449 c 0
 524 401 556 356 556 294 c 2
 556 130 l 2
 556 51 527 0 457 0 c 2
 120 0 l 1
 120 78 l 1
 192 78 l 1
 192 403 l 1
 132 410 77 430 74 430 c 1
 74 445 107 602 281 602 c 0xb8
 355 602 406 562 470 562 c 0xd8
 539 562 558 599 563 602 c 1
 598 527 l 1xb8
374 78 m 2
 417 78 438 91 438 143 c 2
 438 293 l 2
 438 328 429 349 310 381 c 1
 310 78 l 1
 374 78 l 2
EndSplineSet
EndChar

StartChar: uni0E19
Encoding: 185 3609 153
Width: 741
Flags: MW
HStem: -5 78<560.458 629.594> 388 68<107.989 154.79> 534 68<104.917 175.062> 575 20G<463 581>
VStem: 32 70<460.624 529.807> 155 118<0 50.0457 190 388> 463 118<73.255 240 339 595> 645 70<85.0097 237.198>
AnchorPoint: "AboveBase" 578 613 basechar 0
LayerCount: 2
Back
SplineSet
715 168 m 0xfb
 715 98 684 -5 583 -5 c 0
 539 -5 463 22 463 129 c 2
 463 236 l 1
 377 207 273 20 273 0 c 1
 155 0 l 1
 155 379 l 1xfb
 146 379 l 2
 86 379 32 418 32 487 c 0
 32 561 88 598 143 598 c 0
 262 598 273 505 273 460 c 2xf7
 273 190 l 1
 273 190 299 222 360 274 c 0
 405 311 460 339 463 339 c 1
 463 595 l 1
 581 595 l 1
 581 345 l 1
 675 322 715 254 715 168 c 0xfb
645 158 m 0
 645 213 625 255 581 255 c 1
 581 109 l 2
 581 90 590 77 603 77 c 0
 629 77 645 120 645 158 c 0
182 489 m 0xf7
 182 509 170 529 144 529 c 0
 116 529 104 511 104 492 c 0
 104 472 118 451 144 451 c 0
 169 451 182 469 182 489 c 0xf7
EndSplineSet
Fore
SplineSet
715 168 m 0xdf
 715 98 684 -5 583 -5 c 0
 539 -5 463 22 463 129 c 2
 463 240 l 1
 377 211 273 20 273 0 c 1
 155 0 l 1
 155 388 l 1
 146 388 l 2
 86 388 32 422 32 491 c 0
 32 565 88 602 143 602 c 0xef
 262 602 273 509 273 464 c 2
 273 190 l 1
 273 190 299 222 360 274 c 0
 404 312 460 339 463 339 c 1
 463 595 l 1
 581 595 l 1
 581 345 l 1
 675 322 715 254 715 168 c 0xdf
645 158 m 0
 645 213 625 259 581 259 c 1
 581 105 l 2
 581 86 590 73 603 73 c 0
 629 73 645 120 645 158 c 0
180 494 m 0
 180 514 168 534 142 534 c 0
 114 534 102 516 102 497 c 0
 102 477 116 456 142 456 c 0
 167 456 180 474 180 494 c 0
EndSplineSet
EndChar

StartChar: uni0E1A
Encoding: 186 3610 154
Width: 718
Flags: MW
HStem: 0 78<100 172 290 509.533> 388 68<123.912 171.342> 534 68<121.282 190.739> 575 20G<514 632>
VStem: 48 70<460.157 530.575> 172 118<78 388> 514 118<82.2829 595>
LayerCount: 2
Back
SplineSet
461 78 m 2xfa
 484 78 514 78 514 127 c 2
 514 595 l 1
 632 595 l 1
 632 100 l 2
 632 34 587 0 530 0 c 2
 100 0 l 1
 100 78 l 1
 172 78 l 1
 172 379 l 5xfa
 161 379 l 6
 103 379 48 417 48 486 c 4
 48 575 118 598 158 598 c 4
 276 598 290 505 290 460 c 6xf6
 290 78 l 1
 461 78 l 2xfa
198 488 m 4xf6
 198 508 184 528 158 528 c 4
 131 528 119 510 119 491 c 4
 119 471 133 450 158 450 c 4
 184 450 198 468 198 488 c 4xf6
EndSplineSet
Fore
SplineSet
461 78 m 2xee
 484 78 514 78 514 127 c 2
 514 595 l 1
 632 595 l 1xde
 632 100 l 2
 632 34 587 0 530 0 c 2
 100 0 l 1
 100 78 l 1
 172 78 l 1
 172 388 l 1
 161 388 l 2
 103 388 48 421 48 490 c 0
 48 579 118 602 158 602 c 0
 276 602 290 509 290 464 c 2
 290 78 l 1
 461 78 l 2xee
197 494 m 0
 197 514 183 534 157 534 c 0xee
 130 534 118 516 118 497 c 0
 118 477 132 456 157 456 c 0
 183 456 197 474 197 494 c 0
EndSplineSet
EndChar

StartChar: uni0E1B
Encoding: 187 3611 155
Width: 718
Flags: MW
HStem: 0 78<100 172 290 509.533> 388 68<123.912 171.342> 534 68<121.282 190.739>
VStem: 48 70<460.157 530.575> 172 118<78 388> 514 118<82.2829 884>
AnchorPoint: "AboveBase" 465 613 basechar 0
LayerCount: 2
Back
SplineSet
461 78 m 2xfa
 484 78 514 78 514 127 c 2
 514 884 l 1
 632 884 l 1
 632 100 l 2
 632 34 587 0 530 0 c 2
 100 0 l 1
 100 78 l 1
 172 78 l 1
 172 379 l 1xfa
 161 379 l 2
 103 379 48 417 48 486 c 0
 48 575 118 598 158 598 c 0
 276 598 290 505 290 460 c 2xf6
 290 78 l 1
 461 78 l 2xfa
198 488 m 0xf6
 198 508 184 528 158 528 c 0
 131 528 119 510 119 491 c 0
 119 471 133 450 158 450 c 0
 184 450 198 468 198 488 c 0xf6
EndSplineSet
Fore
SplineSet
461 78 m 2
 484 78 514 78 514 127 c 2
 514 884 l 1
 632 884 l 1
 632 100 l 2
 632 34 587 0 530 0 c 2
 100 0 l 1
 100 78 l 1
 172 78 l 1
 172 388 l 1
 161 388 l 2
 103 388 48 421 48 490 c 0
 48 579 118 602 158 602 c 0
 276 602 290 509 290 464 c 2
 290 78 l 1
 461 78 l 2
197 494 m 0
 197 514 183 534 157 534 c 0
 130 534 118 516 118 497 c 0
 118 477 132 456 157 456 c 0
 183 456 197 474 197 494 c 0
EndSplineSet
EndChar

StartChar: uni0E1C
Encoding: 188 3612 156
Width: 674
Flags: MW
HStem: 0 21G<92 220 452.5 589> 388 68<210.765 257.965> 534 68<191.228 259.453> 575 20G<471 589>
VStem: 92 118<0 48.7225 172 388> 263 70<460.249 529.351> 471 118<0 52.1553 172 595>
LayerCount: 2
Back
SplineSet
333 487 m 0xee
 333 418 279 379 221 379 c 2
 210 379 l 1
 210 172 l 1
 210 173 242 221 270 253 c 0
 302 291 314 300 340 323 c 1
 343 322 380 290 414 253 c 0
 441 221 471 173 471 172 c 1
 471 595 l 1
 589 595 l 1
 589 0 l 1
 471 0 l 1
 434 115 340 210 340 210 c 1
 296 172 228 59 212 0 c 1
 92 0 l 1xf6
 92 460 l 2
 92 505 104 598 224 598 c 4
 262 598 333 576 333 487 c 0xee
224 529 m 0
 198 529 185 510 185 490 c 0xee
 185 470 198 451 224 451 c 0
 249 451 262 470 262 490 c 0
 262 510 249 529 224 529 c 0
EndSplineSet
Fore
SplineSet
333 491 m 0xee
 333 422 279 388 221 388 c 2
 210 388 l 1
 210 172 l 1
 210 172 242 221 270 253 c 0
 302 291 314 300 340 323 c 1
 343 322 380 290 414 253 c 0
 442 222 471 172 471 172 c 1
 471 595 l 1
 589 595 l 1xde
 589 0 l 1
 471 0 l 1
 434 115 340 210 340 210 c 1
 296 172 228 59 212 0 c 1
 92 0 l 1
 92 464 l 2
 92 509 104 602 224 602 c 0
 262 602 333 580 333 491 c 0xee
225 534 m 0xee
 199 534 186 515 186 495 c 0
 186 475 199 456 225 456 c 0
 250 456 263 475 263 495 c 0
 263 515 250 534 225 534 c 0xee
EndSplineSet
EndChar

StartChar: uni0E1D
Encoding: 189 3613 157
Width: 674
Flags: MW
HStem: 0 21G<92 220 452.5 589> 388 68<210.765 257.965> 534 68<191.228 259.453>
VStem: 92 118<0 48.7225 172 388> 263 70<460.249 529.351> 471 118<0 52.1553 172 884>
AnchorPoint: "AboveBase" 421 613 basechar 0
LayerCount: 2
Back
SplineSet
333 487 m 0xee
 333 418 279 379 221 379 c 2
 210 379 l 1
 210 172 l 1
 210 173 242 221 270 253 c 0
 302 291 314 300 340 323 c 1
 343 322 380 290 414 253 c 0
 441 221 471 173 471 172 c 1
 471 889 l 1
 589 889 l 1
 589 0 l 1
 471 0 l 1
 434 115 340 210 340 210 c 1
 296 172 228 59 212 0 c 1
 92 0 l 1xf6
 92 460 l 2
 92 505 104 598 224 598 c 0
 262 598 333 576 333 487 c 0xee
224 529 m 0
 198 529 185 510 185 490 c 0xee
 185 470 198 451 224 451 c 0
 249 451 262 470 262 490 c 0
 262 510 249 529 224 529 c 0
EndSplineSet
Fore
SplineSet
333 491 m 0
 333 422 279 388 221 388 c 2
 210 388 l 1
 210 172 l 1
 210 172 242 221 270 253 c 0
 302 291 314 300 340 323 c 1
 343 322 380 290 414 253 c 0
 442 222 471 172 471 172 c 1
 471 884 l 1
 589 884 l 1
 589 0 l 1
 471 0 l 1
 434 115 340 210 340 210 c 1
 296 172 228 59 212 0 c 1
 92 0 l 1
 92 464 l 2
 92 509 104 602 224 602 c 0
 262 602 333 580 333 491 c 0
225 534 m 0
 199 534 186 515 186 495 c 0
 186 475 199 456 225 456 c 0
 250 456 263 475 263 495 c 0
 263 515 250 534 225 534 c 0
EndSplineSet
EndChar

StartChar: uni0E1E
Encoding: 190 3614 158
Width: 752
Flags: MW
HStem: 0 21G<158 281.938 539.884 664> 388 68<108.007 157.998> 534 68<108.365 174.599> 575 20G<365.19 449.3 546 664>
VStem: 34 70<459.937 530.29> 158 118<0 23.5789 268 389> 546 118<0 22.8905 268 595>
DStem2: 276 268 409 448 0.284598 0.958647<0 210.408> 443 595 409 448 0.292435 -0.956285<130.631 342.826>
LayerCount: 2
Back
SplineSet
34 490 m 0xfa
 34 530 57 598 146 598 c 4
 248 598 276 528 276 466 c 2xf6
 276 268 l 1
 371 595 l 1
 443 595 l 1
 546 268 l 1
 546 595 l 1
 664 595 l 1
 664 0 l 1
 546 0 l 1
 409 448 l 1
 276 0 l 1
 158 0 l 1
 158 385 l 1
 158 385 153 384 144 384 c 0
 82 384 34 426 34 490 c 0xfa
144 532 m 0
 119 532 106 512 106 493 c 0
 106 474 119 454 144 454 c 0
 170 454 182 474 182 493 c 0
 182 512 170 532 144 532 c 0
EndSplineSet
Fore
SplineSet
34 494 m 0xde
 34 534 57 602 146 602 c 0xee
 248 602 276 532 276 470 c 2
 276 268 l 1
 371 595 l 1
 443 595 l 1
 546 268 l 1
 546 595 l 1
 664 595 l 1
 664 0 l 1
 546 0 l 1
 409 448 l 1
 276 0 l 1
 158 0 l 1
 158 389 l 1
 158 389 153 388 144 388 c 0
 82 388 34 430 34 494 c 0xde
142 534 m 0
 117 534 104 514 104 495 c 0
 104 476 117 456 142 456 c 0
 168 456 180 476 180 495 c 0
 180 514 168 534 142 534 c 0
EndSplineSet
EndChar

StartChar: uni0E1F
Encoding: 191 3615 159
Width: 752
Flags: MW
HStem: 0 21G<158 281.938 539.884 664> 388 68<108.007 157.998> 534 68<108.365 174.599> 575 20G<365.19 449.3>
VStem: 34 70<459.937 530.29> 158 118<0 23.5789 268 389> 546 118<0 22.8905 268 884>
DStem2: 276 268 409 448 0.284598 0.958647<0 210.408> 443 595 409 448 0.292435 -0.956285<130.631 342.826>
AnchorPoint: "AboveBase" 499 613 basechar 0
LayerCount: 2
Back
SplineSet
34 490 m 0xfa
 34 530 57 598 146 598 c 0
 248 598 276 528 276 466 c 2xf6
 276 268 l 1
 371 595 l 1
 443 595 l 1
 546 268 l 1
 546 941 l 1
 664 941 l 1
 664 0 l 1
 546 0 l 1
 409 448 l 1
 276 0 l 1
 158 0 l 1
 158 385 l 1
 158 385 153 384 144 384 c 0
 82 384 34 426 34 490 c 0xfa
144 532 m 0
 119 532 106 512 106 493 c 0
 106 474 119 454 144 454 c 0
 170 454 182 474 182 493 c 0
 182 512 170 532 144 532 c 0
EndSplineSet
Fore
SplineSet
34 494 m 0xde
 34 534 57 602 146 602 c 0xee
 248 602 276 532 276 470 c 2
 276 268 l 1
 371 595 l 1
 443 595 l 1
 546 268 l 1
 546 884 l 1
 664 884 l 1
 664 0 l 1
 546 0 l 1
 409 448 l 1
 276 0 l 1
 158 0 l 1
 158 389 l 1
 158 389 153 388 144 388 c 0
 82 388 34 430 34 494 c 0xde
142 534 m 0
 117 534 104 514 104 495 c 0
 104 476 117 456 142 456 c 0
 168 456 180 476 180 495 c 0
 180 514 168 534 142 534 c 0
EndSplineSet
EndChar

StartChar: uni0E20
Encoding: 192 3616 160
Width: 680
Flags: MW
HStem: -5 68<118.215 177.128> 136 68<117.972 138> 524 78<268.972 442.299>
VStem: 45 70<65.6827 133.66> 138 118<204 350.37> 478 118<0 488.582>
LayerCount: 2
Back
SplineSet
213 397 m 1xf4
 165 445 85 477 78 478 c 1
 98 506 189 599 359 599 c 0
 540 599 596 506 596 411 c 2
 596 0 l 1
 478 0 l 1
 478 409 l 2
 478 488 446 521 356 521 c 0
 279 521 238 483 238 483 c 1
 241 481 261 471 291 448 c 0
 319 426 342 402 342 402 c 1
 339 402 310 389 281 356 c 0
 258 326 256 291 256 276 c 2xf4
 256 112 l 2xec
 256 48 222 -3 152 -3 c 0
 90 -3 49 36 49 95 c 0
 49 171 102 198 138 198 c 1
 138 276 l 2
 138 370 213 397 213 397 c 1xf4
149 133 m 0
 127 133 116 114 116 96 c 0
 116 78 127 60 149 60 c 0
 170 60 181 78 181 96 c 0xec
 181 115 170 133 149 133 c 0
EndSplineSet
Fore
SplineSet
213 397 m 1
 165 445 85 477 78 478 c 1
 98 506 189 602 359 602 c 0
 540 602 596 506 596 411 c 2
 596 0 l 1
 478 0 l 1
 478 409 l 2
 478 488 446 524 356 524 c 0
 279 524 238 483 238 483 c 1
 290 455 322 422 342 402 c 1
 322 392 256 361 256 276 c 2
 256 115 l 2
 256 51 222 -5 152 -5 c 0
 90 -5 45 39 45 98 c 0
 45 174 102 204 138 204 c 1
 138 276 l 2
 138 368 199 389 213 397 c 1
148 136 m 0
 126 136 115 117 115 99 c 0
 115 81 126 63 148 63 c 0
 169 63 180 81 180 99 c 0
 180 118 169 136 148 136 c 0
EndSplineSet
EndChar

StartChar: uni0E21
Encoding: 193 3617 161
Width: 718
Flags: MW
HStem: -5 78<144.577 203.127> 236 78<152.66 206> 388 68<155.731 205.792> 534 68<156.088 222.682> 575 20G<515 633>
VStem: 61 70<83.945 212.918> 82 70<459.867 530.361> 206 118<76.4434 209 314 389> 515 118<121.003 595>
LayerCount: 2
Back
SplineSet
82 490 m 0xf680
 82 530 105 598 194 598 c 0
 296 598 324 528 324 466 c 2
 324 310 l 1xf580
 324 310 362 308 418 236 c 0
 458 182 469 152 498 123 c 1
 499 123 515 127 515 156 c 2
 515 595 l 1
 633 595 l 1
 633 107 l 2
 633 67 624 28 586 11 c 0
 567 2 548 -3 529 -3 c 0
 463 -3 428 50 405 95 c 0
 357 189 327 198 324 204 c 1
 324 109 l 2
 324 16 233 -4 189 -4 c 0
 82 -4 55 89 55 152 c 0xfa80
 55 298 182 317 206 317 c 1
 206 385 l 1
 206 385 201 384 192 384 c 0
 130 384 82 426 82 490 c 0xf680
189 231 m 0
 148 231 138 173 138 143 c 0
 138 110 149 78 177 78 c 0
 198 78 206 97 206 115 c 2
 206 228 l 1xfa80
 205 228 198 231 189 231 c 0
191 531 m 0
 165 531 153 512 153 492 c 0
 153 472 165 453 191 453 c 0
 216 453 229 472 229 492 c 0xf580
 229 512 216 531 191 531 c 0
EndSplineSet
Fore
SplineSet
82 494 m 0xeb80
 82 534 105 602 194 602 c 0xf380
 296 602 324 532 324 470 c 2
 324 307 l 1
 324 307 364 305 418 236 c 0
 459 183 469 150 498 121 c 1
 500 121 515 125 515 154 c 2
 515 595 l 1
 633 595 l 1
 633 105 l 2
 633 17 577 -5 529 -5 c 0
 463 -5 428 50 405 95 c 0
 357 189 327 203 324 209 c 1
 324 108 l 2
 324 15 233 -5 189 -5 c 0
 82 -5 61 89 61 152 c 0xed80
 61 298 182 314 206 314 c 1
 206 389 l 1
 206 389 201 388 192 388 c 0
 130 388 82 430 82 494 c 0xeb80
189 236 m 0
 148 236 131 173 131 143 c 0xe580
 131 110 149 73 177 73 c 0
 198 73 206 92 206 110 c 2
 206 233 l 1
 205 233 198 236 189 236 c 0
190 534 m 0xf380
 164 534 152 515 152 495 c 0
 152 475 164 456 190 456 c 0
 215 456 228 475 228 495 c 0
 228 515 215 534 190 534 c 0xf380
EndSplineSet
EndChar

StartChar: uni0E22
Encoding: 194 3618 162
Width: 657
Flags: MW
HStem: 0 78<218 444.075> 227 78<235.097 348> 388 68<205.375 263.011> 534 68<193.875 262.835> 575 20G<457 575>
VStem: 87 118<331.43 391> 100 118<78 210.648> 268 70<460.67 529.173> 457 118<91.233 595>
LayerCount: 2
Back
SplineSet
287 228 m 2xf980
 258 228 218 213 218 155 c 2
 218 78 l 1
 387 78 l 2
 429 78 457 97 457 141 c 2
 457 595 l 1
 575 595 l 1
 575 126 l 2
 575 71 549 0 446 0 c 2
 100 0 l 1
 100 149 l 2xf380
 100 216 146 268 210 271 c 1
 140 275 90 330 90 408 c 2
 90 458 l 2xf580
 90 503 118 596 227 596 c 0
 286 596 338 557 338 482 c 0
 338 398 266 380 230 380 c 0
 215 380 205 383 205 383 c 1
 205 376 l 2
 205 323 261 303 291 303 c 2
 348 303 l 1
 348 228 l 1
 287 228 l 2xf980
228 526 m 0
 203 526 190 506 190 487 c 0xf580
 190 468 203 448 228 448 c 0
 254 448 268 468 268 487 c 0
 268 506 254 526 228 526 c 0
EndSplineSet
Fore
SplineSet
287 227 m 2xf580
 258 227 218 213 218 155 c 2
 218 78 l 1
 387 78 l 2
 429 78 457 97 457 141 c 2
 457 595 l 1
 575 595 l 1
 575 126 l 2
 575 71 549 0 446 0 c 2
 100 0 l 1
 100 149 l 2xeb80
 100 216 146 268 210 271 c 1
 140 275 87 330 87 408 c 2
 87 466 l 2
 87 511 118 602 227 602 c 0
 286 602 338 565 338 490 c 0
 338 406 266 388 230 388 c 0
 215 388 205 391 205 391 c 1
 205 376 l 2
 205 323 261 305 291 305 c 2
 348 305 l 1
 348 227 l 1
 287 227 l 2xf580
228 534 m 0xf180
 203 534 190 514 190 495 c 0
 190 476 203 456 228 456 c 0
 254 456 268 476 268 495 c 0
 268 514 254 534 228 534 c 0xf180
EndSplineSet
EndChar

StartChar: uni0E23
Encoding: 195 3619 163
Width: 551
Flags: MW
HStem: -5 68<295.085 361.882> 141 68<294.721 342.615> 429 58<161 212.028> 486 78<333.293 498.481> 524 78<174.852 346.567>
VStem: 221 70<66.34 137.887> 343 118<208 360.745>
LayerCount: 2
Back
SplineSet
38 428 m 1xee
 41 487 98 601 242 601 c 0xee
 314 601 367 566 423 566 c 0
 478 566 485 594 492 598 c 1
 529 518 l 1
 523 515 496 486 448 486 c 0xd6
 374 486 314 527 234 527 c 0
 181 527 169 494 161 487 c 1
 164 487 251 481 326 449 c 0
 388 423 461 395 461 326 c 2xee
 461 130 l 2xed
 461 69 428 -2 331 -2 c 0
 270 -2 221 32 221 103 c 0
 221 164 264 213 329 213 c 0
 338 213 343 212 343 212 c 1
 343 293 l 2
 343 325 342 351 308 371 c 0
 263 398 157 429 63 429 c 0
 50 429 41 428 38 428 c 1xee
331 144 m 0
 306 144 294 124 294 105 c 0
 294 86 306 66 331 66 c 0
 357 66 370 86 370 105 c 0xc5
 370 124 357 144 331 144 c 0
EndSplineSet
Fore
SplineSet
38 428 m 1xee
 41 487 98 602 242 602 c 0xee
 314 602 367 564 423 564 c 0
 478 564 485 594 492 598 c 1
 529 518 l 1
 523 515 496 486 448 486 c 0xd6
 374 486 314 524 234 524 c 0
 181 524 169 494 161 487 c 1
 164 487 251 481 326 449 c 0
 388 423 461 395 461 326 c 2
 461 127 l 2
 461 66 428 -5 331 -5 c 0
 270 -5 221 29 221 100 c 0
 221 161 264 209 329 209 c 0
 338 209 343 208 343 208 c 1
 343 293 l 2
 343 325 342 351 308 371 c 0
 263 398 157 429 63 429 c 0
 50 429 41 428 38 428 c 1xee
328 141 m 0
 303 141 291 121 291 102 c 0
 291 83 303 63 328 63 c 0
 354 63 367 83 367 102 c 0
 367 121 354 141 328 141 c 0
EndSplineSet
EndChar

StartChar: uni0E24
Encoding: 196 3620 164
Width: 677
Flags: MW
HStem: -5 68<200.432 269.079> 141 68<228.162 269.563> 524 78<247.277 422.563>
VStem: 110 118<209 348.062> 273 70<66.748 137.596> 468 118<-218 480.922>
LayerCount: 2
Back
SplineSet
184 397 m 1xf6
 136 447 51 478 51 478 c 1
 70 506 162 601 329 601 c 0
 512 601 586 506 586 411 c 2
 586 -218 l 1
 468 -218 l 1
 468 409 l 2
 468 486 421 520 333 520 c 0
 273 520 225 494 210 478 c 1
 261 461 311 404 315 402 c 1
 304 402 228 360 228 276 c 2
 228 210 l 1xf6
 284 210 343 186 343 99 c 0
 343 27 287 -3 234 -3 c 0
 170 -3 110 29 110 139 c 2xee
 110 276 l 2
 110 287 113 330 133 357 c 0
 156 386 184 397 184 397 c 1xf6
240 141 m 0
 214 141 202 122 202 102 c 0xee
 202 82 214 63 240 63 c 0
 266 63 279 82 279 102 c 0
 279 122 266 141 240 141 c 0
EndSplineSet
Fore
SplineSet
184 397 m 1
 136 447 51 478 51 478 c 1
 70 506 162 602 329 602 c 0
 512 602 586 506 586 411 c 2
 586 -218 l 1
 468 -218 l 1
 468 409 l 2
 468 486 421 524 333 524 c 0
 273 524 225 494 210 478 c 1
 262 450 295 422 315 402 c 1
 295 392 228 361 228 276 c 2
 228 209 l 1
 284 209 343 185 343 98 c 0
 343 26 287 -5 234 -5 c 0
 170 -5 110 27 110 137 c 2
 110 276 l 2
 110 368 170 389 184 397 c 1
234 141 m 0
 208 141 196 122 196 102 c 0
 196 82 208 63 234 63 c 0
 260 63 273 82 273 102 c 0
 273 122 260 141 234 141 c 0
EndSplineSet
EndChar

StartChar: uni0E25
Encoding: 197 3621 165
Width: 660
Flags: W
HStem: -5 68<195.919 266.397> 143 68<210.358 266.41> 337 78<221.664 320.611> 524 78<194.354 399.04>
VStem: 271 70<67.341 139.031> 451 118<0 130.839 285 474.915>
LayerCount: 2
Back
SplineSet
451 385 m 6
 451 470 419 516 300 516 c 4
 171 516 133 453 126 439 c 5
 52 485 l 5
 68 524 141 601 311 601 c 4
 521 601 569 488 569 413 c 6
 569 0 l 1
 451 0 l 1
 451 48 l 2
 451 78 426 147 391 218 c 0
 357 286 315 331 262 331 c 0
 259 331 l 0
 216 331 210 294 210 256 c 2
 210 208 l 1
 216 209 224 210 231 210 c 0
 297 210 341 161 341 100 c 0
 341 37 294 -6 228 -6 c 0
 137 -6 93 59 93 186 c 0
 93 313 128 421 266 421 c 0
 303 421 340 411 372 385 c 0
 409 356 451 288 451 285 c 1
 451 385 l 6
228 141 m 0
 202 141 189 121 189 101 c 0
 189 81 202 61 228 61 c 0
 255 61 268 81 268 101 c 0
 268 121 255 141 228 141 c 0
EndSplineSet
Fore
SplineSet
451 386 m 2
 451 471 419 524 300 524 c 0
 171 524 133 454 126 440 c 1
 52 486 l 1
 68 525 141 602 311 602 c 0
 521 602 569 489 569 414 c 2
 569 0 l 1
 451 0 l 1
 451 48 l 2
 451 78 426 150 391 221 c 0
 353 298 312 337 259 337 c 0
 216 337 210 300 210 262 c 2
 210 209 l 1
 216 210 224 211 231 211 c 0
 297 211 341 162 341 101 c 0
 341 38 294 -5 228 -5 c 0
 137 -5 92 60 92 187 c 0
 92 308 128 415 266 415 c 0
 303 415 340 407 372 381 c 0
 409 352 451 288 451 285 c 2
 451 386 l 2
231 143 m 0
 205 143 192 123 192 103 c 0
 192 83 205 63 231 63 c 0
 258 63 271 83 271 103 c 0
 271 123 258 143 231 143 c 0
EndSplineSet
EndChar

StartChar: uni0E26
Encoding: 198 3622 166
Width: 689
Flags: MW
HStem: -5 68<124.215 183.128> 136 68<123.972 144> 524 78<274.972 448.299>
VStem: 51 70<65.6827 133.66> 144 118<204 350.37> 484 118<-218 488.582>
LayerCount: 2
Back
SplineSet
219 397 m 1xf4
 171 445 91 477 84 478 c 1
 104 506 195 599 365 599 c 0
 546 599 602 506 602 411 c 2
 602 -228 l 1
 484 -228 l 1
 484 409 l 2
 484 488 452 521 362 521 c 0
 285 521 244 483 244 483 c 1
 247 481 267 471 297 448 c 0
 325 426 348 402 348 402 c 1
 345 402 316 389 287 356 c 0
 264 326 262 291 262 276 c 2xf4
 262 112 l 2xec
 262 48 228 -3 158 -3 c 0
 96 -3 55 36 55 95 c 0
 55 173 108 198 144 198 c 1
 144 276 l 2
 144 370 219 397 219 397 c 1xf4
155 133 m 0
 133 133 122 114 122 96 c 0
 122 78 133 60 155 60 c 0
 176 60 187 78 187 96 c 0xec
 187 115 176 133 155 133 c 0
EndSplineSet
Fore
SplineSet
219 397 m 1
 171 445 91 477 84 478 c 1
 104 506 195 602 365 602 c 0
 546 602 602 506 602 411 c 2
 602 -218 l 1
 484 -218 l 1
 484 409 l 2
 484 488 452 524 362 524 c 0
 285 524 244 483 244 483 c 1
 296 455 328 422 348 402 c 1
 328 392 262 361 262 276 c 2
 262 115 l 2
 262 51 228 -5 158 -5 c 0
 96 -5 51 39 51 98 c 0
 51 174 108 204 144 204 c 1
 144 276 l 2
 144 368 205 389 219 397 c 1
154 136 m 0
 132 136 121 117 121 99 c 0
 121 81 132 63 154 63 c 0
 175 63 186 81 186 99 c 0
 186 118 175 136 154 136 c 0
EndSplineSet
EndChar

StartChar: uni0E27
Encoding: 199 3623 167
Width: 593
Flags: MW
HStem: -5 68<347.134 414.901> 142 68<347.531 396.568> 524 78<177.755 352.332>
VStem: 273 70<66.303 137.807> 397 118<209 474.742>
LayerCount: 2
Back
SplineSet
23 461 m 1xf8
 23 482 75 599 267 599 c 0
 435 599 515 542 515 380 c 2xf8
 515 130 l 2xf4
 515 71 483 -2 395 -2 c 0
 298 -2 273 65 273 106 c 0
 273 170 323 213 384 213 c 0
 392 213 397 212 397 212 c 1
 397 369 l 2
 397 436 388 515 272 515 c 0
 185 515 139 488 123 422 c 1
 23 461 l 1xf8
383 143 m 0
 358 143 346 123 346 104 c 0
 346 84 358 64 383 64 c 0
 409 64 422 84 422 104 c 0xf4
 422 123 409 143 383 143 c 0
EndSplineSet
Fore
SplineSet
23 464 m 1
 23 485 75 602 267 602 c 0
 435 602 515 545 515 383 c 2
 515 127 l 2
 515 68 483 -5 395 -5 c 0
 298 -5 273 62 273 103 c 0
 273 167 323 210 384 210 c 0
 392 210 397 209 397 209 c 1
 397 372 l 2
 397 439 388 524 272 524 c 0
 185 524 139 491 123 425 c 1
 23 464 l 1
380 142 m 0
 355 142 343 122 343 103 c 0
 343 83 355 63 380 63 c 0
 406 63 419 83 419 103 c 0
 419 122 406 142 380 142 c 0
EndSplineSet
EndChar

StartChar: uni0E28
Encoding: 200 3624 168
Width: 700
Flags: W
HStem: 0 21G<143 267 502 620> 210 68<323.523 390.847> 352 68<325.014 356> 524 78<256.553 442.402>
VStem: 65 118<233.021 453.896> 143 124<0 133.526> 395 70<281.794 349.088> 502 118<0 452.268>
LayerCount: 2
Back
SplineSet
356 420 m 1xfb
 443 504 l 1
 422 513 394 518 357 518 c 0
 274 518 178 495 178 366 c 0
 178 291 210 173 213 169 c 1
 213 173 221 296 253 354 c 0
 271 388 294 420 356 420 c 1xfb
500 575 m 1
 527 582 563 649 563 656 c 1
 692 656 l 1
 683 613 635 545 585 517 c 1
 590 506 620 482 620 408 c 2
 620 0 l 1
 502 0 l 1
 502 389 l 2
 502 415 496 444 489 454 c 1
 429 399 l 1
 454 379 465 344 465 315 c 0
 465 247 410 211 359 211 c 0
 327 211 307 225 307 225 c 1
 290 182 267 28 267 0 c 1
 143 0 l 1
 143 21 l 2xf7
 143 143 70 220 70 356 c 0
 70 552 224 601 349 601 c 0
 450 601 486 576 500 575 c 1
360 351 m 0
 335 351 322 332 322 314 c 0
 322 296 335 277 360 277 c 0
 384 277 397 296 397 314 c 0
 397 332 384 351 360 351 c 0
EndSplineSet
Fore
SplineSet
356 420 m 1xfb
 443 504 l 1
 422 513 394 524 357 524 c 0
 274 524 183 495 183 366 c 0
 183 291 210 173 213 169 c 1
 213 173 221 296 253 354 c 0
 271 388 294 420 356 420 c 1xfb
500 575 m 1
 527 582 563 649 563 656 c 1
 692 656 l 1
 683 613 635 545 585 517 c 1
 590 506 620 482 620 408 c 2
 620 0 l 1
 502 0 l 1
 502 389 l 2
 502 415 496 444 489 454 c 1
 429 399 l 1
 454 379 465 344 465 315 c 0
 465 247 410 210 359 210 c 0
 327 210 307 225 307 225 c 1
 290 182 267 28 267 0 c 1
 143 0 l 1
 143 21 l 2xf7
 143 143 65 220 65 356 c 0
 65 552 224 602 349 602 c 0
 450 602 486 576 500 575 c 1
358 352 m 0
 333 352 320 333 320 315 c 0
 320 297 333 278 358 278 c 0
 382 278 395 297 395 315 c 0
 395 333 382 352 358 352 c 0
EndSplineSet
EndChar

StartChar: uni0E29
Encoding: 201 3625 169
Width: 748
Flags: MW
HStem: 0 78<100 172 290 511.217> 193 78<477.829 516> 365 58<376.499 440.481> 388 68<124.529 171.342> 534 68<121.094 190.739> 575 20G<516 634>
VStem: 48 70<459.983 530.549> 172 118<78 388> 310 63<297.158 362.253> 443 56<296.454 362.163> 516 118<85.3638 193 307 595>
AnchorPoint: "AboveBase" 631 613 basechar 0
LayerCount: 2
Back
SplineSet
634 307 m 1xeee0
 648 307 705 356 705 400 c 1
 783 351 l 1
 769 279 650 213 634 213 c 1
 634 100 l 2
 634 18 570 0 533 0 c 2
 100 0 l 1
 100 78 l 1
 172 78 l 1
 172 379 l 1xdee0
 161 379 l 2
 98 379 48 422 48 487 c 0
 48 565 106 598 158 598 c 0
 276 598 290 505 290 460 c 2xdde0
 290 78 l 1
 462 78 l 2
 495 78 516 85 516 127 c 2
 516 193 l 1
 508 193 l 2
 483 193 413 197 370 224 c 0
 334 248 310 290 310 330 c 0
 310 376 343 423 404 423 c 0
 466 423 499 381 499 334 c 0
 499 298 477 276 477 276 c 1
 477 276 483 273 496 273 c 2
 508 271 514 273 516 273 c 1
 516 595 l 1
 634 595 l 1
 634 307 l 1xeee0
197 489 m 0xdde0
 197 509 183 529 157 529 c 0
 130 529 118 511 118 492 c 0
 118 472 132 451 157 451 c 0
 183 451 197 469 197 489 c 0xdde0
408 365 m 0xece0
 385 365 373 347 373 330 c 0
 373 312 385 294 408 294 c 0
 431 294 443 312 443 330 c 0
 443 347 431 365 408 365 c 0xece0
EndSplineSet
Fore
SplineSet
634 307 m 1xe7e0
 648 307 705 356 705 400 c 1
 783 351 l 1
 769 279 650 213 634 213 c 1
 634 100 l 2
 634 18 570 0 533 0 c 2
 100 0 l 1
 100 78 l 1
 172 78 l 1
 172 388 l 1
 161 388 l 2
 98 388 48 426 48 491 c 0
 48 569 106 602 158 602 c 0xdbe0
 276 602 290 509 290 464 c 2
 290 78 l 1
 462 78 l 2
 495 78 516 85 516 127 c 2
 516 193 l 1
 508 193 l 2
 483 193 413 197 370 224 c 0
 333 247 310 290 310 330 c 0
 310 376 343 423 404 423 c 0
 466 423 499 381 499 334 c 0
 499 298 477 276 477 276 c 2
 477 276 489 271 506 271 c 0
 511 271 515 273 516 273 c 1
 516 595 l 1
 634 595 l 1
 634 307 l 1xe7e0
197 494 m 0
 197 514 183 534 157 534 c 0
 130 534 118 516 118 497 c 0
 118 477 132 456 157 456 c 0
 183 456 197 474 197 494 c 0
408 365 m 0xe3e0
 385 365 373 347 373 330 c 0
 373 312 385 294 408 294 c 0
 431 294 443 312 443 330 c 0
 443 347 431 365 408 365 c 0xe3e0
EndSplineSet
EndChar

StartChar: uni0E2A
Encoding: 202 3626 170
Width: 657
Flags: W
HStem: -2 68<196.456 267.59> 146 68<212.4 267.225> 346 46<349 360> 524 78<199.171 401.121>
VStem: 272 70<69.8872 141.793> 452 118<0 128.398 282 447.984> 506 113<599.278 655>
LayerCount: 2
Back
SplineSet
469 567 m 1xf8
 486 584 506 618 506 655 c 1
 619 655 l 1xf4
 603 574 533 529 527 521 c 1
 539 503 570 492 570 390 c 2
 570 0 l 1
 452 0 l 1
 452 37 l 2
 452 110 360 346 263 346 c 0
 218 346 212 295 212 256 c 2
 212 212 l 1
 218 213 225 214 232 214 c 0
 297 214 342 165 342 103 c 0
 342 40 296 -2 229 -2 c 0
 195 -2 162 10 139 31 c 0
 106 63 94 115 94 201 c 0
 94 301 108 380 207 412 c 0
 268 431 332 456 403 503 c 1
 377 514 359 521 318 521 c 0
 179 521 148 467 129 441 c 1
 52 490 l 1
 75 529 140 599 306 599 c 0
 426 599 469 567 469 567 c 1xf8
452 282 m 1xf8
 452 385 l 2
 452 449 443 448 443 448 c 5
 440 446 417 422 388 409 c 0
 362 397 349 392 349 392 c 1
 351 392 371 385 397 356 c 0
 423 326 451 285 452 282 c 1xf8
235 145 m 0
 208 145 195 125 195 105 c 0
 195 85 208 65 235 65 c 0
 262 65 275 85 275 105 c 0
 275 125 262 145 235 145 c 0
EndSplineSet
Fore
SplineSet
469 567 m 1xfc
 486 584 506 618 506 655 c 1
 619 655 l 1xfa
 603 574 533 529 527 521 c 1
 539 503 570 492 570 390 c 2
 570 0 l 1
 452 0 l 1
 452 37 l 2
 452 110 360 346 263 346 c 0
 218 346 212 295 212 256 c 2
 212 212 l 1
 218 213 225 214 232 214 c 0
 297 214 342 165 342 103 c 0
 342 40 296 -2 229 -2 c 0
 138 -2 94 58 94 201 c 0
 94 301 108 380 207 412 c 0
 268 431 332 456 403 503 c 1
 377 514 359 524 318 524 c 0
 179 524 148 467 129 441 c 1
 52 490 l 1
 75 529 140 602 306 602 c 0
 426 602 469 567 469 567 c 1xfc
452 282 m 1xfc
 452 385 l 2
 452 447 443 448 443 448 c 1
 417 422 398.254 414.136 349 392 c 1
 376.446 392 449.159 290.523 452 282 c 1xfc
232 146 m 0
 205 146 192 126 192 106 c 0
 192 86 205 66 232 66 c 0
 259 66 272 86 272 106 c 0
 272 126 259 146 232 146 c 0
EndSplineSet
EndChar

StartChar: uni0E2B
Encoding: 203 3627 171
Width: 715
Flags: MW
HStem: 0 21G<155 281.5 512 630> 388 68<106.912 154.741> 534 68<104.105 174.139 477.233 553.188>
VStem: 31 70<461.119 530.757> 155 118<0 64.9951 225 388> 393 78<449.05 527.75> 512 118<0 335.926> 560 70<448.871 527.232>
LayerCount: 2
Back
SplineSet
515 598 m 4xfa
 556 598 634 575 634 482 c 0xfa80
 634 407 582 387 579 385 c 1
 582 384 598 375 610 358 c 0
 627 332 630 313 630 284 c 2
 630 0 l 1
 512 0 l 1
 512 293 l 2
 512 312 509 328 483 328 c 0
 467 328 459 317 457 315 c 0
 449 309 412 264 369 192 c 0
 325 123 290 78 273 0 c 1
 155 0 l 1
 155 379 l 1xfb
 144 379 l 2
 86 379 31 417 31 486 c 0
 31 563 89 598 141 598 c 0
 261 598 273 505 273 460 c 2xf6
 273 225 l 1
 273 225 308 286 340 324 c 0
 386 381 423 401 423 401 c 1
 421 401 393 429 393 478 c 0
 393 544 435 598 515 598 c 4xfa
182 485 m 0xf6
 182 515 167 525 144 525 c 0
 116 525 104 507 104 488 c 0
 104 468 118 447 144 447 c 0
 169 447 182 465 182 485 c 0xf6
517 525 m 0
 487 525 472 502 472 479 c 0
 472 457 487 434 517 434 c 0
 546 434 561 457 561 479 c 0xf280
 561 502 546 525 517 525 c 0
EndSplineSet
Fore
SplineSet
579 394 m 1xfd
 580 394 630 376 630 293 c 2
 630 0 l 1
 512 0 l 1
 512 302 l 2xfe
 512 321 509 337 483 337 c 0
 463 337 430 294 369 192 c 0
 327 122 290 78 273 0 c 1
 155 0 l 1
 155 388 l 1
 144 388 l 2
 86 388 31 426 31 495 c 0
 31 572 89 602 141 602 c 0
 261 602 273 514 273 469 c 2
 273 225 l 1
 273 225 308 286 340 324 c 0
 386 381 423 410 423 410 c 1
 421 410 393 438 393 487 c 0
 393 553 435 602 515 602 c 0
 556 602 630 584 630 491 c 0
 630 416 582 396 579 394 c 1xfd
179 494 m 0
 179 524 164 534 141 534 c 0
 113 534 101 516 101 497 c 0
 101 477 115 456 141 456 c 0
 166 456 179 474 179 494 c 0
516 534 m 0
 486 534 471 511 471 488 c 0
 471 466 486 443 516 443 c 0
 545 443 560 466 560 488 c 0xfd
 560 511 545 534 516 534 c 0
EndSplineSet
EndChar

StartChar: uni0E2C
Encoding: 204 3628 172
Width: 754
Flags: MW
HStem: 0 21G<156 283.241 536.483 662> 388 68<106.734 155.773> 457 62<415.191 536.516> 534 68<106.897 172.73> 602 62<416.135 536.336>
VStem: 33 70<460.517 530.472> 156 118<190 389> 338 70<529.596 590.738> 544 118<190 474 529.5 539.473>
DStem2: 274 190 408 290 0.419455 0.907776<0 146.985> 441 418 408 290 0.429692 -0.902976<101.401 250.137>
LayerCount: 2
Back
SplineSet
479 662 m 0xfec0
 573 662 611 610 612 610 c 1
 630 622 655 663 658 687 c 1
 757 656 l 1
 742 614 702 552 662 521 c 1
 662 0 l 1
 546 0 l 1
 408 290 l 1
 274 0 l 1xfdc0
 156 0 l 1
 156 385 l 1xfec0
 156 385 151 384 142 384 c 0
 74 384 33 433 33 492 c 0
 33 529 55 598 144 598 c 0
 247 598 274 528 274 466 c 2xfdc0
 274 190 l 1
 369 418 l 1
 441 418 l 1
 544 190 l 1
 544 474 l 1
 543 474 516 461 472 461 c 0
 415 461 337 480 337 556 c 0
 337 620 392 662 479 662 c 0xfec0
544 561 m 0
 544 587 509 602 478 602 c 0
 446 602 409 590 409 561 c 0
 409 529 448 518 478 518 c 0
 509 518 544 533 544 561 c 0
143 532 m 0
 118 532 105 512 105 493 c 0
 105 474 118 454 143 454 c 0
 168 454 180 474 180 493 c 0
 180 512 168 532 143 532 c 0
EndSplineSet
Fore
SplineSet
479 664 m 0
 573 664 611 610 612 610 c 0
 630 622 655 663 658 687 c 1
 757 656 l 1
 742 614 702 552 662 521 c 1
 662 0 l 1
 546 0 l 1
 408 290 l 1
 274 0 l 1
 156 0 l 1
 156 389 l 1
 156 389 151 388 142 388 c 0
 74 388 33 437 33 496 c 0
 33 533 55 602 144 602 c 0
 247 602 274 532 274 470 c 2
 274 190 l 1
 369 418 l 1
 441 418 l 1
 544 190 l 1
 544 474 l 1
 543 474 516 457 472 457 c 0
 415 457 338 480 338 556 c 0
 338 620 392 664 479 664 c 0
544 561 m 0
 544 587 509 602 478 602 c 0
 446 602 408 590 408 561 c 0
 408 529 448 519 478 519 c 0
 509 519 544 533 544 561 c 0
141 534 m 0
 116 534 103 514 103 495 c 0
 103 476 116 456 141 456 c 0
 166 456 178 476 178 495 c 0
 178 514 166 534 141 534 c 0
EndSplineSet
EndChar

StartChar: uni0E2D
Encoding: 205 3629 173
Width: 669
Flags: MW
HStem: 0 78<229.5 450.702> 195 68<222.414 269.962> 341 68<202.019 269.529> 524 78<205.759 416.198>
VStem: 104 118<85.2253 196> 274 70<267.226 337.288> 462 118<89.9847 481.979>
LayerCount: 2
Back
SplineSet
66 486 m 1xfb
 68 488 104 600 317 600 c 0
 540 600 580 482 580 425 c 2
 580 130 l 2
 580 24 510 0 441 0 c 2
 235 0 l 2
 116 0 104 87 104 110 c 2xfb
 104 276 l 2xf7
 104 339 136 409 233 409 c 0
 302 409 344 359 344 300 c 0
 344 240 300 195 236 195 c 0
 227 195 222 196 222 196 c 1
 222 124 l 2
 222 98 231 78 276 78 c 2
 401 78 l 2
 450 78 462 102 462 139 c 2
 462 403 l 2
 462 479 417 516 308 516 c 0
 178 516 150 445 143 431 c 1
 66 486 l 1xfb
236 342 m 0
 210 342 198 322 198 303 c 0xf7
 198 284 210 264 236 264 c 0
 262 264 275 284 275 303 c 0
 275 322 262 342 236 342 c 0
EndSplineSet
Fore
SplineSet
66 488 m 1
 68 490 104 602 317 602 c 0
 540 602 580 484 580 427 c 2
 580 130 l 2
 580 24 510 0 441 0 c 2
 235 0 l 2
 116 0 104 87 104 110 c 2
 104 276 l 2
 104 339 136 409 233 409 c 0
 302 409 344 359 344 300 c 0
 344 240 300 195 236 195 c 0
 227 195 222 196 222 196 c 1
 222 124 l 2
 222 98 231 78 276 78 c 2
 401 78 l 2
 450 78 462 102 462 139 c 2
 462 411 l 2
 462 487 417 524 308 524 c 0
 178 524 150 453 143 439 c 1
 66 488 l 1
235 341 m 0
 209 341 197 321 197 302 c 0
 197 283 209 263 235 263 c 0
 261 263 274 283 274 302 c 0
 274 321 261 341 235 341 c 0
EndSplineSet
EndChar

StartChar: uni0E2E
Encoding: 206 3630 174
Width: 656
Flags: MW
HStem: 0 78<215.545 439.346> 157 68<208.018 259.322> 302 68<190.786 259.484> 416 62<201.923 405.123> 540 62<204.591 406.871>
VStem: 90 118<85.2253 158> 263 70<228.984 298.912> 452 118<86.0598 442.854>
LayerCount: 2
Back
SplineSet
475 561 m 1xfd80
 484 561 507 593 507 630 c 1
 605 598 l 1
 600 579 573 518 543 497 c 1
 545 492 570 471 570 415 c 2
 570 130 l 2
 570 67 542 0 429 0 c 2
 221 0 l 2
 103 0 90 87 90 110 c 2xfd80
 90 238 l 2xfb80
 90 300 123 371 221 371 c 0
 282 371 333 327 333 262 c 0
 333 195 280 157 222 157 c 0
 213 157 208 158 208 158 c 1
 208 124 l 2
 208 82 240 78 264 78 c 2
 396 78 l 2
 436 78 452 100 452 134 c 2
 452 409 l 2
 452 429 451 440 445 443 c 1
 420 432 337 417 277 417 c 0
 204 417 81 438 81 503 c 0
 81 568 194 602 311 602 c 0
 426 602 475 561 475 561 c 1xfd80
418 512 m 1
 414 513 380 540 305 540 c 0
 260 540 192 535 192 507 c 0
 192 484 229 478 299 478 c 0
 389 478 408 501 418 512 c 1
221 302 m 0
 195 302 182 283 182 264 c 0xfb80
 182 244 195 225 221 225 c 0
 246 225 258 244 258 264 c 0
 258 283 246 302 221 302 c 0
EndSplineSet
Fore
SplineSet
475 561 m 1
 484 561 507 593 507 630 c 1
 605 598 l 1
 600 579 573 518 543 497 c 1
 545 492 570 471 570 415 c 2
 570 130 l 2
 570 67 542 0 429 0 c 2
 221 0 l 2
 103 0 90 87 90 110 c 2
 90 238 l 2
 90 300 123 370 221 370 c 0
 282 370 333 327 333 262 c 0
 333 195 280 157 222 157 c 0
 213 157 208 158 208 158 c 1
 208 124 l 2
 208 82 240 78 264 78 c 2
 396 78 l 2
 436 78 452 100 452 134 c 2
 452 409 l 2
 452 429 451 440 445 443 c 1
 420 432 337 416 277 416 c 0
 204 416 81 438 81 503 c 0
 81 568 194 602 311 602 c 0
 426 602 475 561 475 561 c 1
418 512 m 1
 414 513 383 540 308 540 c 0
 263 540 199 535 199 507 c 0
 199 484 232 478 302 478 c 0
 392 478 408 501 418 512 c 1
226 302 m 0
 200 302 187 283 187 264 c 0
 187 244 200 225 226 225 c 0
 251 225 263 244 263 264 c 0
 263 283 251 302 226 302 c 0
EndSplineSet
EndChar

StartChar: uni0E2F
Encoding: 207 3631 175
Width: 623
Flags: W
HStem: -6 83<380 417.676> 330 78<214.684 359.209> 431 52<213 237.221> 549 53<179.147 238.125>
VStem: 97 79<484.667 546.862> 240 66<485.418 546.754> 441 117<98.7941 398 496.796 576.308>
LayerCount: 2
Back
SplineSet
277 402 m 0
 426.78 402 445 562.294 445 595 c 1
 456 595 l 2
 522 595 558 566 558 510 c 2
 558 179 l 2
 558 113 556 58 492 21 c 0
 444 -5 404 -6 380 -6 c 1
 328 77 l 1
 363 77 397 76 431 110 c 0
 440 121 441 163.98 441 190 c 2
 441 391 l 1
 441 391 398 328 285 328 c 0
 179 328 97 392 97 485 c 0
 97 550 142 598 211 598 c 0
 273 598 306 558 306 514 c 0
 306 444 245 427 213 427 c 1
 213 427 233 402 277 402 c 0
208 545 m 0
 187 545 176 528 176 512 c 0
 176 496 187 479 208 479 c 0
 230 479 240 496 240 512 c 0
 240 528 230 545 208 545 c 0
EndSplineSet
Fore
SplineSet
277 408 m 0
 427 408 445 569 445 602 c 1
 456 602 l 2
 522 602 558 573 558 517 c 2
 558 179 l 2
 558 46 502 -6 380 -6 c 1
 328 77 l 1
 431 77 441 106 441 190 c 2
 441 398 l 1
 441 398 398 330 285 330 c 0
 179 330 97 396 97 489 c 0
 97 554 142 602 211 602 c 0
 273 602 306 562 306 518 c 0
 306 448 245 431 213 431 c 1
 213 431 233 408 277 408 c 0
208 549 m 0
 187 549 176 532 176 516 c 0
 176 500 187 483 208 483 c 0
 230 483 240 500 240 516 c 0
 240 532 230 549 208 549 c 0
EndSplineSet
EndChar

StartChar: uni0E30
Encoding: 208 3632 176
Width: 531
Flags: W
HStem: 14 76<131.792 258.605> 187 61<131.029 209.315> 340 76<131.485 257.019> 513 61<130.995 209.338>
VStem: 55 68<97.3438 179.89 423.766 506.601> 218 63<106.117 178.897 432.118 505.181> 218 55<106.175 147.879 432.175 474.879>
LayerCount: 2
Back
SplineSet
172 574 m 0xfa
 230 574 281 535 281 476 c 0xfc
 281 452 273 433 273 432 c 1
 273 432 319 438 372 475 c 0
 441 523 471 587 471 587 c 1
 471 457 l 1
 471 457 432 403 353 372 c 0
 302 352 261 341 217 341 c 0
 95 341 55 415 55 465 c 0
 55 523 101 574 172 574 c 0xfa
171 248 m 0
 225 248 281 209 281 149 c 0xfc
 281 125 273 107 273 106 c 1xfa
 273 106 319 112 372 149 c 0
 441 195 471 261 471 261 c 1
 471 129 l 1
 471 129 432 75 353 44 c 0
 303 25 263 14 221 14 c 0
 93 14 55 88 55 138 c 0
 55 189 95 248 171 248 c 0
172 90 m 0
 203 90 218 113 218 137 c 0
 218 162 202 187 170 187 c 0
 138 187 123 163 123 139 c 0
 123 115 139 90 172 90 c 0
172 418 m 0
 203 418 218 441 218 465 c 0
 218 490 202 515 170 515 c 0
 138 515 123 491 123 467 c 0
 123 443 139 418 172 418 c 0
EndSplineSet
Fore
SplineSet
172 574 m 0xfa
 230 574 281 535 281 476 c 0xfc
 281 452 273 433 273 432 c 2
 273 432 319 438 372 475 c 0
 441 523 471 587 471 587 c 1
 471 457 l 1
 471 457 432 403 353 372 c 0
 302 352 261 340 217 340 c 0
 95 340 55 415 55 465 c 0
 55 523 101 574 172 574 c 0xfa
171 248 m 0
 225 248 281 209 281 149 c 0xfc
 281 125 273 107 273 106 c 2xfa
 273 106 318 113 372 149 c 0
 441 195 471 261 471 261 c 1
 471 129 l 1
 471 129 432 75 353 44 c 0
 303 25 263 14 221 14 c 0
 93 14 55 88 55 138 c 0
 55 189 95 248 171 248 c 0
172 90 m 0
 203 90 218 113 218 137 c 0
 218 162 202 187 170 187 c 0
 138 187 123 163 123 139 c 0
 123 115 139 90 172 90 c 0
172 416 m 0
 203 416 218 439 218 463 c 0
 218 488 202 513 170 513 c 0
 138 513 123 489 123 465 c 0
 123 441 139 416 172 416 c 0
EndSplineSet
EndChar

StartChar: uni0E31
Encoding: 209 3633 177
Width: 0
Flags: W
HStem: 682 77<-262.25 -120.762> 873 57<-389.16 -310.532>
VStem: -456 61<788.005 866.205> -303 65<787.265 865.302>
AnchorPoint: "AboveMark" -170 988 basemark 0
AnchorPoint: "AboveBase" -87 613 mark 0
LayerCount: 2
Fore
SplineSet
-235 759 m 0
 -48 759 32 913 35 914 c 1
 35 786 l 1
 0 759 -5 734 -106 700 c 0
 -145 687 -186 682 -225 682 c 0
 -288 682 -343 695 -372 707 c 0
 -431 730 -456 778 -456 822 c 0
 -456 880 -417 930 -349 930 c 0
 -295 930 -238 894 -238 828 c 0
 -238 784 -265 760 -265 760 c 1
 -263 760 -252 759 -235 759 c 0
-395 828 m 0
 -395 790 -365 781 -349 781 c 0
 -326 781 -303 796 -303 827 c 0
 -303 854 -324 873 -349 873 c 0
 -372 873 -395 858 -395 828 c 0
EndSplineSet
EndChar

StartChar: uni0E32
Encoding: 210 3634 178
Width: 493
Flags: W
HStem: 0 21G<314 432> 524 78<129.314 272.809>
VStem: 314 118<0 479.384>
LayerCount: 2
Back
SplineSet
101 449 m 1
 14 478 l 1
 14 480 26 598 221 598 c 0
 391 598 432 477 432 371 c 2
 432 0 l 1
 314 0 l 1
 314 360 l 2
 314 426 300 507 208 507 c 0
 113 507 101 451 101 449 c 1
EndSplineSet
Fore
SplineSet
101 453 m 1
 14 482 l 1
 14 484 26 602 221 602 c 0
 391 602 432 481 432 375 c 2
 432 0 l 1
 314 0 l 1
 314 377 l 2
 314 443 300 524 208 524 c 0
 113 524 103 468 101 453 c 1
EndSplineSet
EndChar

StartChar: uni0E34
Encoding: 212 3636 180
Width: 0
Flags: W
HStem: 718 59<-460.657 -205.108> 848 66<-411.796 -247.744>
AnchorPoint: "AboveMark" -147 988 basemark 0
AnchorPoint: "AboveBase" -87 613 mark 0
LayerCount: 2
Fore
SplineSet
-75 638 m 1
 -118 675 -228 718 -377 718 c 0
 -503 718 -570 682 -572 682 c 1
 -566 792 -490 914 -328 914 c 0
 -139 914 -74 710 -75 638 c 1
-181 748 m 1
 -194 787 -240 848 -332 848 c 0
 -442 848 -461 766 -461 766 c 1
 -461 766 -419 777 -354 777 c 0
 -259 777 -181 748 -181 748 c 1
EndSplineSet
EndChar

StartChar: uni0E35
Encoding: 213 3637 181
Width: 0
Flags: W
HStem: 701 59<-459.719 -203.382> 831 65<-411.005 -245.29>
VStem: -204 115<863 938>
AnchorPoint: "AboveMark" -147 988 basemark 0
AnchorPoint: "AboveBase" -87 613 mark 0
LayerCount: 2
Fore
SplineSet
-74 621 m 1
 -116 657 -226 701 -376 701 c 0
 -502 701 -570 665 -570 665 c 1
 -569 778 -482 896 -332 896 c 0
 -281 896 -236 882 -204 863 c 1
 -204 938 l 1
 -89 938 l 1
 -89 705 l 1
 -82 681 -74 638 -74 621 c 1
-179 731 m 1
 -192 769 -238 831 -331 831 c 0
 -441 831 -460 750 -460 750 c 1
 -460 750 -418 760 -354 760 c 0
 -258 760 -179 731 -179 731 c 1
EndSplineSet
EndChar

StartChar: uni0E36
Encoding: 214 3638 182
Width: 0
Flags: W
HStem: 700 59<-460.657 -204.136> 829 66<-412.626 -252.186> 907 52<-189.004 -111.007>
VStem: -103 49<819.902 899.983>
AnchorPoint: "AboveMark" -156 988 basemark 0
AnchorPoint: "AboveBase" -87 613 mark 0
LayerCount: 2
Fore
SplineSet
-54 866 m 0
 -54 805 -89 779 -120 765 c 1
 -75 690 -81 668 -80 635 c 1
 -124 666 -242 700 -377 700 c 0
 -503 700 -570 664 -572 664 c 1
 -572 724 -524 895 -332 895 c 0
 -302 895 -276 890 -258 884 c 1
 -258 894 -223 959 -153 959 c 0
 -97 959 -54 922 -54 866 c 0
-181 730 m 1
 -189 753 -226 829 -332 829 c 0
 -442 829 -461 748 -461 748 c 1
 -461 748 -419 759 -354 759 c 0
 -259 759 -181 730 -181 730 c 1
-196 860 m 0
 -196 832 -176 814 -146 814 c 0
 -118 814 -103 837 -103 860 c 0
 -103 883 -119 907 -151 907 c 0
 -187 907 -196 875 -196 860 c 0
EndSplineSet
EndChar

StartChar: uni0E37
Encoding: 215 3639 183
Width: 0
Flags: W
HStem: 712 59<-470.312 -216.434> 842 65<-422.153 -340.081>
VStem: -337 92<907 953> -195 100<857 953>
AnchorPoint: "AboveMark" -216 988 basemark 0
AnchorPoint: "AboveBase" -87 613 mark 0
LayerCount: 2
Fore
SplineSet
-86 632 m 1
 -128 667 -238 712 -390 712 c 0
 -516 712 -582 676 -584 676 c 1
 -584 758 -523 907 -337 907 c 1
 -337 953 l 1
 -245 953 l 1
 -245 894 l 1
 -209 886 -198 857 -195 857 c 1
 -195 953 l 1
 -95 953 l 1
 -95 684 l 1
 -86 632 l 1
-193 742 m 1
 -201 766 -239 842 -345 842 c 0
 -455 842 -472 760 -472 760 c 1
 -472 760 -431 771 -367 771 c 0
 -271 771 -193 742 -193 742 c 1
EndSplineSet
EndChar

StartChar: uni0E38
Encoding: 216 3640 184
Width: 0
Flags: MW
HStem: -196 59<-225.248 -193.164> -81 53<-224.088 -171.425>
VStem: -282 56<-135.273 -82.4466> -193 106<-308 -195>
AnchorPoint: "BelowBase" -87 -26 mark 0
LayerCount: 2
Fore
SplineSet
-185 -28 m 0
 -148 -28 -87 -41 -87 -143 c 2
 -87 -308 l 1
 -193 -308 l 1
 -193 -195 l 1
 -197 -196 -201 -196 -205 -196 c 0
 -236 -196 -282 -167 -282 -113 c 0
 -282 -78 -263 -28 -185 -28 c 0
-170 -109 m 0
 -170 -94 -183 -81 -198 -81 c 0
 -213 -81 -226 -94 -226 -109 c 0
 -226 -124 -213 -137 -198 -137 c 0
 -183 -137 -170 -124 -170 -109 c 0
EndSplineSet
Substitution2: "Thai Sara U Nikhahit Reordering" uni0E4D
Substitution2: "Thai Sara U Thanthakhat Reordering" uni0E4C.low
Substitution2: "Thai Sara U Mai Chattawa Reordering" uni0E4B.low
Substitution2: "Thai Sara U Mai Tri Reordering" uni0E4A.low
Substitution2: "Thai Sara U Mai Tho Reordering" uni0E49.low
Substitution2: "Thai Sara U Mai Ek Reordering" uni0E48.low
EndChar

StartChar: uni0E39
Encoding: 217 3641 185
Width: 0
Flags: W
HStem: -296 71<-256 -200.428> -220 65<-395.209 -357.024> -84 58<-396.58 -339.263>
VStem: -460 61<-153.108 -85.5761> -336 80<-154.092 -87.8541> -197 116<-224.726 -31>
AnchorPoint: "BelowBase" -87 -26 mark 0
LayerCount: 2
Fore
SplineSet
-81 -227 m 2
 -81 -245 -112 -296 -152 -296 c 2
 -357 -296 l 1
 -357 -219 l 1
 -362 -219 -367 -220 -371 -220 c 0
 -442 -220 -460 -167 -460 -124 c 0
 -460 -70 -420 -26 -360 -26 c 0
 -283 -26 -256 -87 -256 -149 c 2
 -256 -225 l 1
 -222 -225 l 2
 -205 -225 -197 -201 -197 -181 c 2
 -197 -31 l 1
 -81 -31 l 1
 -81 -227 l 2
-366 -155 m 0
 -345 -155 -336 -139 -336 -122 c 0
 -336 -103 -347 -84 -368 -84 c 0
 -389 -84 -399 -102 -399 -119 c 0
 -399 -137 -388 -155 -366 -155 c 0
EndSplineSet
Substitution2: "Thai Sara UU Nikhahit Reordering" uni0E4D
Substitution2: "Thai Sara UU Thanthakhat Reordering" uni0E4C.low
Substitution2: "Thai Sara UU Mai Chattawa Reordering" uni0E4B.low
Substitution2: "Thai Sara UU Mai Tri Reordering" uni0E4A.low
Substitution2: "Thai Sara UU Mai Tho Reordering" uni0E49.low
Substitution2: "Thai Sara UU Mai Ek Reordering" uni0E48.low
EndChar

StartChar: uni0E3A
Encoding: 218 3642 186
Width: 0
Flags: W
HStem: -261 175<-217.066 -98.1206>
VStem: -244 174<-232.074 -115.063>
AnchorPoint: "BelowBase" -87 -26 mark 0
LayerCount: 2
Fore
SplineSet
-158 -86 m 0
 -100 -86 -70 -130 -70 -174 c 0
 -70 -217 -100 -261 -158 -261 c 0
 -216 -261 -244 -217 -244 -174 c 0
 -244 -130 -216 -86 -158 -86 c 0
EndSplineSet
Substitution2: "Thai Phinthu Nikhahit Reordering" uni0E4D
Substitution2: "Thai Phinthu Thanthakhat Reordering" uni0E4C.low
Substitution2: "Thai Phinthu Mai Chattawa Reordering" uni0E4B.low
Substitution2: "Thai Phinthu Mai Tri Reordering" uni0E4A.low
Substitution2: "Thai Phinthu Mai Tho Reordering" uni0E49.low
Substitution2: "Thai Phinthu Mai Ek Reordering" uni0E48.low
Substitution2: "Thai Phinthu Maitaikhu Reordering" uni0E47
EndChar

StartChar: uni0E4D.high
Encoding: 219 63262 187
Width: 0
Flags: W
HStem: 995 66<-243.589 -152.126> 1176 69<-242.012 -152.126>
VStem: -323 68<1073.4 1163.69> -140 67<1073.4 1163.69>
AnchorPoint: "AboveMark" -197 988 mark 0
LayerCount: 2
Fore
SplineSet
-198 1245 m 0
 -114 1245 -73 1182 -73 1120 c 0
 -73 1058 -114 995 -198 995 c 0
 -282 995 -323 1058 -323 1120 c 0
 -323 1182 -282 1245 -198 1245 c 0
-198 1061 m 0
 -160 1061 -140 1090 -140 1118 c 0
 -140 1147 -160 1176 -198 1176 c 0
 -236 1176 -255 1147 -255 1118 c 0
 -255 1090 -236 1061 -198 1061 c 0
EndSplineSet
EndChar

StartChar: dottedcircle
Encoding: 221 9676 188
Width: 718
Flags: W
HStem: -14 75<337.723 405.255> 23 75<187.745 255.277> 34 75<466.723 534.255> 115 75<89.7227 157.255> 127 74<549.006 615.664> 256 75<584.723 652.255> 264 75<52.7227 120.255> 397 75<97.5299 163.618 552.33 612.052> 481 75<454.317 522.627> 489 75<198.7 266.233> 523 75<336.53 404.233>
VStem: 49 75<267.7 335.233> 86 75<118.723 186.255> 94 73<399.984 469.031> 184 75<26.745 94.2773> 195 75<492.723 560.255> 334 75<-10.2773 57.255 527.584 593.447> 451 75<484.723 552.426> 463 75<37.7227 105.255> 546 73<130.181 197.664 394.355 462.664> 581 75<259.745 327.277>
LayerCount: 2
Fore
SplineSet
130 472 m 0x010480
 152 472 167 455 167 435 c 0
 167 414 152 397 130 397 c 0
 110 397 94 414 94 435 c 0
 94 455 110 472 130 472 c 0x010480
231 564 m 0x014180
 253 564 270 547 270 526 c 0
 270 506 253 489 231 489 c 0
 212 489 195 506 195 526 c 0
 195 547 212 564 231 564 c 0x014180
222 98 m 0x410280
 242 98 259 81 259 61 c 0x810280
 259 40 242 23 222 23 c 0x410280
 201 23 184 40 184 61 c 0x810280
 184 81 201 98 222 98 c 0x410280
123 190 m 0x110880
 144 190 161 173 161 152 c 0
 161 132 144 115 123 115 c 0
 103 115 86 132 86 152 c 0
 86 173 103 190 123 190 c 0x110880
500 109 m 0x2100a0
 521 109 538 92 538 71 c 0
 538 51 521 34 500 34 c 0
 480 34 463 51 463 71 c 0
 463 92 480 109 500 109 c 0x2100a0
582 201 m 0x090090
 602 201 619 184 619 164 c 0
 619 143 602 127 582 127 c 0
 561 127 546 143 546 164 c 0
 546 184 561 201 582 201 c 0x090090
582 466 m 0
 602 466 619 449 619 429 c 0
 619 408 602 391 582 391 c 0
 561 391 546 408 546 429 c 0
 546 449 561 466 582 466 c 0
487 556 m 0x0180c0
 509 556 526 540 526 518 c 0
 526 498 509 481 487 481 c 0
 468 481 451 498 451 518 c 0
 451 540 468 556 487 556 c 0x0180c0
618 331 m 0x050088
 639 331 656 314 656 294 c 0
 656 273 639 256 618 256 c 0
 598 256 581 273 581 294 c 0
 581 314 598 331 618 331 c 0x050088
86 339 m 0x030880
 107 339 124 322 124 300 c 0x031080
 124 281 107 264 86 264 c 0x030880
 66 264 49 281 49 300 c 0x031080
 49 322 66 339 86 339 c 0x030880
371 61 m 0x810080
 392 61 409 44 409 23 c 0x410080
 409 3 392 -14 371 -14 c 0x810080
 351 -14 334 3 334 23 c 0x410080
 334 44 351 61 371 61 c 0x810080
369 598 m 0x012080
 391 598 408 581 408 561 c 0
 408 540 391 523 369 523 c 0
 349 523 333 540 333 561 c 0
 333 581 349 598 369 598 c 0x012080
EndSplineSet
EndChar

StartChar: uni0E3F
Encoding: 223 3647 189
Width: 646
Flags: W
HStem: 0 97<202 273 369 429.225> 316 89<202 273 369 420.012> 608 92<202 273 369 425.192>
VStem: 83 119<97 316 405 608> 273 96<-124 0 98 314 407 608 700 813> 458 124<445.541 574.399> 472 129<138.555 265.451>
LayerCount: 2
Fore
SplineSet
273 405 m 1xf8
 273 608 l 1
 202 608 l 1
 202 405 l 1
 273 405 l 1xf8
273 97 m 1
 273 316 l 1
 202 316 l 1
 202 97 l 1
 273 97 l 1
369 98 m 1
 451 105 472 163 472 210 c 0xfa
 472 242 455 310 369 314 c 1
 369 98 l 1
369 407 m 1
 421 410 458 452 458 511 c 0xfc
 458 559 425 608 369 608 c 1
 369 407 l 1
273 813 m 1
 369 813 l 1
 369 700 l 1
 417 700 468 700 510 670 c 0
 558 637 582 588 582 525 c 0xfc
 582 453 535 388 457 365 c 1
 455 357 l 1
 544 337 601 265 601 179 c 0xfa
 601 123 570 72 527 37 c 0
 484 2 428 0 369 0 c 1
 369 -124 l 1
 273 -124 l 1
 273 0 l 1
 83 0 l 1
 83 700 l 1
 273 700 l 1
 273 813 l 1
EndSplineSet
EndChar

StartChar: uni0E40
Encoding: 224 3648 190
Width: 360
Flags: MW
HStem: -5 68<191.268 258.017> 141 68<210.838 257.529> 575 20G<92 210>
VStem: 92 118<208 595> 262 70<66.545 136.536>
LayerCount: 2
Back
SplineSet
332 106 m 0xf4
 332 35 280 -2 214 -2 c 0
 119 -2 92 71 92 130 c 2xec
 92 595 l 1
 210 595 l 1
 210 212 l 5
 211 212 215 213 223 213 c 4
 254 213 332 192 332 106 c 0xf4
222 144 m 0
 196 144 183 124 183 105 c 0
 183 86 196 66 222 66 c 0
 248 66 260 86 260 105 c 0
 260 124 248 144 222 144 c 0
EndSplineSet
Fore
SplineSet
332 103 m 0
 332 32 280 -5 214 -5 c 0
 119 -5 92 68 92 127 c 2
 92 595 l 1
 210 595 l 1
 210 208 l 1
 211 208 215 209 223 209 c 0
 254 209 332 189 332 103 c 0
224 141 m 0
 198 141 186 121 186 102 c 0
 186 83 198 63 224 63 c 0
 250 63 262 83 262 102 c 0
 262 121 250 141 224 141 c 0
EndSplineSet
EndChar

StartChar: uni0E41
Encoding: 225 3649 191
Width: 649
Flags: MW
HStem: -5 68<184.681 252.303 481.269 547.461> 142 68<205.838 252.328 500.132 548.163> 575 20G<87 205 382 500>
VStem: 87 118<209 595> 257 70<67.0067 137.948> 382 118<209 595> 552 70<66.8818 138.569>
LayerCount: 2
Back
SplineSet
622 109 m 0xe680
 622 64 598 -2 504 -2 c 0
 408 -2 382 71 382 130 c 2xe580
 382 595 l 1
 500 595 l 1
 500 212 l 1
 500 212 505 213 512 213 c 0
 562 213 622 178 622 109 c 0xe680
327 107 m 0
 327 36 277 -2 210 -2 c 0
 114 -2 87 71 87 130 c 2xec80
 87 595 l 1
 205 595 l 1
 205 212 l 1xf480
 206 212 210 213 218 213 c 0
 259 213 327 186 327 107 c 0
504 143 m 4
 479 143 466 123 466 104 c 4xe580
 466 84 479 64 504 64 c 4
 530 64 542 84 542 104 c 4
 542 123 530 143 504 143 c 4
224 143 m 4
 198 143 186 123 186 104 c 4xec80
 186 84 198 64 224 64 c 4
 250 64 263 84 263 104 c 4
 263 123 250 143 224 143 c 4
EndSplineSet
Fore
SplineSet
622 106 m 0
 622 61 598 -5 504 -5 c 0
 408 -5 382 68 382 127 c 2
 382 595 l 1
 500 595 l 1
 500 209 l 1
 500 209 505 210 512 210 c 0
 562 210 622 175 622 106 c 0
327 104 m 0
 327 33 277 -5 210 -5 c 0
 114 -5 87 68 87 127 c 2
 87 595 l 1
 205 595 l 1
 205 209 l 1
 206 209 210 210 218 210 c 0
 259 210 327 183 327 104 c 0
514 142 m 0
 489 142 476 122 476 103 c 0
 476 83 489 63 514 63 c 0
 540 63 552 83 552 103 c 0
 552 122 540 142 514 142 c 0
219 142 m 0
 193 142 181 122 181 103 c 0
 181 83 193 63 219 63 c 0
 245 63 257 83 257 103 c 0
 257 122 245 142 219 142 c 0
EndSplineSet
EndChar

StartChar: uni0E42
Encoding: 226 3650 192
Width: 389
Flags: MW
HStem: -5 68<221.153 287.326> 142 68<239.227 287.238> 941 78<292.818 458.149> 985 78<112.558 275.521>
VStem: 121 118<209 829.721> 292 70<67.3987 137.787>
LayerCount: 2
Back
SplineSet
167 1063 m 0xda
 239 1063 316 1021 388 1021 c 0
 436 1021 448 1053 454 1056 c 1
 489 975 l 1
 489 975 464 941 395 941 c 0xea
 331 941 252 991 182 991 c 0
 98 991 86 924 86 924 c 1
 87 924 154 910 191 883 c 0
 237 850 239 825 239 787 c 2
 239 212 l 1xda
 239 212 244 213 252 213 c 0
 298 213 362 180 362 105 c 0
 362 41 315 -2 243 -2 c 0
 147 -2 121 71 121 130 c 2xd6
 121 773 l 2
 121 802 115 828 89 842 c 0
 35 868 -12 869 -40 869 c 1
 -40 874 -41 995 72 1042 c 0
 108 1057 139 1063 167 1063 c 0xda
252 143 m 4
 227 143 215 123 215 104 c 4xc6
 215 84 227 64 252 64 c 4
 277 64 290 84 290 104 c 4
 290 123 277 143 252 143 c 4
EndSplineSet
Fore
SplineSet
167 1063 m 0xdc
 239 1063 316 1019 388 1019 c 0
 436 1019 448 1053 454 1056 c 1
 489 975 l 1
 489 975 464 941 395 941 c 0xec
 331 941 252 985 182 985 c 0
 98 985 86 924 86 924 c 1
 150 924 239 868 239 787 c 2
 239 209 l 1
 239 209 244 210 252 210 c 0
 298 210 362 177 362 102 c 0
 362 38 315 -5 243 -5 c 0
 147 -5 121 68 121 127 c 2
 121 773 l 2
 121 830.6 80.775 869 -40 869 c 1
 -40 985.4 57.8805 1063 167 1063 c 0xdc
254 142 m 0
 229 142 217 122 217 103 c 0
 217 83 229 63 254 63 c 0
 279 63 292 83 292 103 c 0
 292 122 279 142 254 142 c 0
EndSplineSet
EndChar

StartChar: uni0E43
Encoding: 227 3651 193
Width: 452
Flags: MW
HStem: -5 68<283.924 353.017> 142 68<305.746 353.317> 722 51<44.0442 107.498> 878 51<40.0235 101.188> 1006 68<75.1794 215.528>
VStem: -45 79<787.461 919.72 929 963.996> 112 52<776.012 870.304> 187 118<209 767.395> 247 97<801.36 972.679> 357 70<66.5529 137.981>
LayerCount: 2
Back
SplineSet
427 106 m 0xff20
 427 35 375 -2 309 -2 c 0
 214 -2 187 71 187 130 c 2xfea0
 187 670 l 2xff20
 187 787 247 783 247 898 c 0
 247 985 197 1007 143 1007 c 0
 55 1007 40 932 40 929 c 1
 42 929 50 932 64 932 c 0
 79 932 99 929 124 917 c 0
 150 903 164 864 164 825 c 0
 164 742 109 723 76 723 c 0
 7 723 -45 793 -45 874 c 0
 -45 992 28 1074 159 1074 c 0
 266 1074 344 1007 344 906 c 0xfe60
 344 816 305 810 305 677 c 2
 305 212 l 1
 306 212 310 213 318 213 c 0
 356 213 427 188 427 106 c 0xff20
77 776 m 0
 101 776 112 798 112 822 c 0
 112 851 97 881 69 881 c 0
 45 881 34 859 34 835 c 0
 34 806 49 776 77 776 c 0
320 143 m 0
 294 143 281 123 281 104 c 0
 281 84 294 64 320 64 c 0
 346 64 358 84 358 104 c 0
 358 123 346 143 320 143 c 0
EndSplineSet
Fore
SplineSet
427 103 m 0xff40
 427 32 375 -5 309 -5 c 0
 214 -5 187 68 187 127 c 2
 187 670 l 2xff40
 187 787 247 783 247 898 c 0
 247 985 197 1006 143 1006 c 0
 55 1006 40 932 40 929 c 1
 42 929 50 932 64 932 c 0
 110 932 164 911 164 825 c 0
 164 742 109 722 76 722 c 0
 7 722 -45 793 -45 874 c 0
 -45 992 28 1074 159 1074 c 0
 266 1074 344 1007 344 906 c 0xfec0
 344 816 305 810 305 677 c 2
 305 209 l 1
 306 209 310 210 318 210 c 0
 356 210 427 185 427 103 c 0xff40
77 773 m 0
 101 773 112 795 112 819 c 0
 112 848 97 878 69 878 c 0
 45 878 34 856 34 832 c 0
 34 803 49 773 77 773 c 0
319 142 m 0
 293 142 280 122 280 103 c 0
 280 83 293 63 319 63 c 0
 345 63 357 83 357 103 c 0
 357 122 345 142 319 142 c 0
EndSplineSet
EndChar

StartChar: uni0E44
Encoding: 228 3652 194
Width: 458
Flags: MW
HStem: -5 68<276.797 346.122> 141 68<297.765 345.328> 943 118<191.957 264.5>
VStem: 179 118<208 796.62> 239 106<841.795 999> 350 70<66.9989 137.082>
LayerCount: 2
Back
SplineSet
420 107 m 0xf2
 420 36 369 -2 302 -2 c 0
 206 -2 179 71 179 130 c 2xea
 179 710 l 2xf2
 179 788 239 850 239 914 c 0
 239 938 225 943 216 943 c 0
 175 943 132 791 82 791 c 0
 24 791 23 951 -37 951 c 0
 -42 951 -47 950 -49 950 c 1
 -25 1076 l 1
 -16 1076 l 2
 76 1076 61 933 97 933 c 0
 133 933 163 1061 247 1061 c 0
 282 1061 345 1042 345 956 c 0xe6
 345 870 297 800 297 708 c 2
 297 212 l 1
 298 212 302 213 310 213 c 0
 353 213 420 184 420 107 c 0xf2
311 144 m 0
 285 144 272 124 272 105 c 0
 272 86 285 66 311 66 c 0
 336 66 349 86 349 105 c 0
 349 124 336 144 311 144 c 0
EndSplineSet
Fore
SplineSet
420 104 m 0xf4
 420 33 369 -5 302 -5 c 0
 206 -5 179 68 179 127 c 2
 179 710 l 2xf4
 179 788 239 850 239 914 c 0
 239 938 225 943 216 943 c 0
 175 943 132 791 82 791 c 0
 24 791 23 951 -37 951 c 0
 -42 951 -47 950 -49 950 c 1
 -25 1076 l 1
 -16 1076 l 2
 76 1076 61 933 97 933 c 0
 133 933 163 1061 247 1061 c 0
 282 1061 345 1042 345 956 c 0xec
 345 870 297 800 297 708 c 2
 297 208 l 1
 298 208 302 209 310 209 c 0
 353 209 420 181 420 104 c 0xf4
312 141 m 0
 286 141 273 121 273 102 c 0
 273 83 286 63 312 63 c 0
 337 63 350 83 350 102 c 0
 350 121 337 141 312 141 c 0
EndSplineSet
EndChar

StartChar: uni0E45
Encoding: 229 3653 195
Width: 308
Flags: W
HStem: 524 78<-62.9886 80.1624>
VStem: 121 118<-218 479.384>
LayerCount: 2
Back
SplineSet
-92 446 m 1
 -179 475 l 1
 -179 477 -167 595 29 595 c 0
 198 595 239 474 239 368 c 2
 239 -192 l 1
 121 -192 l 1
 121 357 l 2
 121 423 107 504 15 504 c 0
 -78 504 -92 448 -92 446 c 1
EndSplineSet
Fore
SplineSet
-92 453 m 1
 -179 482 l 1
 -179 484 -167 602 29 602 c 0
 198 602 239 481 239 375 c 2
 239 -218 l 1
 121 -218 l 1
 121 377 l 2
 121 443 107 524 15 524 c 0
 -78 524 -90 468 -92 453 c 1
EndSplineSet
EndChar

StartChar: uni0E46
Encoding: 230 3654 196
Width: 675
Flags: W
HStem: 267 57<226.374 280.173> 383 57<231 279.806> 582 20G<198 296.852 408.926 490>
VStem: 282 62<325.459 381.958> 484 118<-91.8848 501.976>
LayerCount: 2
Back
SplineSet
344 354 m 0
 344 321 325 263 247 263 c 0
 161 263 122 341 122 417 c 0
 122 448 131 577 265 598 c 1
 351 544 l 1
 443 598 l 1
 537 595 602 539 602 459 c 2
 602 32 l 2
 602 -48 597 -116 543 -172 c 0
 483 -231 423 -236 422 -236 c 1
 346 -155 l 1
 351 -155 420 -138 449 -109 c 0
 481 -75 484 -41 484 2 c 2
 484 442 l 2
 484 482 456 510 438 515 c 1
 351 463 l 1
 268 515 l 1
 266 515 228 502 228 449 c 0
 228 438 231 433 231 431 c 1
 233 431 246 436 262 436 c 0
 305 436 344 403 344 354 c 0
253 385 m 0
 234 385 224 370 224 356 c 0
 224 341 234 326 253 326 c 0
 272 326 282 341 282 356 c 0
 282 370 272 385 253 385 c 0
EndSplineSet
Fore
SplineSet
344 358 m 0
 344 325 325 267 247 267 c 0
 161 267 122 345 122 421 c 0
 122 452 131 581 265 602 c 1
 351 548 l 1
 443 602 l 1
 537 599 602 543 602 463 c 2
 602 2 l 2
 602 -142 528 -213 422 -236 c 1
 346 -155 l 1
 431 -131 484 -113 484 2 c 2
 484 446 l 2
 484 486 456 514 438 519 c 1
 351 467 l 1
 268 519 l 1
 266 519 228 506 228 453 c 0
 228 442 231 437 231 435 c 1
 233 435 246 440 262 440 c 0
 305 440 344 407 344 358 c 0
253 383 m 0
 234 383 224 368 224 354 c 0
 224 339 234 324 253 324 c 0
 272 324 282 339 282 354 c 0
 282 368 272 383 253 383 c 0
EndSplineSet
EndChar

StartChar: uni0E47
Encoding: 231 3655 197
Width: 0
Flags: W
HStem: 674 63<-205.466 -150.455> 759 94<-359.816 -290.146> 808 60<-205.712 -150.696> 926 80<-341.091 -138.857> 942 70<-405.292 -201.77>
VStem: -524 92<793.621 913.876> -148 52<738.228 806.438> -124 99<1021.79 1093>
AnchorPoint: "AboveBase" -87 613 mark 0
LayerCount: 2
Fore
SplineSet
-217 1006 m 0x96
 -116 1006 -132 1043 -124 1093 c 1
 -25 1093 l 1
 -30 995 -59 926 -182 926 c 0x95
 -238 926 -281 942 -340 942 c 0
 -410 942 -432 898 -432 845 c 0
 -432 802 -402 786 -400 786 c 1
 -400 796 -388 853 -342 853 c 0xcd
 -302 853 -261 805 -261 805 c 1
 -261 805 -248 868 -180 868 c 0xa5
 -129 868 -96 829 -96 771 c 0
 -96 692 -149 674 -182 674 c 0
 -256 674 -287 759 -328 759 c 0
 -359 759 -367 727 -367 699 c 0
 -367 684 -365 673 -365 673 c 1
 -456 674 -524 731 -524 843 c 0
 -524 920 -488 1012 -347 1012 c 0xce
 -303 1012 -258 1006 -217 1006 c 0x96
-178 808 m 0xa6
 -198 808 -208 790 -208 772 c 0
 -208 754 -198 737 -178 737 c 0
 -158 737 -148 754 -148 772 c 0
 -148 790 -158 808 -178 808 c 0xa6
EndSplineSet
Substitution2: "Thai Mark High Variant" uni0E47.high
Substitution2: "Thai Phinthu Maitaikhu Reordering" uni0E3A
EndChar

StartChar: uni0E48
Encoding: 232 3656 198
Width: 0
Flags: W
HStem: 992 202<-201 -90>
VStem: -201 111<992 1194>
AnchorPoint: "AboveMark" -145 988 mark 0
LayerCount: 2
Fore
SplineSet
-201 992 m 1
 -201 1194 l 1
 -90 1194 l 1
 -90 992 l 1
 -201 992 l 1
EndSplineSet
Substitution2: "Thai Phinthu Mai Ek Reordering" uni0E3A
Substitution2: "Thai Sara UU Mai Ek Reordering" uni0E39
Substitution2: "Thai Sara U Mai Ek Reordering" uni0E38
Substitution2: "Thai Tone Low Variant" uni0E48.low
MultipleSubs2: "Thai Tone Nikhahit Attachment" uni0E4D uni0E48
EndChar

StartChar: uni0E49
Encoding: 233 3657 199
Width: 0
Flags: W
HStem: 977 128<-343 -266.875> 1058 47<-334.891 -307> 1185 49<-336.043 -265.868>
VStem: -391 51<1109.46 1181.42> -261 64<1108.55 1180.76>
AnchorPoint: "AboveMark" -255 988 mark 0
LayerCount: 2
Fore
SplineSet
-2 1088 m 1x78
 -45 1044 -150 977 -335 977 c 0xb8
 -351 977 -366 978 -377 979 c 1
 -377 979 -349 995 -330 1021 c 0
 -310 1047 -307 1058 -307 1058 c 1
 -342 1058 -391 1081 -391 1142 c 0
 -391 1191 -356 1234 -304 1234 c 0
 -242 1234 -197 1200 -197 1136 c 0
 -197 1089 -223 1053 -239 1042 c 1
 -210 1045 -137 1063 -74 1124 c 0
 -28 1166 -2 1222 -2 1222 c 1
 -2 1088 l 1x78
-299 1105 m 0
 -274 1105 -261 1124 -261 1143 c 0
 -261 1164 -274 1185 -302 1185 c 0
 -327 1185 -340 1166 -340 1147 c 0
 -340 1126 -326 1105 -299 1105 c 0
EndSplineSet
Substitution2: "Thai Phinthu Mai Tho Reordering" uni0E3A
Substitution2: "Thai Sara UU Mai Tho Reordering" uni0E39
Substitution2: "Thai Sara U Mai Tho Reordering" uni0E38
Substitution2: "Thai Tone Low Variant" uni0E49.low
MultipleSubs2: "Thai Tone Nikhahit Attachment" uni0E4D uni0E49
EndChar

StartChar: uni0E4A
Encoding: 234 3658 200
Width: 0
Flags: W
HStem: 988 36<-347.685 -287.296> 1090 34<-342.284 -287.987> 1177 29<-238 -184> 1179 62<-334.36 -251.687 -220.617 -152.195>
VStem: -284 39<1026.63 1087.45> -143 69<1069.39 1170.7> -6 81<1137.57 1197.54>
AnchorPoint: "AboveMark" -223 988 mark 0
LayerCount: 2
Fore
SplineSet
-303 1179 m 0xde
 -330 1179 -343 1149 -343 1127 c 0
 -343 1122 -342 1118 -342 1117 c 1
 -341 1117 -327 1124 -308 1124 c 0
 -270 1124 -245 1097 -245 1057 c 0
 -245 1011 -280 988 -314 988 c 0
 -350 988 -407 1013 -407 1106 c 0
 -407 1155 -387 1241 -310 1241 c 0xde
 -264 1241 -239 1206 -238 1206 c 0
 -236 1206 -202 1242 -159 1242 c 0
 -116 1242 -74 1209 -74 1140 c 0
 -74 1099 -92 1068 -92 1068 c 1
 -87 1070 -55 1087 -32 1128 c 0
 -11 1168 -6 1217 -6 1235 c 1
 75 1194 l 1
 75 1194 52 1088 -38 1036 c 0
 -97 1004 -182 992 -207 992 c 1
 -194 995 -143 1039 -143 1117 c 0
 -143 1150 -155 1177 -184 1177 c 0xee
 -207 1177 -241 1151 -241 1151 c 1
 -242 1151 -270 1179 -303 1179 c 0xde
-317 1024 m 0
 -295 1024 -284 1040 -284 1057 c 0
 -284 1074 -295 1090 -317 1090 c 0
 -340 1090 -351 1074 -351 1057 c 0
 -351 1040 -340 1024 -317 1024 c 0
EndSplineSet
Substitution2: "Thai Phinthu Mai Tri Reordering" uni0E3A
Substitution2: "Thai Sara UU Mai Tri Reordering" uni0E39
Substitution2: "Thai Sara U Mai Tri Reordering" uni0E38
Substitution2: "Thai Tone Low Variant" uni0E4A.low
MultipleSubs2: "Thai Tone Nikhahit Attachment" uni0E4D uni0E4A
EndChar

StartChar: uni0E4B
Encoding: 235 3659 201
Width: 0
Flags: W
HStem: 1064 69<-303 -202 -89 12>
VStem: -202 113<984 1064 1133 1226>
AnchorPoint: "AboveMark" -145 988 mark 0
LayerCount: 2
Fore
SplineSet
-202 1226 m 1
 -89 1226 l 1
 -89 1133 l 1
 12 1133 l 1
 12 1064 l 1
 -89 1064 l 1
 -89 984 l 1
 -202 984 l 1
 -202 1064 l 1
 -303 1064 l 1
 -303 1133 l 1
 -202 1133 l 1
 -202 1226 l 1
EndSplineSet
Substitution2: "Thai Phinthu Mai Chattawa Reordering" uni0E3A
Substitution2: "Thai Sara UU Mai Chattawa Reordering" uni0E39
Substitution2: "Thai Sara U Mai Chattawa Reordering" uni0E38
Substitution2: "Thai Tone Low Variant" uni0E4B.low
MultipleSubs2: "Thai Tone Nikhahit Attachment" uni0E4D uni0E4B
EndChar

StartChar: uni0E4C
Encoding: 236 3660 202
Width: 0
Flags: W
HStem: 883 41<-154.301 -83.6426> 1009 39<-125.873 -85.66>
VStem: -219 59<928.931 1004.22> -78 43<929.491 1003.21> 2 81<1152.76 1214>
AnchorPoint: "AboveMark" -119 919 mark 0
LayerCount: 2
Fore
SplineSet
-124 883 m 0
 -181 883 -219 927 -219 987 c 0
 -219 1026 -202 1067 -169 1090 c 0
 -93 1142 2 1108 2 1214 c 1
 83 1214 l 1
 83 1209 77 1151 52 1125 c 0
 26 1101 -3 1082 -72 1076 c 0
 -123 1071 -126 1048 -126 1048 c 1
 -123 1048 -35 1048 -35 958 c 0
 -35 911 -80 883 -124 883 c 0
-120 924 m 0
 -92 924 -78 945 -78 966 c 0
 -78 988 -92 1009 -120 1009 c 0
 -146 1009 -160 988 -160 966 c 0
 -160 945 -146 924 -120 924 c 0
EndSplineSet
Substitution2: "Thai Phinthu Thanthakhat Reordering" uni0E3A
Substitution2: "Thai Sara UU Thanthakhat Reordering" uni0E39
Substitution2: "Thai Sara U Thanthakhat Reordering" uni0E38
Substitution2: "Thai Tone Low Variant" uni0E4C.low
MultipleSubs2: "Thai Tone Nikhahit Attachment" uni0E4D uni0E4C
EndChar

StartChar: uni0E4D
Encoding: 237 3661 203
Width: 0
Flags: W
HStem: 696 68<-243.589 -152.411> 878 68<-243.589 -152.411>
VStem: -323 68<775.189 866.811> -141 68<775.189 866.811>
AnchorPoint: "AboveMark" -197 988 basemark 0
AnchorPoint: "AboveBase" -87 613 mark 0
LayerCount: 2
Back
SplineSet
-198 946 m 0
 -114 946 -73 884 -73 821 c 0
 -73 758 -114 696 -198 696 c 0
 -282 696 -323 758 -323 821 c 0
 -323 884 -282 946 -198 946 c 0
-198 762 m 4
 -160 762 -140 791 -140 820 c 4
 -140 848 -160 877 -198 877 c 4
 -236 877 -255 848 -255 820 c 4
 -255 791 -236 762 -198 762 c 4
EndSplineSet
Fore
SplineSet
-198 946 m 0
 -114 946 -73 884 -73 821 c 0
 -73 758 -114 696 -198 696 c 0
 -282 696 -323 758 -323 821 c 0
 -323 884 -282 946 -198 946 c 0
-198 764 m 0
 -160 764 -141 793 -141 821 c 0
 -141 849 -160 878 -198 878 c 0
 -236 878 -255 849 -255 821 c 0
 -255 793 -236 764 -198 764 c 0
EndSplineSet
Substitution2: "Thai Phinthu Nikhahit Reordering" uni0E3A
Substitution2: "Thai Sara UU Nikhahit Reordering" uni0E39
Substitution2: "Thai Sara U Nikhahit Reordering" uni0E38
Substitution2: "Thai Mark High Variant" uni0E4D.high
EndChar

StartChar: uni0E4E
Encoding: 238 3662 204
Width: 0
Flags: W
HStem: 717 69<-201.87 -102.583> 878 63<-127.672 -81> 1018 61<-121.934 0.720968>
VStem: -317 113<789.215 853.232> -238 105<948.631 1004.4>
AnchorPoint: "AboveBase" -87 613 mark 0
LayerCount: 2
Fore
SplineSet
-133 973 m 0xe8
 -133 952 -97 941 -74 941 c 2
 -52 941 l 1
 -81 878 l 1
 -90 878 l 2
 -126 878 -204 866 -204 815 c 0
 -204 796 -185 786 -167 786 c 0
 -138 786 -127 792 -109 812 c 1
 -52 766 l 1
 -98 728 -138 717 -198 717 c 0
 -258 717 -317 739 -317 808 c 0xf0
 -317 869 -265 914 -210 926 c 1
 -228 940 -238 958 -238 983 c 0
 -238 1063 -105 1079 -46 1079 c 0
 -12 1079 9 1071 41 1056 c 1
 -18 1010 l 1
 -30 1013 -41 1018 -64 1018 c 0
 -90 1018 -133 1004 -133 973 c 0xe8
EndSplineSet
EndChar

StartChar: uni0E4F
Encoding: 239 3663 205
Width: 596
Flags: W
HStem: 0 34<208.142 384.11> 109 35<238.701 359.822> 360 37<235.867 362.595> 472 34<208.142 384.11>
VStem: 44 34<166.743 339.257> 152 39<187.704 315.765> 407 34<192.895 312.105> 514 35<164.37 341.63>
LayerCount: 2
Fore
SplineSet
296 506 m 0
 464 506 549 380 549 253 c 0
 549 126 464 0 296 0 c 0
 128 0 44 126 44 253 c 0
 44 380 128 506 296 506 c 0
296 34 m 0
 442 34 514 144 514 253 c 0
 514 362 442 472 296 472 c 0
 151 472 78 362 78 253 c 0
 78 144 151 34 296 34 c 0
296 397 m 0
 200 397 152 325 152 253 c 0
 152 181 200 109 296 109 c 0
 392 109 441 181 441 253 c 0
 441 325 392 397 296 397 c 0
299 360 m 0
 371 360 407 306 407 252 c 0
 407 198 371 144 299 144 c 0
 227 144 191 198 191 252 c 0
 191 306 227 360 299 360 c 0
EndSplineSet
EndChar

StartChar: uni0E50
Encoding: 240 3664 206
Width: 697
Flags: W
HStem: -5 78<254.238 428.055> 345 78<250.103 427.94>
VStem: 74 118<131.382 288.894> 487 118<128.2 288.894>
LayerCount: 2
Back
SplineSet
74 212 m 0
 74 343 169 429 339 429 c 0
 507 429 605 343 605 212 c 0
 605 77 510 -9 339 -9 c 0
 166 -9 74 77 74 212 c 0
339 353 m 0
 233 353 185 290 185 210 c 0
 185 130 236 67 336 67 c 0
 441 67 492 127 492 210 c 0
 492 290 446 353 339 353 c 0
EndSplineSet
Fore
SplineSet
74 211 m 0
 74 337 169 423 339 423 c 0
 507 423 605 337 605 211 c 0
 605 81 510 -5 339 -5 c 0
 166 -5 74 81 74 211 c 0
339 345 m 0
 233 345 192 284 192 209 c 0
 192 134 239 73 339 73 c 0
 444 73 487 131 487 209 c 0
 487 284 446 345 339 345 c 0
EndSplineSet
EndChar

StartChar: uni0E51
Encoding: 241 3665 207
Width: 697
Flags: W
HStem: -5 78<249.144 341.82> 201 53<333.851 392.534> 345 78<288.808 460.61>
VStem: 101 118<104.941 273.206> 275 57<139.372 199.109> 395 62<139.883 199.035> 524 118<88.0636 280.3>
LayerCount: 2
Back
SplineSet
101 197 m 0
 101 330 189 423 369 423 c 0
 567 423 642 313 642 197 c 0
 642 93 582 -16 498 -55 c 1
 434 -6 l 1
 437 -5 528 16 528 176 c 0
 528 267 499 356 369 356 c 0
 255 356 206 269 206 190 c 0
 206 123 241 61 299 61 c 0
 323 61 329 69 340 77 c 1
 300 83 271 118 271 158 c 0
 271 203 304 242 359 242 c 0
 434 242 453 185 453 143 c 0
 453 64 385 -3 289 -3 c 0
 206 -3 101 43 101 197 c 0
359 189 m 0
 338 189 328 173 328 158 c 0
 328 142 338 126 359 126 c 0
 380 126 391 142 391 158 c 0
 391 173 380 189 359 189 c 0
EndSplineSet
Fore
SplineSet
101 197 m 0
 101 330 189 423 369 423 c 0
 567 423 642 313 642 197 c 0
 642 93 582 -16 498 -55 c 1
 434 -6 l 1
 437 -5 524 16 524 176 c 0
 524 267 495 345 369 345 c 0
 268 345 219 269 219 190 c 0
 219 123 245 73 303 73 c 0
 327 73 333 81 344 89 c 1
 304 95 275 130 275 170 c 0
 275 215 308 254 363 254 c 0
 438 254 457 197 457 155 c 0
 457 76 385 -5 289 -5 c 0
 206 -5 101 43 101 197 c 0
363 201 m 0
 342 201 332 185 332 170 c 0
 332 154 342 138 363 138 c 0
 384 138 395 154 395 170 c 0
 395 185 384 201 363 201 c 0
EndSplineSet
EndChar

StartChar: uni0E52
Encoding: 242 3666 208
Width: 697
Flags: W
HStem: 0 78<257.88 532.31> 122 50<375.186 425.335> 224 49<375.371 425.332> 345 78<379.516 441.096 491.519 592>
VStem: 124 118<94.8524 485.453> 287 87<177.024 342.423> 426 50<173.102 223.355> 446 41<305 339.952> 547 118<93.1611 345.954>
LayerCount: 2
Back
SplineSet
287 271 m 0xfe80
 287 360 325 422 401 422 c 0
 451 422 465 390 467 383 c 1
 472 391 492 422 554 422 c 0
 630 422 665 370 665 300 c 2
 665 144 l 2
 665 52 620 0 540 0 c 2
 267 0 l 2
 168 0 124 63 124 146 c 2
 124 403 l 2
 124 431 124 468 98 492 c 0
 65 523 26 524 5 524 c 1
 70 612 l 1
 113 610 148 592 182 566 c 0
 232 524 242 471 242 405 c 2
 242 139 l 2
 242 94 281 77 303 77 c 2
 468 77 l 2
 522 77 547 101 547 147 c 2
 547 296 l 2
 547 319 544 353 523 353 c 0
 503 353 487 331 487 311 c 1
 446 311 l 1xfd80
 446 332 429 351 408 351 c 0
 380 351 374 318 374 294 c 0
 374 280 376 269 376 268 c 1
 385 271 393 273 402 273 c 0
 429 273 476 259 476 201 c 0
 476 153 445 122 395 122 c 0
 336 122 287 178 287 271 c 0xfe80
400 224 m 0
 383 224 374 211 374 198 c 0
 374 185 383 172 400 172 c 0
 418 172 426 185 426 198 c 0xfe80
 426 211 418 224 400 224 c 0
EndSplineSet
Fore
SplineSet
287 271 m 0xfe80
 287 360 325 423 401 423 c 0
 451 423 465 391 467 384 c 1
 472 392 492 423 554 423 c 0
 630 423 665 370 665 300 c 2
 665 144 l 2
 665 52 620 0 540 0 c 2
 267 0 l 2
 168 0 124 63 124 146 c 2
 124 403 l 2
 124 505 71 524 5 524 c 1
 70 612 l 1
 112 610 242 587 242 405 c 2
 242 139 l 2
 242 94 281 78 303 78 c 2
 468 78 l 2
 522 78 547 101 547 147 c 2
 547 296 l 2
 547 319 544 347 523 347 c 0
 503 347 487 325 487 305 c 1
 446 305 l 1xfd80
 446 326 429 345 408 345 c 0
 380 345 374 318 374 294 c 0
 374 280 376 269 376 268 c 1
 385 271 393 273 402 273 c 0
 429 273 476 259 476 201 c 0
 476 153 445 122 395 122 c 0
 336 122 287 178 287 271 c 0xfe80
400 224 m 0
 383 224 374 211 374 198 c 0
 374 185 383 172 400 172 c 0
 418 172 426 185 426 198 c 0xfe80
 426 211 418 224 400 224 c 0
EndSplineSet
EndChar

